<?xml version="1.0" encoding="UTF-8" standalone="no"?>
<!-- Created with Inkscape (http://www.inkscape.org/) -->

<svg
   width="87.21241"
   height="115.39781"
   viewBox="0 0 23.07495 30.532337"
   version="1.1"
   id="svg1"
   xml:space="preserve"
   xmlns="http://www.w3.org/2000/svg"
   xmlns:svg="http://www.w3.org/2000/svg"><defs
     id="defs1" /><g
     id="g64"
     style="display:inline"
     transform="translate(-6.5984111,-1.3436642)"><path
       style="fill:#eaecf1"
       d="m 11.646057,29.23378 h -0.240364 v -0.220186 -0.220185 h 0.240364 0.240364 v 0.220185 0.220186 z M 9.242416,18.664894 H 9.0020519 V 18.444709 18.224524 H 9.242416 9.48278 v 0.220185 0.220185 z M 8.2809597,17.343783 h -0.240364 v -0.220185 -0.220185 h 0.240364 0.2403641 v 0.220185 0.220185 z M 26.0679,4.1326758 H 25.827536 V 3.9124906 3.6923055 H 26.0679 26.308264 V 3.9124906 4.1326758 Z M 21.260619,1.9308246 H 21.020255 V 1.7106394 1.4904543 h 0.240364 0.240364 v 0.2201851 0.2201852 z"
       id="path142" /><path
       style="fill:#f3ebe7"
       d="m 16.453338,29.583228 -0.961457,-0.02902 -1.20182,-0.197504 -1.20182,-0.197503 -0.418646,-0.36823 -0.418646,-0.368229 2.061528,0.424309 2.061527,0.424308 1.481851,-0.237856 1.481851,-0.237856 -0.961456,0.408299 -0.961456,0.4083 z m 3.365097,-0.789819 H 19.57807 v -0.220185 -0.220185 h 0.240365 0.240364 v 0.220185 0.220185 z m -3.124733,-0.531882 -1.682549,0.01208 -1.562366,-0.413245 -1.562366,-0.413245 v -0.23727 -0.23727 l 1.004223,0.291971 1.004224,0.29197 2.240691,0.346465 2.240691,0.346464 z m 2.40364,-0.348858 h -0.64097 l 0.320485,-0.29358 0.320485,-0.29358 0.320486,0.29358 0.320485,0.29358 z m 1.201821,-0.44037 h -0.240364 v -0.220186 -0.220185 h 0.240364 0.240364 v 0.220185 0.220186 z m -3.845825,-0.515172 -1.922913,0.03508 -1.442184,-0.647333 -1.442184,-0.647334 0.961456,0.272806 0.961456,0.272806 2.403641,0.339452 2.40364,0.339451 z m 2.644004,-0.365569 h -0.64097 l 0.320485,-0.29358 0.320485,-0.29358 0.320486,0.29358 0.320485,0.29358 z m 1.201821,-0.44037 h -0.240364 v -0.220185 -0.220185 h 0.240364 0.240364 v 0.220185 0.220185 z m -5.32807,-0.475136 -0.921396,-0.03477 0.630956,-0.23129 0.630955,-0.231291 0.29044,0.266057 0.29044,0.266057 z m -1.430425,-0.412348 -0.452427,-0.0067 -0.70717,-0.409683 -0.70717,-0.409683 0.227198,-0.208124 0.227197,-0.208124 0.9324,0.62455 0.9324,0.62455 z m 8.492801,-4.837329 h -0.240364 l 1.63079,-1.541296 1.630791,-1.541296 h 0.240364 0.240364 l -1.63079,1.541296 -1.630791,1.541296 z M 9.242416,15.582302 H 9.0020519 V 15.362117 15.141932 H 9.242416 9.48278 v 0.220185 0.220185 z M 8.2809597,12.940081 H 8.0405957 V 12.719895 12.49971 h 0.240364 0.2403641 v 0.220185 0.220186 z M 10.14501,5.8941567 H 9.9635082 V 5.7278926 5.5616285 L 10.804782,4.9572447 11.646057,4.3528609 10.986284,5.1235088 10.326511,5.8941567 Z M 15.011153,3.2519353 H 14.770789 V 3.0317502 2.811565 h 0.240364 0.240364 v 0.2201852 0.2201851 z"
       id="path141" /><path
       style="fill:#e3e4e9"
       d="m 14.530425,31.876001 h -0.240364 v -0.220185 -0.220185 h 0.240364 0.240364 v 0.220185 0.220185 z m 6.249466,-3.522962 h -0.240364 v -0.220185 -0.220185 h 0.240364 0.240364 v 0.220185 0.220185 z m 2.40364,-6.605554 H 22.943167 V 21.5273 21.307115 h 0.240364 0.240364 V 21.5273 21.747485 Z M 10.6846,20.426375 H 10.444236 V 20.20619 19.986004 h 0.240364 0.240364 v 0.220186 0.220185 z m 13.941116,0 H 24.385352 V 20.20619 19.986004 h 0.240364 0.240364 v 0.220186 0.220185 z M 7.3195035,15.582302 h -0.240364 v -0.220185 -0.220185 h 0.240364 0.2403641 v 0.220185 0.220185 z M 29.432997,12.940081 H 29.192633 V 12.719895 12.49971 h 0.240364 0.240364 v 0.220185 0.220186 z M 27.029356,5.0134163 H 26.788992 V 4.7932311 4.573046 h 0.240364 0.240364 V 4.7932311 5.0134163 Z M 11.646057,2.811565 H 11.405693 V 2.5913799 2.3711948 h 0.240364 0.240364 V 2.5913799 2.811565 Z"
       id="path140" /><path
       style="fill:#f3e7ce"
       d="m 25.587172,17.343783 h -0.240364 v -0.220185 -0.220185 h 0.240364 0.240364 v 0.220185 0.220185 z M 8.8418092,14.554771 8.5213238,14.848352 v -0.587161 -0.58716 l 0.3204854,0.29358 0.3204854,0.29358 z M 8.2809597,12.49971 H 8.0405957 V 12.279525 12.05934 h 0.240364 0.2403641 v 0.220185 0.220185 z m 0,-3.5229616 H 8.0405957 V 8.7565633 8.5363782 h 0.240364 0.2403641 V 8.7565633 8.9767484 Z M 8.7102553,8.0960079 H 8.5213238 V 7.681627 7.2672461 L 8.9965455,6.9981998 9.4717671,6.7291535 9.185477,7.4125807 8.8991869,8.0960079 Z M 9.7231441,6.334527 H 9.48278 V 6.1143419 5.8941567 H 9.7231441 9.9635082 V 6.1143419 6.334527 Z M 12.607513,4.1326758 H 12.367149 V 3.9124906 3.6923055 h 0.240364 0.240364 V 3.9124906 4.1326758 Z M 13.568969,3.6923055 H 13.328605 V 3.4721204 3.2519353 h 0.240364 0.240364 V 3.4721204 3.6923055 Z M 15.491881,3.2519353 H 15.251517 V 3.0317502 2.811565 h 0.240364 0.240365 v 0.2201852 0.2201851 z"
       id="path139" /><path
       style="fill:#dde1e8"
       d="m 11.24545,25.123657 -0.320486,0.29358 v -0.58716 -0.58716 l 0.320486,0.29358 0.320485,0.29358 z M 29.432997,9.4171187 H 29.192633 V 9.1969335 8.9767484 h 0.240364 0.240364 V 9.1969335 9.4171187 Z M 22.702803,2.3711948 H 22.462439 V 2.1510097 1.9308246 h 0.240364 0.240364 v 0.2201851 0.2201851 z"
       id="path138" /><path
       style="fill:#e4dddd"
       d="M 17.895522,29.67415 H 17.655158 V 29.453965 29.23378 h 0.240364 0.240364 v 0.220185 0.220185 z m -4.807281,-0.880741 h -0.240364 v -0.220185 -0.220185 h 0.240364 0.240364 v 0.220185 0.220185 z m 1.922912,-0.88074 h -0.240364 v -0.220185 -0.220185 h 0.240364 0.240364 v 0.220185 0.220185 z m -0.480728,-1.321111 h -0.240364 v -0.220185 -0.220185 h 0.240364 0.240364 v 0.220185 0.220185 z m 5.28801,0 H 19.57807 v -0.220185 -0.220185 h 0.240365 0.240364 v 0.220185 0.220185 z"
       id="path137" /><path
       style="fill:#d6dae3"
       d="m 11.165328,28.353039 h -0.240364 v -0.220185 -0.220185 h 0.240364 0.240365 v 0.220185 0.220185 z m 11.056747,-3.963332 h -0.240364 v -0.220185 -0.220185 h 0.240364 0.240364 v 0.220185 0.220185 z M 26.0679,19.105264 h -0.240364 v -0.220185 -0.220185 h 0.240364 0.240364 v 0.220185 0.220185 z M 7.8002316,16.463043 h -0.240364 v -0.220186 -0.220185 h 0.240364 0.2403641 v 0.220185 0.220186 z M 6.8387754,14.261191 H 6.5984113 v -0.220185 -0.220185 h 0.2403641 0.2403641 v 0.220185 0.220185 z m 0,-5.7248128 H 6.5984113 V 8.3161931 8.0960079 H 6.8387754 7.0791395 V 8.3161931 8.5363782 Z M 26.548628,4.573046 H 26.308264 V 4.3528609 4.1326758 h 0.240364 0.240364 V 4.3528609 4.573046 Z M 24.625716,3.2519353 H 24.385352 V 3.0317502 2.811565 h 0.240364 0.240364 v 0.2201852 0.2201851 z"
       id="path136" /><path
       style="fill:#f6e5ad"
       d="m 8.2809597,13.380451 h -0.240364 v -0.220185 -0.220185 h 0.240364 0.2403641 v 0.220185 0.220185 z M 11.646057,4.573046 H 11.405693 V 4.3528609 4.1326758 h 0.240364 0.240364 V 4.3528609 4.573046 Z M 13.992955,3.6923055 H 13.752591 L 14.049697,3.2519353 14.346803,2.811565 h 0.240365 0.240364 L 14.530425,3.2519353 14.233319,3.6923055 Z M 15.97261,3.2519353 H 15.732246 V 3.0317502 2.811565 h 0.240364 0.240364 v 0.2201852 0.2201851 z"
       id="path135" /><path
       style="fill:#d7d4d8"
       d="M 19.818435,30.55489 H 19.57807 V 30.334705 30.11452 h 0.240365 0.240364 v 0.220185 0.220185 z m -0.480729,-1.32111 h -0.240364 v -0.220186 -0.220185 h 0.240364 0.240364 v 0.220185 0.220186 z m -4.807281,-0.880741 h -0.240364 v -0.220185 -0.220185 h 0.240364 0.240364 v 0.220185 0.220185 z m 3.845825,0 h -0.240364 v -0.220185 -0.220185 h 0.240364 0.240364 v 0.220185 0.220185 z m 1.442185,-0.88074 H 19.57807 v -0.220186 -0.220185 h 0.240365 0.240364 v 0.220185 0.220186 z M 18.37625,27.031928 h -0.240364 v -0.220185 -0.220185 h 0.240364 0.240364 v 0.220185 0.220185 z m 6.730194,-7.045924 H 24.86608 v -0.220185 -0.220185 h 0.240364 0.240364 v 0.220185 0.220185 z M 14.049697,1.9308246 H 13.809333 V 1.7106394 1.4904543 h 0.240364 0.240364 v 0.2201851 0.2201852 z"
       id="path134" /><path
       style="fill:#f7e395"
       d="M 9.242416,16.022672 H 9.0020519 V 15.802487 15.582302 H 9.242416 9.48278 v 0.220185 0.220185 z m 0,-0.88074 H 9.0020519 V 14.921747 14.701562 H 9.242416 9.48278 v 0.220185 0.220185 z M 8.2809597,13.820821 h -0.240364 v -0.220185 -0.220185 h 0.240364 0.2403641 v 0.220185 0.220185 z m 0,-1.761481 H 8.0405957 V 11.839155 11.61897 h 0.240364 0.2403641 v 0.220185 0.220185 z m 0,-2.6422213 H 8.0405957 V 9.1969335 8.9767484 h 0.240364 0.2403641 V 9.1969335 9.4171187 Z M 9.242416,6.7748972 H 9.0020519 V 6.5547121 6.334527 H 9.242416 9.48278 V 6.5547121 6.7748972 Z M 12.126785,4.573046 H 11.886421 V 4.3528609 4.1326758 h 0.240364 0.240364 V 4.3528609 4.573046 Z M 13.088241,4.1326758 H 12.847877 V 3.9124906 3.6923055 h 0.240364 0.240364 V 3.9124906 4.1326758 Z M 16.453338,3.2519353 H 16.212974 V 3.0317502 2.811565 h 0.240364 0.240364 v 0.2201852 0.2201851 z m 1.882852,-0.034766 -0.921396,-0.034766 0.630956,-0.2312909 0.630955,-0.231291 0.29044,0.2660571 0.29044,0.266057 z"
       id="path133" /><path
       style="fill:#c6cad4"
       d="m 17.895522,31.876001 h -0.240364 v -0.220185 -0.220185 h 0.240364 0.240364 v 0.220185 0.220185 z M 12.607513,30.11452 H 12.367149 V 29.894335 29.67415 h 0.240364 0.240364 v 0.220185 0.220185 z m 2.40364,-0.44037 H 14.770789 V 29.453965 29.23378 h 0.240364 0.240364 v 0.220185 0.220185 z m 4.807282,-1.761481 H 19.57807 v -0.220185 -0.220185 h 0.240365 0.240364 v 0.220185 0.220185 z m -6.730194,-1.761481 h -0.240364 v -0.220185 -0.220185 h 0.240364 0.240364 v 0.220185 0.220185 z m 2.884369,-0.44037 h -0.240364 v -0.220186 -0.220185 h 0.240364 0.240364 v 0.220185 0.220186 z m 5.288009,0 h -0.240364 v -0.220186 -0.220185 h 0.240364 0.240364 v 0.220185 0.220186 z m 4.326553,-6.165184 h -0.240364 v -0.220185 -0.220185 h 0.240364 0.240364 v 0.220185 0.220185 z M 9.7231441,19.105264 H 9.48278 v -0.220185 -0.220185 h 0.2403641 0.2403641 v 0.220185 0.220185 z M 27.510084,17.343783 H 27.26972 v -0.220185 -0.220185 h 0.240364 0.240364 v 0.220185 0.220185 z M 29.432997,12.49971 H 29.192633 V 12.279525 12.05934 h 0.240364 0.240364 v 0.220185 0.220185 z m 0,-2.6422211 H 29.192633 V 9.6373038 9.4171187 h 0.240364 0.240364 V 9.6373038 9.8574889 Z M 7.8002316,6.334527 H 7.5598676 V 6.1143419 5.8941567 h 0.240364 0.2403641 V 6.1143419 6.334527 Z M 8.7616879,5.0134163 H 8.5213238 V 4.7932311 4.573046 h 0.2403641 0.240364 V 4.7932311 5.0134163 Z M 23.664259,2.811565 H 23.423895 V 2.5913799 2.3711948 h 0.240364 0.240365 V 2.5913799 2.811565 Z M 20.779891,1.9308246 H 20.539527 V 1.7106394 1.4904543 h 0.240364 0.240364 v 0.2201851 0.2201852 z"
       id="path132" /><path
       style="fill:#f8e289"
       d="M 8.5213238,8.5363782 H 7.880353 L 8.2008384,8.242798 8.5213238,7.9492179 8.8418092,8.242798 9.1622946,8.5363782 Z M 13.088241,3.6923055 H 12.847877 V 3.4721204 3.2519353 h 0.240364 0.240364 V 3.4721204 3.6923055 Z M 17.17443,3.2519353 h -0.640971 l 0.320485,-0.2935802 0.320486,-0.2935801 0.320485,0.2935801 0.320486,0.2935802 z"
       id="path131" /><path
       style="fill:#c6c4cb"
       d="M 17.414794,29.23378 H 17.17443 v -0.220186 -0.220185 h 0.240364 0.240364 v 0.220185 0.220186 z m 1.922912,-0.440371 h -0.240364 v -0.220185 -0.220185 h 0.240364 0.240364 v 0.220185 0.220185 z m 0.961457,0 h -0.240364 v -0.220185 -0.220185 h 0.240364 0.240364 v 0.220185 0.220185 z m -4.807282,-0.88074 h -0.240364 v -0.220185 -0.220185 h 0.240364 0.240365 v 0.220185 0.220185 z m 2.884369,0 h -0.240364 v -0.220185 -0.220185 h 0.240364 0.240364 v 0.220185 0.220185 z m -4.326553,-0.880741 h -0.240364 v -0.220185 -0.220185 h 0.240364 0.240364 v 0.220185 0.220185 z m 6.730194,0 h -0.240364 v -0.220185 -0.220185 h 0.240364 0.240364 v 0.220185 0.220185 z m -8.172378,-0.44037 h -0.240364 v -0.220185 -0.220185 h 0.240364 0.240364 v 0.220185 0.220185 z m 1.442184,-1.321111 h -0.240364 v -0.220185 -0.220185 h 0.240364 0.240364 v 0.220185 0.220185 z"
       id="path130" /><path
       style="fill:#f9e077"
       d="m 24.625716,18.664894 h -0.240364 v -0.220185 -0.220185 h 0.240364 0.240364 v 0.220185 0.220185 z M 9.7231441,16.463043 H 9.48278 v -0.220186 -0.220185 h 0.2403641 0.2403641 v 0.220185 0.220186 z M 8.7616879,15.141932 H 8.5213238 v -0.220185 -0.220185 h 0.2403641 0.240364 v 0.220185 0.220185 z m 0,-1.321111 H 8.5213238 v -0.220185 -0.220185 h 0.2403641 0.240364 v 0.220185 0.220185 z M 11.646057,5.0134163 H 11.405693 V 4.7932311 4.573046 h 0.240364 0.240364 V 4.7932311 5.0134163 Z M 12.126785,4.1326758 H 11.886421 V 3.9124906 3.6923055 h 0.240364 0.240364 V 3.9124906 4.1326758 Z M 16.934066,2.811565 H 16.693702 V 2.5913799 2.3711948 h 0.240364 0.240364 V 2.5913799 2.811565 Z"
       id="path129" /><path
       style="fill:#bbc2d1"
       d="m 21.741347,28.353039 h -0.240364 v -0.220185 -0.220185 h 0.240364 0.240364 v 0.220185 0.220185 z m 0.480728,-4.403702 h -0.240364 v -0.220185 -0.220186 h 0.240364 0.240364 v 0.220186 0.220185 z M 11.165328,21.307115 H 10.924964 V 21.08693 20.866745 h 0.240364 0.240365 v 0.220185 0.220185 z m 17.786941,-6.605553 h -0.240364 v -0.220186 -0.220185 h 0.240364 0.240364 v 0.220185 0.220186 z M 7.3195035,7.2152675 H 7.0791395 V 6.9950823 6.7748972 h 0.240364 0.2403641 V 6.9950823 7.2152675 Z M 10.203872,3.6923055 H 9.9635082 V 3.4721204 3.2519353 h 0.2403638 0.240364 v 0.2201851 0.2201851 z"
       id="path128" /><path
       style="fill:#f9de68"
       d="m 24.144988,19.105264 h -0.240364 v -0.220185 -0.220185 h 0.240364 0.240364 v 0.220185 0.220185 z m -6.810851,-0.88074 h -1.601891 l -0.0066,-0.770648 -0.0066,-0.770648 -0.259746,-0.885316 -0.259745,-0.885316 1.437201,-0.496941 1.437202,-0.496941 0.256205,0.611609 0.256205,0.611609 h 0.691183 0.691184 l -0.516389,1.541296 -0.516389,1.541296 z m 4.285395,-0.753921 -1.560733,0.834994 v -0.356092 -0.356091 l 0.790496,-1.896114 0.790496,-1.896115 -0.298151,-0.27312 -0.298151,-0.27312 -0.741726,0.563899 -0.741727,0.5639 -0.906389,-0.751408 -0.906389,-0.751407 -1.070315,0.580538 -1.070315,0.580539 -0.217616,-0.550463 -0.217616,-0.550462 H 14.43825 13.705104 l 0.315713,1.1523 0.315714,1.152301 0.293182,1.342845 0.293182,1.342845 -1.270886,-0.843757 -1.270887,-0.843758 -0.968443,-1.790424 -0.968443,-1.790424 V 11.329012 9.9960151 l 1.093621,-1.8944499 1.09362,-1.8944498 1.663066,-0.8170347 1.663066,-0.8170347 2.170777,0.00165 2.170777,0.00165 1.56676,0.8750693 1.56676,0.8750694 0.955266,1.4352283 0.955265,1.4352282 0.0018,2.2468208 0.0018,2.24682 -1.083272,1.472518 -1.083272,1.472517 z m 3.486912,0.753921 H 24.86608 v -0.220186 -0.220185 h 0.240364 0.240364 v 0.220185 0.220186 z M 9.7231441,16.022672 H 9.48278 v -0.220185 -0.220185 h 0.2403641 0.2403641 v 0.220185 0.220185 z m 0,-9.2477748 H 9.48278 V 6.5547121 6.334527 H 9.7231441 9.9635082 V 6.5547121 6.7748972 Z M 14.558796,3.6923055 H 14.346803 L 14.003792,3.1838943 13.66078,2.6754832 14.215785,2.9896985 14.770789,3.3039139 V 3.4981097 3.6923055 Z M 16.453338,2.811565 H 16.212974 V 2.5913799 2.3711948 h 0.240364 0.240364 V 2.5913799 2.811565 Z m 1.20182,0 h -0.640971 l 0.320486,-0.2935801 0.320485,-0.2935802 0.320485,0.2935802 0.320486,0.2935801 z"
       id="path127" /><path
       style="fill:#fadd5b"
       d="m 21.684605,20.426375 h -0.240364 l 0.297106,-0.440371 0.297106,-0.44037 h 0.240364 0.240364 l -0.297106,0.44037 -0.297106,0.440371 z m 1.979654,-0.880741 h -0.240364 v -0.220185 -0.220185 h 0.240364 0.240365 v 0.220185 0.220185 z m 1.442185,-2.201851 H 24.86608 v -0.220185 -0.220185 h 0.240364 0.240364 v 0.220185 0.220185 z m -12.018203,-0.44037 h -0.240364 v -0.220185 -0.220185 h 0.240364 0.240364 v 0.220185 0.220185 z m -0.961456,-0.880741 h -0.240364 v -0.220185 -0.220185 h 0.240364 0.240364 v 0.220185 0.220185 z M 8.2809597,14.261191 h -0.240364 v -0.220185 -0.220185 h 0.240364 0.2403641 v 0.220185 0.220185 z M 10.6846,13.380451 h -0.240364 v -0.220185 -0.220185 h 0.240364 0.240364 v 0.220185 0.220185 z M 7.7718605,12.05934 H 7.5598676 V 11.61897 11.1786 H 8.0689668 8.5780661 L 8.2809597,11.61897 7.9838534,12.05934 Z M 25.665185,11.729062 25.422712,12.279525 V 11.1786 10.077674 l 0.242473,0.550463 0.242472,0.550463 z M 10.6846,9.8574889 H 10.444236 V 9.6373038 9.4171187 H 10.6846 10.924964 V 9.6373038 9.8574889 Z M 25.106444,8.9767484 H 24.86608 V 8.7565633 8.5363782 h 0.240364 0.240364 V 8.7565633 8.9767484 Z M 11.165328,8.5363782 H 10.924964 V 8.3161931 8.0960079 h 0.240364 0.240365 V 8.3161931 8.5363782 Z M 24.625716,8.0960079 H 24.385352 V 7.8758228 7.6556377 h 0.240364 0.240364 V 7.8758228 8.0960079 Z M 9.2707871,7.6556377 H 9.0587942 L 8.7157824,7.1472265 8.3727706,6.6388153 8.9277753,6.9530307 9.48278,7.2672461 V 7.4614419 7.6556377 Z M 12.126785,7.2152675 H 11.886421 V 6.9950823 6.7748972 h 0.240364 0.240364 V 6.9950823 7.2152675 Z M 10.203872,5.4537865 H 9.9635082 V 5.2336014 5.0134163 h 0.2403638 0.240364 V 5.2336014 5.4537865 Z M 15.491881,5.0134163 H 15.251517 V 4.7932311 4.573046 h 0.240364 0.240365 V 4.7932311 5.0134163 Z M 18.616614,2.811565 H 17.975643 L 18.296129,2.5179849 18.616614,2.2244047 18.9371,2.5179849 19.257585,2.811565 Z"
       id="path126" /><path
       style="fill:#b3b7c4"
       d="M 12.126785,29.67415 H 11.886421 V 29.453965 29.23378 h 0.240364 0.240364 v 0.220185 0.220185 z m 2.40364,0 H 14.290061 V 29.453965 29.23378 h 0.240364 0.240364 v 0.220185 0.220185 z m 1.682549,-0.509903 h -1.201821 l 0.600911,-0.222116 0.60091,-0.222117 0.60091,0.222117 0.60091,0.222116 z M 15.97261,27.912669 h -0.240364 v -0.220185 -0.220185 h 0.240364 0.240364 v 0.220185 0.220185 z m -2.884369,-0.44037 h -0.240364 v -0.220186 -0.220185 h 0.240364 0.240364 v 0.220185 0.220186 z m 1.922912,-0.880741 h -0.240364 v -0.220185 -0.220185 h 0.240364 0.240364 v 0.220185 0.220185 z m 3.365097,0 h -0.240364 v -0.220185 -0.220185 h 0.240364 0.240364 v 0.220185 0.220185 z m 1.442185,-0.44037 H 19.57807 v -0.220185 -0.220185 h 0.240365 0.240364 v 0.220185 0.220185 z m 0.961456,0 h -0.240364 v -0.220185 -0.220185 h 0.240364 0.240364 v 0.220185 0.220185 z m -6.730194,-0.44037 h -0.240364 v -0.220186 -0.220185 h 0.240364 0.240364 v 0.220185 0.220186 z M 28.952269,8.0960079 H 28.711905 V 7.8758228 7.6556377 h 0.240364 0.240364 V 7.8758228 8.0960079 Z M 9.7231441,4.1326758 H 9.48278 V 3.9124906 3.6923055 h 0.2403641 0.2403641 v 0.2201851 0.2201852 z"
       id="path125" /><path
       style="fill:#fbdc53"
       d="m 18.135886,18.664894 h -0.640971 l 0.320486,-0.29358 0.320485,-0.293581 0.320486,0.293581 0.320485,0.29358 z m 2.644005,-0.44037 h -0.240364 v -0.220186 -0.220185 h 0.240364 0.240364 v 0.220185 0.220186 z m 0.961456,-0.440371 h -0.240364 v -0.220185 -0.220185 h 0.240364 0.240364 v 0.220185 0.220185 z m 3.845825,0 h -0.240364 v -0.220185 -0.220185 h 0.240364 0.240364 v 0.220185 0.220185 z m -12.018203,-0.44037 h -0.240364 v -0.220185 -0.220185 h 0.240364 0.240364 v 0.220185 0.220185 z m 11.056747,-2.201851 h -0.240364 v -0.220185 -0.220185 h 0.240364 0.240364 v 0.220185 0.220185 z m -13.460388,-0.44037 h -0.240364 v -0.220186 -0.220185 h 0.240364 0.240365 v 0.220185 0.220186 z M 25.106444,14.261191 H 24.86608 v -0.220185 -0.220185 h 0.240364 0.240364 v 0.220185 0.220185 z M 8.7616879,13.380451 H 8.5213238 v -0.220185 -0.220185 h 0.2403641 0.240364 v 0.220185 0.220185 z M 25.587172,12.49971 H 25.346808 V 12.279525 12.05934 h 0.240364 0.240364 v 0.220185 0.220185 z M 8.2809597,8.0960079 H 8.0405957 V 7.8758228 7.6556377 h 0.240364 0.2403641 V 7.8758228 8.0960079 Z M 11.646057,7.6556377 H 11.405693 V 7.4354526 7.2152675 h 0.240364 0.240364 v 0.2201851 0.2201851 z m 1.922912,-1.761481 H 13.328605 V 5.6739716 5.4537865 h 0.240364 0.240364 V 5.6739716 5.8941567 Z M 21.741347,5.4537865 H 21.500983 V 5.2336014 5.0134163 h 0.240364 0.240364 V 5.2336014 5.4537865 Z M 10.6846,5.0134163 H 10.444236 V 4.7932311 4.573046 h 0.240364 0.240364 v 0.2201851 0.2201852 z m 10.095291,0 H 20.539527 V 4.7932311 4.573046 h 0.240364 0.240364 V 4.7932311 5.0134163 Z M 18.135886,4.5035139 h -1.20182 l 0.60091,-0.2221166 0.60091,-0.2221166 0.60091,0.2221166 0.60091,0.2221166 z"
       id="path124" /><path
       style="fill:#ead267"
       d="m 15.491881,16.463043 h -0.240364 v -0.220186 -0.220185 h 0.240364 0.240365 v 0.220185 0.220186 z m -0.961456,-0.440371 h -0.240364 v -0.220185 -0.220185 h 0.240364 0.240364 v 0.220185 0.220185 z m 6.249466,0 h -0.240364 v -0.220185 -0.220185 h 0.240364 0.240364 v 0.220185 0.220185 z m -1.894542,-0.88074 h -0.211992 l -0.343012,-0.508411 -0.343012,-0.508412 0.555005,0.314216 0.555004,0.314215 v 0.194196 0.194196 z m -4.835652,-0.880741 h -0.240364 v -0.220185 -0.220185 h 0.240364 0.240364 v 0.220185 0.220185 z m 1.922913,0 h -0.240364 v -0.220185 -0.220185 h 0.240364 0.240364 v 0.220185 0.220185 z m 1.442184,0 H 17.17443 v -0.220185 -0.220185 h 0.240364 0.240364 v 0.220185 0.220185 z m -3.365097,-0.88074 h -0.240364 v -0.220185 -0.220185 h 0.240364 0.240364 v 0.220185 0.220185 z"
       id="path123" /><path
       style="fill:#fbdb48"
       d="M 23.211903,19.986004 H 22.99991 l -0.343012,-0.508411 -0.343012,-0.508411 0.555005,0.314215 0.555004,0.314216 v 0.194196 0.194195 z m -6.037473,-1.32111 h -0.640971 l 0.320485,-0.29358 0.320486,-0.293581 0.320485,0.293581 0.320486,0.29358 z m 1.682548,0 h -0.240364 v -0.220185 -0.220185 h 0.240364 0.240364 v 0.220185 0.220185 z m 4.269811,-1.761481 h -0.240364 l 0.297106,-0.44037 0.297107,-0.440371 h 0.240364 0.240364 l -0.297107,0.440371 -0.297106,0.44037 z m 2.460383,0 h -0.240364 v -0.220185 -0.220185 h 0.240364 0.240364 v 0.220185 0.220185 z M 11.646057,15.582302 h -0.240364 v -0.220185 -0.220185 h 0.240364 0.240364 v 0.220185 0.220185 z M 9.242416,14.701562 H 9.0020519 V 14.481376 14.261191 H 9.242416 9.48278 v 0.220185 0.220186 z M 10.6846,13.820821 h -0.240364 v -0.220185 -0.220185 h 0.240364 0.240364 v 0.220185 0.220185 z m 14.902572,-0.88074 H 25.346808 V 12.719895 12.49971 h 0.240364 0.240364 v 0.220185 0.220186 z m 0,-2.642222 H 25.346808 V 10.077674 9.8574889 h 0.240364 0.240364 v 0.2201851 0.220185 z M 10.6846,9.4171187 H 10.444236 V 9.1969335 8.9767484 H 10.6846 10.924964 V 9.1969335 9.4171187 Z M 8.7616879,8.9767484 H 8.5213238 V 8.7565633 8.5363782 h 0.2403641 0.240364 V 8.7565633 8.9767484 Z M 24.219494,7.2152675 H 24.053637 L 23.137856,6.2244344 22.222075,5.2336014 23.303713,6.0725012 24.385352,6.911401 V 7.0633342 7.2152675 Z M 10.232243,6.334527 H 10.02025 L 9.6772386,5.8261158 9.3342269,5.3177046 9.8892316,5.63192 10.444236,5.9461354 V 6.1403312 6.334527 Z m 4.77891,-1.3211107 H 14.770789 V 4.7932311 4.573046 h 0.240364 0.240364 V 4.7932311 5.0134163 Z M 16.934066,4.573046 H 16.693702 V 4.3528609 4.1326758 h 0.240364 0.240364 V 4.3528609 4.573046 Z m 2.40364,0 H 19.097342 V 4.3528609 4.1326758 h 0.240364 0.240364 V 4.3528609 4.573046 Z M 13.568969,4.1326758 H 13.328605 V 3.9124906 3.6923055 h 0.240364 0.240364 V 3.9124906 4.1326758 Z M 15.97261,2.811565 H 15.732246 V 2.5913799 2.3711948 h 0.240364 0.240364 V 2.5913799 2.811565 Z"
       id="path122" /><path
       style="fill:#fcda37"
       d="M 21.741347,20.866745 H 21.500983 V 20.64656 20.426375 h 0.240364 0.240364 v 0.220185 0.220185 z m 0.961456,-0.44037 H 22.462439 V 20.20619 19.986004 h 0.240364 0.240364 v 0.220186 0.220185 z m 0.480728,-1.321111 h -0.240364 v -0.220185 -0.220185 h 0.240364 0.240364 v 0.220185 0.220185 z m -6.730193,-0.44037 h -0.240364 v -0.220185 -0.220185 h 0.240364 0.240364 v 0.220185 0.220185 z m -2.403641,-0.880741 h -0.240364 v -0.220185 -0.220185 h 0.240364 0.240364 v 0.220185 0.220185 z m 10.576019,0 h -0.240364 v -0.220185 -0.220185 h 0.240364 0.240364 v 0.220185 0.220185 z m -1.922913,-0.44037 h -0.240364 v -0.220185 -0.220185 h 0.240364 0.240364 v 0.220185 0.220185 z m 1.442185,-1.321111 h -0.240364 v -0.220185 -0.220185 h 0.240364 0.240364 v 0.220185 0.220185 z m 1.442184,-2.642221 h -0.240364 v -0.220185 -0.220185 h 0.240364 0.240364 v 0.220185 0.220185 z M 7.8002316,12.49971 H 7.5598676 V 12.279525 12.05934 h 0.240364 0.2403641 v 0.220185 0.220185 z M 10.283994,11.47218 9.9635082,11.76576 V 11.1786 10.591439 l 0.3204858,0.29358 0.320485,0.293581 z M 25.587172,9.8574889 H 25.346808 V 9.6373038 9.4171187 h 0.240364 0.240364 V 9.6373038 9.8574889 Z M 25.106444,8.5363782 H 24.86608 V 8.3161931 8.0960079 h 0.240364 0.240364 V 8.3161931 8.5363782 Z M 11.165328,8.0960079 H 10.924964 V 7.8758228 7.6556377 h 0.240364 0.240365 V 7.8758228 8.0960079 Z M 9.242416,6.334527 H 9.0020519 V 6.1143419 5.8941567 H 9.242416 9.48278 V 6.1143419 6.334527 Z M 11.165328,5.4537865 H 10.924964 V 5.2336014 5.0134163 h 0.240364 0.240365 v 0.2201851 0.2201851 z m 2.884369,0 H 13.809333 V 5.2336014 5.0134163 h 0.240364 0.240364 V 5.2336014 5.4537865 Z M 11.165328,4.573046 H 10.924964 V 4.3528609 4.1326758 h 0.240364 0.240365 V 4.3528609 4.573046 Z m 1.442185,0 H 12.367149 V 4.3528609 4.1326758 h 0.240364 0.240364 V 4.3528609 4.573046 Z m 3.845825,0 H 16.212974 V 4.3528609 4.1326758 h 0.240364 0.240364 V 4.3528609 4.573046 Z m 3.365097,0 H 19.57807 V 4.3528609 4.1326758 h 0.240365 0.240364 V 4.3528609 4.573046 Z M 15.491881,2.811565 H 15.251517 V 2.5913799 2.3711948 h 0.240364 0.240365 V 2.5913799 2.811565 Z"
       id="path121" /><path
       style="fill:#ddc866"
       d="m 19.337706,17.343783 h -0.240364 v -0.220185 -0.220185 h 0.240364 0.240364 v 0.220185 0.220185 z m 0.480729,-1.321111 H 19.57807 v -0.220185 -0.220185 h 0.240365 0.240364 v 0.220185 0.220185 z"
       id="path120" /><path
       style="fill:#a5a9b9"
       d="M 13.568969,30.995261 H 13.328605 V 30.775075 30.55489 h 0.240364 0.240364 v 0.220185 0.220186 z M 15.97261,30.55489 H 15.732246 V 30.334705 30.11452 h 0.240364 0.240364 v 0.220185 0.220185 z m -2.403641,-1.761481 h -0.240364 v -0.220185 -0.220185 h 0.240364 0.240364 v 0.220185 0.220185 z m -1.442184,-0.44037 h -0.240364 v -0.220185 -0.220185 h 0.240364 0.240364 v 0.220185 0.220185 z m -0.911381,-1.880748 -0.29044,0.266057 0.03795,-0.844043 0.03795,-0.844043 0.252488,0.577986 0.252487,0.577986 z m 0.852518,-0.761473 h -0.181501 v -0.166264 -0.166265 l 0.841274,-0.604383 0.841274,-0.604384 -0.659773,0.770648 -0.659772,0.770648 z m 4.62578,0 h -0.640971 l 0.320485,-0.293581 0.320486,-0.29358 0.320485,0.29358 0.320486,0.293581 z m 1.922912,0 h -0.640971 l 0.320486,-0.293581 0.320485,-0.29358 0.320486,0.29358 0.320485,0.293581 z m 2.163277,0 h -0.240364 v -0.220186 -0.220185 h 0.240364 0.240364 v 0.220185 0.220186 z M 29.432997,12.05934 H 29.192633 V 11.839155 11.61897 h 0.240364 0.240364 v 0.220185 0.220185 z m 0,-1.761481 H 29.192633 V 10.077674 9.8574889 h 0.240364 0.240364 v 0.2201851 0.220185 z M 9.242416,4.573046 H 9.0020519 V 4.3528609 4.1326758 H 9.242416 9.48278 V 4.3528609 4.573046 Z"
       id="path119" /><path
       style="fill:#fdd828"
       d="m 15.97261,18.664894 h -0.240364 v -0.220185 -0.220185 h 0.240364 0.240364 v 0.220185 0.220185 z m 7.691649,0 h -0.240364 v -0.220185 -0.220185 h 0.240364 0.240365 v 0.220185 0.220185 z m -2.40364,-0.44037 h -0.240364 v -0.220186 -0.220185 h 0.240364 0.240364 v 0.220185 0.220186 z m 0.961456,-0.440371 h -0.240364 v -0.220185 -0.220185 h 0.240364 0.240364 v 0.220185 0.220185 z m -9.074971,-0.44037 h -0.181502 l -0.659773,-0.770648 -0.659772,-0.770648 0.841274,0.604384 0.841274,0.604384 v 0.166264 0.166264 z M 9.242416,16.463043 H 9.0020519 V 16.242857 16.022672 H 9.242416 9.48278 v 0.220185 0.220186 z M 8.7616879,15.582302 H 8.5213238 v -0.220185 -0.220185 h 0.2403641 0.240364 v 0.220185 0.220185 z m 15.8640281,0 h -0.240364 v -0.220185 -0.220185 h 0.240364 0.240364 v 0.220185 0.220185 z m -13.460388,-0.44037 h -0.240364 v -0.220185 -0.220185 h 0.240364 0.240365 v 0.220185 0.220185 z m 13.941116,-0.44037 H 24.86608 v -0.220186 -0.220185 h 0.240364 0.240364 v 0.220185 0.220186 z M 10.6846,14.261191 h -0.240364 v -0.220185 -0.220185 h 0.240364 0.240364 v 0.220185 0.220185 z M 8.7616879,12.940081 H 8.5213238 V 12.719895 12.49971 h 0.2403641 0.240364 v 0.220185 0.220186 z M 10.283994,12.35292 9.9635082,12.6465 v -0.58716 -0.58716 l 0.3204858,0.29358 0.320485,0.29358 z m 0,-1.761481 -0.3204858,0.29358 v -0.58716 -0.5871602 l 0.3204858,0.2935802 0.320485,0.29358 z M 25.587172,9.4171187 H 25.346808 V 9.1969335 8.9767484 h 0.240364 0.240364 V 9.1969335 9.4171187 Z M 10.6846,8.9767484 H 10.444236 V 8.7565633 8.5363782 H 10.6846 10.924964 V 8.7565633 8.9767484 Z M 24.625716,7.6556377 H 24.385352 V 7.4354526 7.2152675 h 0.240364 0.240364 V 7.4354526 7.6556377 Z M 12.067922,6.7748972 H 11.886421 V 6.6086331 6.442369 L 12.727695,5.8379852 13.568969,5.2336014 12.909196,6.0042493 12.249424,6.7748972 Z M 10.6846,5.8941567 H 10.444236 V 5.6739716 5.4537865 H 10.6846 10.924964 V 5.6739716 5.8941567 Z M 22.222075,5.4537865 H 21.981711 V 5.2336014 5.0134163 h 0.240364 0.240364 V 5.2336014 5.4537865 Z M 14.530425,5.0134163 H 14.290061 V 4.7932311 4.573046 h 0.240364 0.240364 v 0.2201851 0.2201852 z m 6.730194,0 H 21.020255 V 4.7932311 4.573046 h 0.240364 0.240364 V 4.7932311 5.0134163 Z M 15.97261,4.573046 H 15.732246 V 4.3528609 4.1326758 h 0.240364 0.240364 V 4.3528609 4.573046 Z M 12.607513,3.6923055 H 12.367149 V 3.4721204 3.2519353 h 0.240364 0.240364 v 0.2201851 0.2201851 z m 2.40364,0 H 14.770789 V 3.4721204 3.2519353 h 0.240364 0.240364 V 3.4721204 3.6923055 Z M 13.568969,3.2519353 H 13.328605 V 3.0317502 2.811565 h 0.240364 0.240364 v 0.2201852 0.2201851 z"
       id="path118" /><path
       style="fill:#9aa2b6"
       d="M 18.856978,30.995261 H 18.616614 V 30.775075 30.55489 h 0.240364 0.240364 v 0.220185 0.220186 z m -1.20182,-0.440371 h -0.640971 l 0.320486,-0.29358 0.320485,-0.29358 0.320485,0.29358 0.320486,0.29358 z m -5.019274,-1.32111 h -0.211993 l -0.343012,-0.508412 -0.343012,-0.508411 0.555005,0.314216 0.555005,0.314215 v 0.194196 0.194196 z m 7.663279,-0.880741 h -0.240364 v -0.220185 -0.220185 h 0.240364 0.240364 v 0.220185 0.220185 z m -7.69165,-0.44037 h -0.240364 v -0.220185 -0.220185 h 0.240364 0.240364 v 0.220185 0.220185 z M 8.7616879,17.784153 H 8.5213238 v -0.220185 -0.220185 h 0.2403641 0.240364 v 0.220185 0.220185 z M 27.990813,6.334527 H 27.750448 V 6.1143419 5.8941567 h 0.240365 0.240364 V 6.1143419 6.334527 Z M 20.299163,1.9308246 H 20.058799 V 1.7106394 1.4904543 h 0.240364 0.240364 v 0.2201851 0.2201852 z"
       id="path117" /><path
       style="fill:#cdbb65"
       d="m 15.491881,16.903413 h -0.240364 v -0.220185 -0.220185 h 0.240364 0.240365 v 0.220185 0.220185 z m 4.807282,0 h -0.240364 v -0.220185 -0.220185 h 0.240364 0.240364 v 0.220185 0.220185 z m -5.28801,-3.522962 h -0.240364 v -0.220185 -0.220185 h 0.240364 0.240364 v 0.220185 0.220185 z m 2.644005,0 h -0.640971 l 0.320486,-0.29358 0.320485,-0.29358 0.320485,0.29358 0.320486,0.29358 z"
       id="path116" /><path
       style="fill:#fdd614"
       d="m 17.454855,24.802164 -1.482245,-0.02791 -1.201821,-0.4587 -1.20182,-0.458699 0.961456,-0.363176 0.961456,-0.363176 1.201821,-0.01695 1.20182,-0.01695 0.833802,0.58 0.833802,0.58 -0.313013,0.286735 -0.313013,0.286735 z m 6.794158,-5.360184 -2.624322,2.614958 -1.092055,-0.754584 -1.092055,-0.754585 0.318267,-1.161623 0.318268,-1.161622 h 0.67505 0.675049 l 1.544435,-1.190457 1.544435,-1.190457 0.655726,-1.43762 0.655725,-1.437621 V 11.037682 9.1069952 l -1.081638,-1.4558357 -1.081639,-1.4558356 -1.286192,-0.87263 -1.286192,-0.87263 -2.37179,-0.2087665 -2.371791,-0.2087666 -1.793107,0.7794522 -1.793108,0.7794522 -1.279104,1.7719102 -1.279103,1.7719101 0.02452,2.2987885 0.02452,2.298788 1.27898,1.77042 1.278981,1.77042 0.97996,0.284916 0.97996,0.284916 v 1.220749 1.22075 l -1.22444,0.511056 -1.22444,0.511056 H 12.104169 11.886425 V 20.733314 20.159513 L 10.434497,18.350949 8.9825728,16.542386 9.4573305,16.392621 9.9320881,16.242857 9.16634,13.820821 8.4005919,11.398785 8.1944552,11.191353 7.9883184,10.983921 7.4932554,11.631723 6.9981924,12.279525 7.27903,10.793276 7.5598676,9.3070261 7.5936557,8.5914245 7.6274438,7.8758228 8.0214397,8.7565633 8.4154356,9.6373038 8.9811303,8.3161931 9.546825,6.9950823 10.596441,5.9461562 11.646057,4.89723 l 1.922912,-0.8129759 1.922912,-0.812976 1.802731,-0.00967 1.80273,-0.00967 V 2.811565 2.3711948 l -1.80273,-0.05997 -1.802731,-0.05997 1.083551,-0.1910723 1.08355,-0.1910723 2.606941,0.4957643 2.60694,0.4957643 1.994848,1.3237454 1.994848,1.3237453 0.914115,1.8444025 0.914115,1.8444025 V 11.1786 13.160266 l -0.908727,1.833378 -0.908727,1.833378 z m -2.509051,1.424765 h 0.238979 l 1.924298,-1.592538 1.924297,-1.592539 v -0.664726 -0.664727 l -2.163277,1.920483 -2.163276,1.920484 v 0.336781 0.336782 z m -4.760891,-0.44037 h -1.637542 l 0.251426,-0.880741 0.251427,-0.88074 h 1.677912 1.677913 l -0.291796,0.696572 -0.291797,0.696572 v 0.184168 0.184169 z M 8.7616879,16.022672 H 8.5213238 v -0.220185 -0.220185 h 0.2403641 0.240364 v 0.220185 0.220185 z m -0.4372357,-0.993976 -0.1650796,0.15122 -0.2997525,-0.715564 -0.2997525,-0.715564 0.04132,-0.734632 0.04132,-0.734631 0.4235122,1.298975 0.4235122,1.298975 z M 8.9738445,6.4791722 8.0441897,7.8758228 8.0423897,7.2498731 8.0405897,6.6239233 10.212307,4.7177442 12.384025,2.811565 h 0.583881 0.58388 L 11.72764,3.9470433 9.9034934,5.0825216 Z M 14.490365,2.776799 13.568969,2.7420329 14.199925,2.5107419 14.83088,2.279451 l 0.29044,0.266057 0.29044,0.266057 z"
       id="path115" /><path
       style="fill:#8c98b1"
       d="m 14.049697,31.435631 h -0.240364 v -0.220185 -0.220185 h 0.240364 0.240364 v 0.220185 0.220185 z m 7.210922,-2.201851 h -0.240364 v -0.220186 -0.220185 h 0.240364 0.240364 v 0.220185 0.220186 z M 11.165328,27.912669 h -0.240364 v -0.220185 -0.220185 h 0.240364 0.240365 v 0.220185 0.220185 z m 11.537475,-5.724813 h -0.240364 v -0.220185 -0.220186 h 0.240364 0.240364 v 0.220186 0.220185 z M 6.8387754,8.9767484 H 6.5984113 V 8.7565633 8.5363782 H 6.8387754 7.0791395 V 8.7565633 8.9767484 Z M 14.530425,1.9308246 H 14.290061 V 1.7106394 1.4904543 h 0.240364 0.240364 v 0.2201851 0.2201852 z"
       id="path114" /><path
       style="fill:#f1cd17"
       d="m 14.049697,24.389707 h -0.240364 v -0.220185 -0.220185 h 0.240364 0.240364 v 0.220185 0.220185 z m 4.326553,-0.880741 h -0.240364 v -0.220185 -0.220185 h 0.240364 0.240364 v 0.220185 0.220185 z M 12.126785,21.747485 H 11.886421 V 21.5273 21.307115 h 0.240364 0.240364 v 0.220185 0.220185 z m 3.365096,-1.761481 h -0.240364 v -0.220185 -0.220185 h 0.240364 0.240365 v 0.220185 0.220185 z m -4.326553,-0.44037 h -0.240364 v -0.220185 -0.220185 h 0.240364 0.240365 v 0.220185 0.220185 z M 9.7231441,17.784153 H 9.48278 v -0.220185 -0.220185 h 0.2403641 0.2403641 v 0.220185 0.220185 z m 16.8254839,-0.44037 h -0.240364 v -0.220185 -0.220185 h 0.240364 0.240364 v 0.220185 0.220185 z M 7.3195035,12.49971 H 7.0791395 V 12.279525 12.05934 h 0.240364 0.2403641 v 0.220185 0.220185 z m 0,-2.201851 H 7.0791395 V 10.077674 9.8574889 h 0.240364 0.2403641 v 0.2201851 0.220185 z M 7.8002316,8.0960079 H 7.5598676 V 7.8758228 7.6556377 h 0.240364 0.2403641 V 7.8758228 8.0960079 Z M 24.625716,4.1326758 H 24.385352 V 3.9124906 3.6923055 h 0.240364 0.240364 V 3.9124906 4.1326758 Z M 11.646057,3.6923055 H 11.405693 V 3.4721204 3.2519353 h 0.240364 0.240364 v 0.2201851 0.2201851 z"
       id="path113" /><path
       style="fill:#9198ab"
       d="M 18.37625,29.67415 H 18.135886 V 29.453965 29.23378 h 0.240364 0.240364 v 0.220185 0.220185 z m 0.480728,-1.321111 h -0.240364 v -0.220185 -0.220185 h 0.240364 0.240364 v 0.220185 0.220185 z m -0.961456,-0.44037 h -0.240364 v -0.220185 -0.220185 h 0.240364 0.240364 v 0.220185 0.220185 z m 2.884369,-0.44037 h -0.240364 v -0.220186 -0.220185 h 0.240364 0.240364 v 0.220185 0.220186 z m -8.653106,-0.440371 h -0.240364 v -0.220185 -0.220185 h 0.240364 0.240364 v 0.220185 0.220185 z m 6.730193,0 h -0.240364 v -0.220185 -0.220185 h 0.240364 0.240364 v 0.220185 0.220185 z m -3.365097,-0.44037 h -0.240364 v -0.220185 -0.220185 h 0.240364 0.240365 v 0.220185 0.220185 z m 2.163277,-0.88074 h -0.640971 l 0.320486,-0.293581 0.320485,-0.29358 0.320485,0.29358 0.320486,0.293581 z m 1.682548,0 h -0.240364 v -0.220186 -0.220185 h 0.240364 0.240364 v 0.220185 0.220186 z M 10.203872,19.545634 H 9.9635082 v -0.220185 -0.220185 h 0.2403638 0.240364 v 0.220185 0.220185 z M 13.088241,2.3711948 H 12.847877 V 2.1510097 1.9308246 h 0.240364 0.240364 v 0.2201851 0.2201851 z"
       id="path112" /><path
       style="fill:#8b94aa"
       d="m 19.097342,30.11452 h -0.64097 l 0.320485,-0.29358 0.320485,-0.29358 0.320486,0.29358 0.320485,0.29358 z M 14.049697,29.67415 H 13.809333 V 29.453965 29.23378 h 0.240364 0.240364 v 0.220185 0.220185 z m 0,-1.321111 h -0.240364 v -0.220185 -0.220185 h 0.240364 0.240364 v 0.220185 0.220185 z m 2.403641,-0.44037 h -0.240364 v -0.220185 -0.220185 h 0.240364 0.240364 v 0.220185 0.220185 z m 5.288009,0 h -0.240364 v -0.220185 -0.220185 h 0.240364 0.240364 v 0.220185 0.220185 z m -0.480728,-0.880741 h -0.240364 v -0.220185 -0.220185 h 0.240364 0.240364 v 0.220185 0.220185 z m -3.365097,-0.44037 h -0.240364 v -0.220185 -0.220185 h 0.240364 0.240364 v 0.220185 0.220185 z m 4.326553,-3.082592 h -0.240364 v -0.220185 -0.220185 h 0.240364 0.240364 v 0.220185 0.220185 z m 5.768738,-7.045923 h -0.240365 v -0.220186 -0.220185 h 0.240365 0.240364 v 0.220185 0.220186 z M 6.8387754,13.820821 H 6.5984113 v -0.220185 -0.220185 h 0.2403641 0.2403641 v 0.220185 0.220185 z M 29.432997,11.61897 H 29.192633 V 11.398785 11.1786 h 0.240364 0.240364 v 0.220185 0.220185 z m 0,-0.880741 h -0.240364 v -0.220185 -0.220185 h 0.240364 0.240364 v 0.220185 0.220185 z"
       id="path111" /><path
       style="fill:#b8ab63"
       d="m 15.541957,18.105257 -0.29044,0.266057 0.03795,-0.844043 0.03795,-0.844043 0.252488,0.577986 0.252487,0.577986 z m -1.011532,-2.522955 h -0.240364 v -0.220185 -0.220185 h 0.240364 0.240364 v 0.220185 0.220185 z m 5.768738,-0.44037 h -0.240364 v -0.220185 -0.220185 h 0.240364 0.240364 v 0.220185 0.220185 z m -5.28801,-0.44037 h -0.240364 v -0.220186 -0.220185 h 0.240364 0.240364 v 0.220185 0.220186 z m 6.249466,-0.880741 h -0.240364 v -0.220185 -0.220185 h 0.240364 0.240364 v 0.220185 0.220185 z"
       id="path110" /><path
       style="fill:#e7c619"
       d="m 15.491881,24.830077 h -0.240364 v -0.220185 -0.220185 h 0.240364 0.240365 v 0.220185 0.220185 z m 3.845825,0 h -0.240364 v -0.220185 -0.220185 h 0.240364 0.240364 v 0.220185 0.220185 z m -2.924429,-1.796247 -0.921396,-0.03477 0.630956,-0.231291 0.630956,-0.231291 0.29044,0.266057 0.29044,0.266057 z m -4.76722,-2.607455 H 11.405693 V 20.20619 19.986004 h 0.240364 0.240364 v 0.220186 0.220185 z m 7.210921,-0.440371 h -0.240364 v -0.220185 -0.220185 h 0.240364 0.240364 v 0.220185 0.220185 z m 0.961457,-0.88074 H 19.57807 v -0.220185 -0.220185 h 0.240365 0.240364 v 0.220185 0.220185 z M 8.2809597,15.582302 h -0.240364 v -0.220185 -0.220185 h 0.240364 0.2403641 v 0.220185 0.220185 z M 28.471541,8.9767484 H 28.231177 V 8.7565633 8.5363782 h 0.240364 0.240364 V 8.7565633 8.9767484 Z M 27.990813,7.6556377 H 27.750448 V 7.4354526 7.2152675 h 0.240365 0.240364 V 7.4354526 7.6556377 Z M 15.491881,2.3711948 H 15.251517 V 2.1510097 1.9308246 h 0.240364 0.240365 v 0.2201851 0.2201851 z"
       id="path109" /><path
       style="fill:#d7ba1d"
       d="m 19.337706,23.949337 h -0.240364 v -0.220185 -0.220186 h 0.240364 0.240364 v 0.220186 0.220185 z m -3.845825,-0.880741 h -0.240364 v -0.220185 -0.220185 h 0.240364 0.240365 v 0.220185 0.220185 z m 6.730194,-1.321111 H 21.981711 V 21.5273 21.307115 h 0.240364 0.240364 v 0.220185 0.220185 z m -6.730194,-2.201851 h -0.240364 v -0.220185 -0.220185 h 0.240364 0.240365 v 0.220185 0.220185 z M 10.6846,19.105264 h -0.240364 v -0.220185 -0.220185 h 0.240364 0.240364 v 0.220185 0.220185 z M 8.7616879,16.463043 H 8.5213238 v -0.220186 -0.220185 h 0.2403641 0.240364 v 0.220185 0.220186 z M 27.510084,16.022672 H 27.26972 v -0.220185 -0.220185 h 0.240364 0.240364 v 0.220185 0.220185 z m 0.480729,-0.88074 h -0.240365 v -0.220185 -0.220185 h 0.240365 0.240364 v 0.220185 0.220185 z m 0.480728,-1.321111 h -0.240364 v -0.220185 -0.220185 h 0.240364 0.240364 v 0.220185 0.220185 z M 7.3195035,12.940081 H 7.0791395 V 12.719895 12.49971 h 0.240364 0.2403641 v 0.220185 0.220186 z m 0,-3.0825921 H 7.0791395 V 9.6373038 9.4171187 h 0.240364 0.2403641 V 9.6373038 9.8574889 Z M 27.510084,6.7748972 H 27.26972 V 6.5547121 6.334527 h 0.240364 0.240364 V 6.5547121 6.7748972 Z M 19.337706,2.3711948 H 19.097342 V 2.1510097 1.9308246 h 0.240364 0.240364 v 0.2201851 0.2201851 z"
       id="path108" /><path
       style="fill:#7c88a4"
       d="m 15.011153,31.876001 h -0.240364 v -0.220185 -0.220185 h 0.240364 0.240364 v 0.220185 0.220185 z m 6.730194,-4.403702 h -0.240364 v -0.220186 -0.220185 h 0.240364 0.240364 v 0.220185 0.220186 z M 11.165328,27.031928 h -0.240364 v -0.220185 -0.220185 h 0.240364 0.240365 v 0.220185 0.220185 z m 2.403641,0 h -0.240364 v -0.220185 -0.220185 h 0.240364 0.240364 v 0.220185 0.220185 z m 0.961456,-1.761481 h -0.240364 v -0.220185 -0.220185 h 0.240364 0.240364 v 0.220185 0.220185 z M 7.3195035,15.141932 h -0.240364 v -0.220185 -0.220185 h 0.240364 0.2403641 v 0.220185 0.220185 z M 29.432997,11.1786 h -0.240364 v -0.220185 -0.220186 h 0.240364 0.240364 V 10.958415 11.1786 Z M 22.222075,2.3711948 H 21.981711 V 2.1510097 1.9308246 h 0.240364 0.240364 v 0.2201851 0.2201851 z"
       id="path107" /><path
       style="fill:#ccb120"
       d="M 19.818435,24.389707 H 19.57807 v -0.220185 -0.220185 h 0.240365 0.240364 v 0.220185 0.220185 z m -6.249466,-0.44037 h -0.240364 v -0.220185 -0.220186 h 0.240364 0.240364 v 0.220186 0.220185 z m 3.845825,-0.880741 H 17.17443 v -0.220185 -0.220185 h 0.240364 0.240364 v 0.220185 0.220185 z m 4.326553,-0.44037 h -0.240364 v -0.220185 -0.220185 h 0.240364 0.240364 v 0.220185 0.220185 z M 20.779891,21.747485 H 20.539527 V 21.5273 21.307115 h 0.240364 0.240364 V 21.5273 21.747485 Z M 9.6664018,5.0134163 H 9.4260378 L 9.7231441,4.573046 10.02025,4.1326758 h 0.240364 0.240365 L 10.203872,4.573046 9.9067659,5.0134163 Z M 21.741347,2.811565 H 21.500983 V 2.5913799 2.3711948 h 0.240364 0.240364 V 2.5913799 2.811565 Z"
       id="path106" /><path
       style="fill:#79839c"
       d="M 15.491881,30.55489 H 15.251517 V 30.334705 30.11452 h 0.240364 0.240365 v 0.220185 0.220185 z m 1.201821,0 h -0.640971 l 0.320485,-0.29358 0.320486,-0.29358 0.320485,0.29358 0.320486,0.29358 z m 0.721092,-2.655708 h -0.480728 l -0.721092,-0.426883 -0.721093,-0.426884 h 0.480729 0.480728 l 0.721092,0.426884 0.721092,0.426883 z m -5.688616,-0.573673 -0.320485,0.29358 v -0.587161 -0.58716 l 0.320485,0.29358 0.320485,0.29358 z m 7.611528,0.14679 h -0.240364 v -0.220186 -0.220185 h 0.240364 0.240364 v 0.220185 0.220186 z m -2.644004,-0.880741 h -0.961456 v -0.44037 -0.44037 h 0.961456 0.961456 v 0.44037 0.44037 z m -3.124733,-0.44037 h -0.240364 v -0.220185 -0.220185 h 0.240364 0.240364 v 0.220185 0.220185 z m 13.460387,-8.367035 h -0.240364 v -0.220185 -0.220185 h 0.240364 0.240364 v 0.220185 0.220185 z m 1.442185,-2.201851 h -0.240364 v -0.220185 -0.220185 h 0.240364 0.240364 v 0.220185 0.220185 z M 11.165328,3.2519353 H 10.924964 V 3.0317502 2.811565 h 0.240364 0.240365 v 0.2201852 0.2201851 z"
       id="path105" /><path
       style="fill:#c5ad21"
       d="m 14.049697,23.508966 h -0.240364 v -0.220185 -0.220185 h 0.240364 0.240364 v 0.220185 0.220185 z m 4.807281,-3.082591 H 18.616614 V 20.20619 19.986004 h 0.240364 0.240364 v 0.220186 0.220185 z m -3.365097,-1.321111 h -0.240364 v -0.220185 -0.220185 h 0.240364 0.240365 v 0.220185 0.220185 z m 4.326554,-0.44037 H 19.57807 v -0.220185 -0.220185 h 0.240365 0.240364 v 0.220185 0.220185 z M 10.6846,4.1326758 H 10.444236 V 3.9124906 3.6923055 H 10.6846 10.924964 V 3.9124906 4.1326758 Z M 23.183531,3.2519353 H 22.943167 V 3.0317502 2.811565 h 0.240364 0.240364 V 3.0317502 3.2519353 Z M 13.568969,2.811565 H 13.328605 V 2.5913799 2.3711948 h 0.240364 0.240364 V 2.5913799 2.811565 Z"
       id="path104" /><path
       style="fill:#989260"
       d="m 19.846806,18.224524 h -0.211993 l -0.343012,-0.508412 -0.343012,-0.508411 0.555005,0.314216 0.555005,0.314215 v 0.194196 0.194196 z m 0.933085,-2.642222 h -0.240364 v -0.220185 -0.220185 h 0.240364 0.240364 v 0.220185 0.220185 z m 0.480728,-0.88074 h -0.240364 v -0.220186 -0.220185 h 0.240364 0.240364 v 0.220185 0.220186 z m -7.210922,-0.880741 h -0.240364 v -0.220185 -0.220185 h 0.240364 0.240364 v 0.220185 0.220185 z m 6.730194,0 h -0.240364 v -0.220185 -0.220185 h 0.240364 0.240364 v 0.220185 0.220185 z"
       id="path103" /><path
       style="fill:#717c9a"
       d="M 17.414794,31.876001 H 17.17443 v -0.220185 -0.220185 h 0.240364 0.240364 v 0.220185 0.220185 z m -6.249466,-4.403702 h -0.240364 v -0.220186 -0.220185 h 0.240364 0.240365 v 0.220185 0.220186 z m 4.326553,0 h -0.240364 v -0.220186 -0.220185 h 0.240364 0.240365 v 0.220185 0.220186 z m 6.249466,-0.440371 h -0.240364 v -0.220185 -0.220185 h 0.240364 0.240364 v 0.220185 0.220185 z m -8.172378,-1.32111 h -0.240364 v -0.220186 -0.220185 h 0.240364 0.240364 v 0.220185 0.220186 z M 28.471541,7.2152675 H 28.231177 V 6.9950823 6.7748972 h 0.240364 0.240364 V 6.9950823 7.2152675 Z M 25.106444,3.6923055 H 24.86608 V 3.4721204 3.2519353 h 0.240364 0.240364 v 0.2201851 0.2201851 z"
       id="path102" /><path
       style="fill:#baa424"
       d="m 17.895522,23.068596 h -0.240364 v -0.220185 -0.220185 h 0.240364 0.240364 v 0.220185 0.220185 z M 14.049697,20.866745 H 13.809333 V 20.64656 20.426375 h 0.240364 0.240364 v 0.220185 0.220185 z m 1.442184,-2.201851 h -0.240364 v -0.220185 -0.220185 h 0.240364 0.240365 v 0.220185 0.220185 z M 9.242416,17.343783 H 9.0020519 V 17.123598 16.903413 H 9.242416 9.48278 v 0.220185 0.220185 z M 7.8002316,14.701562 h -0.240364 v -0.220186 -0.220185 h 0.240364 0.2403641 v 0.220185 0.220186 z M 19.818435,2.3711948 H 19.57807 V 2.1510097 1.9308246 h 0.240365 0.240364 v 0.2201851 0.2201851 z"
       id="path101" /><path
       style="fill:#8b885e"
       d="M 19.818435,16.463043 H 19.57807 v -0.220186 -0.220185 h 0.240365 0.240364 v 0.220185 0.220186 z m -5.047646,-1.321111 h -0.64097 l 0.320485,-0.29358 0.320485,-0.293581 0.320486,0.293581 0.320485,0.29358 z m 4.807281,0 H 18.9371 l 0.320485,-0.29358 0.320485,-0.293581 0.320486,0.293581 0.320485,0.29358 z m -3.124732,-0.44037 h -0.240364 v -0.220186 -0.220185 h 0.240364 0.240364 v 0.220185 0.220186 z"
       id="path100" /><path
       style="fill:#687492"
       d="M 18.37625,30.55489 H 18.135886 V 30.334705 30.11452 h 0.240364 0.240364 v 0.220185 0.220185 z m 1.442185,-1.32111 H 19.57807 v -0.220186 -0.220185 h 0.240365 0.240364 v 0.220185 0.220186 z m -0.961457,-0.440371 h -0.240364 v -0.220185 -0.220185 h 0.240364 0.240364 v 0.220185 0.220185 z m -5.288009,-1.32111 h -0.240364 v -0.220186 -0.220185 h 0.240364 0.240364 v 0.220185 0.220186 z m 3.365097,0 h -0.240364 v -0.220186 -0.220185 h 0.240364 0.240364 v 0.220185 0.220186 z m -5.288009,-1.321111 h -0.240364 v -0.220185 -0.220185 h 0.240364 0.240364 v 0.220185 0.220185 z m 3.845824,0 h -0.240364 v -0.220185 -0.220185 h 0.240364 0.240365 v 0.220185 0.220185 z m 2.403641,0 h -0.240364 v -0.220185 -0.220185 h 0.240364 0.240364 v 0.220185 0.220185 z M 28.952269,14.261191 h -0.240364 v -0.220185 -0.220185 h 0.240364 0.240364 v 0.220185 0.220185 z"
       id="path99" /><path
       style="fill:#a89728"
       d="m 15.011153,24.830077 h -0.240364 v -0.220185 -0.220185 h 0.240364 0.240364 v 0.220185 0.220185 z m 0,-1.321111 h -0.240364 v -0.220185 -0.220185 h 0.240364 0.240364 v 0.220185 0.220185 z m 3.365097,-0.44037 h -0.240364 v -0.220185 -0.220185 h 0.240364 0.240364 v 0.220185 0.220185 z m 2.884369,-0.88074 h -0.240364 v -0.220185 -0.220186 h 0.240364 0.240364 v 0.220186 0.220185 z M 19.818435,21.307115 H 19.57807 V 21.08693 20.866745 h 0.240365 0.240364 v 0.220185 0.220185 z m 7.210921,-4.403702 h -0.240364 v -0.220185 -0.220185 h 0.240364 0.240364 v 0.220185 0.220185 z M 7.3195035,9.4171187 H 7.0791395 V 9.1969335 8.9767484 h 0.240364 0.2403641 V 9.1969335 9.4171187 Z M 7.8002316,7.6556377 H 7.5598676 V 7.4354526 7.2152675 h 0.240364 0.2403641 V 7.4354526 7.6556377 Z M 8.2809597,6.7748972 H 8.0405957 V 6.5547121 6.334527 h 0.240364 0.2403641 V 6.5547121 6.7748972 Z M 9.242416,5.4537865 H 9.0020519 V 5.2336014 5.0134163 H 9.242416 9.48278 V 5.2336014 5.4537865 Z M 24.144988,3.6923055 H 23.904624 V 3.4721204 3.2519353 h 0.240364 0.240364 V 3.4721204 3.6923055 Z M 15.011153,2.3711948 H 14.770789 V 2.1510097 1.9308246 h 0.240364 0.240364 v 0.2201851 0.2201851 z"
       id="path98" /><path
       style="fill:#64718c"
       d="M 20.299163,30.11452 H 20.058799 V 29.894335 29.67415 h 0.240364 0.240364 v 0.220185 0.220185 z m 0.961456,-2.201851 h -0.240364 v -0.220185 -0.220185 h 0.240364 0.240364 v 0.220185 0.220185 z m -0.961456,-1.321111 h -0.240364 v -0.220185 -0.220185 h 0.240364 0.240364 v 0.220185 0.220185 z m -0.961457,-0.44037 h -0.240364 v -0.220185 -0.220185 h 0.240364 0.240364 v 0.220185 0.220185 z m -6.730193,-1.761481 h -0.240364 v -0.220185 -0.220185 h 0.240364 0.240364 v 0.220185 0.220185 z M 11.165328,20.866745 H 10.924964 V 20.64656 20.426375 h 0.240364 0.240365 v 0.220185 0.220185 z M 8.2809597,16.903413 h -0.240364 v -0.220185 -0.220185 h 0.240364 0.2403641 v 0.220185 0.220185 z M 7.8002316,16.022672 h -0.240364 v -0.220185 -0.220185 h 0.240364 0.2403641 v 0.220185 0.220185 z M 6.8387754,9.4171187 H 6.5984113 V 9.1969335 8.9767484 H 6.8387754 7.0791395 V 9.1969335 9.4171187 Z M 12.126785,2.811565 H 11.886421 V 2.5913799 2.3711948 h 0.240364 0.240364 V 2.5913799 2.811565 Z m 7.69165,-0.8807404 H 19.57807 V 1.7106394 1.4904543 h 0.240365 0.240364 v 0.2201851 0.2201852 z"
       id="path97" /><path
       style="fill:#978b2d"
       d="m 20.395971,24.316108 -0.624285,0.474614 -0.116957,-1.590858 -0.116957,-1.590858 0.741241,0.563531 0.741242,0.563531 v 0.552713 0.552714 z m -7.023907,-0.807142 h -0.467445 l -0.342178,-0.507176 -0.342179,-0.507176 0.909171,-0.608991 0.909172,-0.608991 0.171075,0.470139 0.171075,0.47014 -0.270623,0.646027 -0.270624,0.646028 z m 3.562002,-0.88074 H 15.251517 V 21.99366 21.359094 l 0.363285,-0.205674 0.363285,-0.205673 1.319264,0.231021 1.319263,0.231021 v 0.609219 0.609218 z m 1.682548,-1.761481 h -0.640971 l 0.320486,-0.29358 0.320485,-0.29358 0.320486,0.29358 0.320485,0.29358 z m 5.952359,-1.321111 h -0.240364 l 0.297107,-0.44037 0.297106,-0.44037 h 0.240364 0.240364 l -0.297106,0.44037 -0.297106,0.44037 z M 10.203872,18.664894 H 9.9635082 v -0.220185 -0.220185 h 0.2403638 0.240364 v 0.220185 0.220185 z m 18.267669,-4.403703 h -0.240364 v -0.220185 -0.220185 h 0.240364 0.240364 v 0.220185 0.220185 z M 7.3195035,13.380451 h -0.240364 v -0.220185 -0.220185 h 0.240364 0.2403641 v 0.220185 0.220185 z M 28.471541,8.5363782 H 28.231177 V 8.3161931 8.0960079 h 0.240364 0.240364 V 8.3161931 8.5363782 Z M 26.0679,5.0134163 H 25.827536 V 4.7932311 4.573046 H 26.0679 26.308264 V 4.7932311 5.0134163 Z M 12.126785,3.2519353 H 11.886421 V 3.0317502 2.811565 h 0.240364 0.240364 v 0.2201852 0.2201851 z"
       id="path96" /><path
       style="fill:#596789"
       d="m 15.491881,31.876001 h -0.240364 v -0.220185 -0.220185 h 0.240364 0.240365 v 0.220185 0.220185 z M 18.37625,30.11452 H 18.135886 V 29.894335 29.67415 h 0.240364 0.240364 v 0.220185 0.220185 z m -4.326553,-1.321111 h -0.240364 v -0.220185 -0.220185 h 0.240364 0.240364 v 0.220185 0.220185 z m -1.922912,-2.201851 h -0.240364 v -0.220185 -0.220185 h 0.240364 0.240364 v 0.220185 0.220185 z m -0.480728,-0.88074 h -0.240364 v -0.220186 -0.220185 h 0.240364 0.240364 v 0.220185 0.220186 z M 28.952269,8.5363782 H 28.711905 V 8.3161931 8.0960079 h 0.240364 0.240364 v 0.2201852 0.2201851 z"
       id="path95" /><path
       style="fill:#827e41"
       d="M 22.702803,21.307115 H 22.462439 V 21.08693 20.866745 h 0.240364 0.240364 v 0.220185 0.220185 z M 11.646057,20.866745 H 11.405693 V 20.64656 20.426375 h 0.240364 0.240364 v 0.220185 0.220185 z M 29.03239,11.91255 28.711905,12.20613 v -0.58716 -0.58716 l 0.320485,0.29358 0.320486,0.29358 z M 22.222075,2.811565 H 21.981711 V 2.5913799 2.3711948 h 0.240364 0.240364 V 2.5913799 2.811565 Z"
       id="path94" /><path
       style="fill:#8a8231"
       d="m 13.116612,23.949337 h -0.211993 l -0.343012,-0.508412 -0.343011,-0.508411 0.555004,0.314216 0.555005,0.314215 v 0.194196 0.194196 z m 8.224128,-0.14679 -0.320485,0.29358 v -0.587161 -0.58716 l 0.320485,0.29358 0.320486,0.29358 z M 13.088241,21.307115 H 12.847877 V 21.08693 20.866745 h 0.240364 0.240364 v 0.220185 0.220185 z m 2.40364,0 H 15.251517 V 21.08693 20.866745 h 0.240364 0.240365 v 0.220185 0.220185 z m 8.653107,-1.321111 h -0.240364 v -0.220185 -0.220185 h 0.240364 0.240364 v 0.220185 0.220185 z M 28.952269,11.1786 h -0.240364 v -0.220185 -0.220186 h 0.240364 0.240364 V 10.958415 11.1786 Z M 26.548628,5.4537865 H 26.308264 V 5.2336014 5.0134163 h 0.240364 0.240364 v 0.2201851 0.2201851 z"
       id="path93" /><path
       style="fill:#5a677c"
       d="M 6.8387754,13.380451 H 6.5984113 v -0.220185 -0.220185 h 0.2403641 0.2403641 v 0.220185 0.220185 z M 7.3195035,7.6556377 H 7.0791395 V 7.4354526 7.2152675 h 0.240364 0.2403641 V 7.4354526 7.6556377 Z M 8.2809597,5.8941567 H 8.0405957 V 5.6739716 5.4537865 h 0.240364 0.2403641 v 0.2201851 0.2201851 z"
       id="path92" /><path
       style="fill:#837c33"
       d="m 20.779891,24.389707 h -0.240364 v -0.220185 -0.220185 h 0.240364 0.240364 v 0.220185 0.220185 z m -1.442185,-0.880741 h -0.240364 v -0.220185 -0.220185 h 0.240364 0.240364 v 0.220185 0.220185 z m -2.40364,-2.201851 H 16.693702 V 21.08693 20.866745 h 0.240364 0.240364 v 0.220185 0.220185 z m 8.653106,-2.642221 h -0.240364 v -0.220185 -0.220185 h 0.240364 0.240364 v 0.220185 0.220185 z M 20.299163,2.3711948 H 20.058799 V 2.1510097 1.9308246 h 0.240364 0.240364 v 0.2201851 0.2201851 z"
       id="path91" /><path
       style="fill:#6f7050"
       d="m 22.222075,22.187856 h -0.240364 v -0.220185 -0.220186 h 0.240364 0.240364 v 0.220186 0.220185 z m -1.922912,-5.724813 h -0.240364 v -0.220186 -0.220185 h 0.240364 0.240364 v 0.220185 0.220186 z M 8.2809597,16.022672 h -0.240364 v -0.220185 -0.220185 h 0.240364 0.2403641 v 0.220185 0.220185 z m 8.1156353,-1.761481 h -0.240364 l 0.297107,-0.44037 0.297106,-0.44037 h 0.240364 0.240364 l -0.297106,0.44037 -0.297106,0.44037 z M 8.7616879,5.8941567 H 8.5213238 V 5.6739716 5.4537865 h 0.2403641 0.240364 V 5.6739716 5.8941567 Z M 11.165328,3.6923055 H 10.924964 V 3.4721204 3.2519353 h 0.240364 0.240365 v 0.2201851 0.2201851 z"
       id="path90" /><path
       style="fill:#4b5b81"
       d="m 18.37625,31.435631 h -0.240364 v -0.220185 -0.220185 h 0.240364 0.240364 v 0.220185 0.220185 z M 15.011153,30.55489 H 14.770789 V 30.334705 30.11452 h 0.240364 0.240364 v 0.220185 0.220185 z m 4.326553,0 H 19.097342 V 30.334705 30.11452 h 0.240364 0.240364 v 0.220185 0.220185 z m 1.442185,-0.88074 H 20.539527 V 29.453965 29.23378 h 0.240364 0.240364 v 0.220185 0.220185 z m -9.133834,-0.880741 h -0.240364 v -0.220185 -0.220185 h 0.240364 0.240364 v 0.220185 0.220185 z m 0.961456,-0.44037 h -0.240364 v -0.220185 -0.220185 h 0.240364 0.240364 v 0.220185 0.220185 z m 0.961456,0 h -0.240364 v -0.220185 -0.220185 h 0.240364 0.240364 v 0.220185 0.220185 z m 5.768737,0 h -0.240364 v -0.220185 -0.220185 h 0.240364 0.240364 v 0.220185 0.220185 z m 0.961457,-0.44037 h -0.240364 v -0.220185 -0.220185 h 0.240364 0.240364 v 0.220185 0.220185 z m -2.884369,-0.44037 H 17.17443 v -0.220186 -0.220185 h 0.240364 0.240364 v 0.220185 0.220186 z m 2.884369,-0.440371 h -0.240364 v -0.220185 -0.220185 h 0.240364 0.240364 v 0.220185 0.220185 z m 1.173449,-0.44037 h -0.509099 l 0.297106,-0.44037 0.297106,-0.44037 h 0.211993 0.211993 v 0.44037 0.44037 z m -0.211993,-1.321111 h -0.240364 v -0.220185 -0.220185 h 0.240364 0.240364 v 0.220185 0.220185 z M 24.144988,3.2519353 H 23.904624 V 3.0317502 2.811565 h 0.240364 0.240364 V 3.0317502 3.2519353 Z M 15.011153,1.9308246 H 14.770789 V 1.7106394 1.4904543 h 0.240364 0.240364 v 0.2201851 0.2201852 z"
       id="path89" /><path
       style="fill:#787337"
       d="m 19.337706,23.068596 h -0.240364 v -0.220185 -0.220185 h 0.240364 0.240364 v 0.220185 0.220185 z m 1.442185,-0.44037 h -0.240364 v -0.220185 -0.220185 h 0.240364 0.240364 v 0.220185 0.220185 z M 17.414794,21.307115 H 17.17443 V 21.08693 20.866745 h 0.240364 0.240364 v 0.220185 0.220185 z m -2.884369,-0.44037 H 14.290061 V 20.64656 20.426375 h 0.240364 0.240364 v 0.220185 0.220185 z m 9.133834,-0.44037 H 23.423895 V 20.20619 19.986004 h 0.240364 0.240365 v 0.220186 0.220185 z m 5.28801,-9.688146 h -0.240364 v -0.220185 -0.220185 h 0.240364 0.240364 v 0.220185 0.220185 z M 7.3195035,8.9767484 H 7.0791395 V 8.7565633 8.5363782 h 0.240364 0.2403641 V 8.7565633 8.9767484 Z M 25.587172,4.573046 H 25.346808 V 4.3528609 4.1326758 h 0.240364 0.240364 V 4.3528609 4.573046 Z"
       id="path88" /><path
       style="fill:#5c6152"
       d="M 19.280964,18.224524 H 19.0406 l 0.297106,-0.440371 0.297107,-0.44037 h 0.240364 0.240364 l -0.297106,0.44037 -0.297107,0.440371 z m -4.029447,-3.963333 h -0.64097 l 0.320485,-0.29358 0.320485,-0.29358 0.320486,0.29358 0.320485,0.29358 z m 3.365097,0 h -0.640971 l 0.320486,-0.29358 0.320485,-0.29358 0.320486,0.29358 0.320485,0.29358 z m 1.682549,0 h -0.240364 v -0.220185 -0.220185 h 0.240364 0.240364 v 0.220185 0.220185 z M 28.952269,12.49971 H 28.711905 V 12.279525 12.05934 h 0.240364 0.240364 v 0.220185 0.220185 z m 0,-2.201851 H 28.711905 V 10.077674 9.8574889 h 0.240364 0.240364 v 0.2201851 0.220185 z"
       id="path87" /><path
       style="fill:#445475"
       d="m 16.413277,31.841235 -0.921396,-0.03477 0.630956,-0.231291 0.630956,-0.231291 0.29044,0.266057 0.29044,0.266057 z M 18.856978,29.67415 H 18.616614 V 29.453965 29.23378 h 0.240364 0.240364 v 0.220185 0.220185 z m -3.845825,-2.201851 h -0.240364 v -0.220186 -0.220185 h 0.240364 0.240364 v 0.220185 0.220186 z m 4.326553,-0.440371 h -0.240364 v -0.220185 -0.220185 h 0.240364 0.240364 v 0.220185 0.220185 z m -0.961456,-0.88074 h -0.240364 v -0.220185 -0.220185 h 0.240364 0.240364 v 0.220185 0.220185 z m -6.249465,-0.880741 h -0.240364 v -0.220185 -0.220185 h 0.240364 0.240364 v 0.220185 0.220185 z m 2.884368,0 h -0.240364 v -0.220185 -0.220185 h 0.240364 0.240364 v 0.220185 0.220185 z m 7.210922,-2.201851 h -0.240364 v -0.220185 -0.220185 h 0.240364 0.240364 v 0.220185 0.220185 z M 10.6846,19.986004 h -0.240364 v -0.220185 -0.220185 h 0.240364 0.240364 v 0.220185 0.220185 z M 9.242416,18.224524 H 9.0020519 V 18.004338 17.784153 H 9.242416 9.48278 v 0.220185 0.220186 z m 17.306212,0 h -0.240364 v -0.220186 -0.220185 h 0.240364 0.240364 v 0.220185 0.220186 z M 27.510084,5.8941567 H 27.26972 V 5.6739716 5.4537865 h 0.240364 0.240364 V 5.6739716 5.8941567 Z M 25.587172,4.1326758 H 25.346808 V 3.9124906 3.6923055 h 0.240364 0.240364 V 3.9124906 4.1326758 Z M 23.183531,2.811565 H 22.943167 V 2.5913799 2.3711948 h 0.240364 0.240364 V 2.5913799 2.811565 Z"
       id="path86" /><path
       style="fill:#686839"
       d="m 13.568969,24.389707 h -0.240364 v -0.220185 -0.220185 h 0.240364 0.240364 v 0.220185 0.220185 z m 0.904714,-0.880741 h -0.240364 l 0.297106,-0.44037 0.297107,-0.44037 h 0.240364 0.240364 l -0.297107,0.44037 -0.297106,0.44037 z m 4.864023,-0.88074 h -0.240364 v -0.220185 -0.220185 h 0.240364 0.240364 v 0.220185 0.220185 z m 0.961457,-0.44037 h -0.240364 v -0.220185 -0.220186 h 0.240364 0.240364 v 0.220186 0.220185 z M 13.568969,21.747485 H 13.328605 V 21.5273 21.307115 h 0.240364 0.240364 v 0.220185 0.220185 z m 0.961456,0 H 14.290061 V 21.5273 21.307115 h 0.240364 0.240364 v 0.220185 0.220185 z m 8.653106,-0.88074 H 22.943167 V 20.64656 20.426375 h 0.240364 0.240364 v 0.220185 0.220185 z M 11.165328,19.986004 h -0.240364 v -0.220185 -0.220185 h 0.240364 0.240365 v 0.220185 0.220185 z M 26.0679,18.224524 h -0.240364 v -0.220186 -0.220185 h 0.240364 0.240364 v 0.220185 0.220186 z M 27.029356,5.8941567 H 26.788992 V 5.6739716 5.4537865 h 0.240364 0.240364 V 5.6739716 5.8941567 Z M 13.088241,2.811565 H 12.847877 V 2.5913799 2.3711948 h 0.240364 0.240364 V 2.5913799 2.811565 Z"
       id="path85" /><path
       style="fill:#565b48"
       d="M 17.414794,25.270447 H 17.17443 v -0.220185 -0.220185 h 0.240364 0.240364 v 0.220185 0.220185 z m -2.884369,-0.44037 h -0.240364 v -0.220185 -0.220185 h 0.240364 0.240364 v 0.220185 0.220185 z m 0.480728,-6.605553 h -0.240364 v -0.220186 -0.220185 h 0.240364 0.240364 v 0.220185 0.220186 z m 12.97966,-2.642222 h -0.240365 v -0.220185 -0.220185 h 0.240365 0.240364 v 0.220185 0.220185 z M 7.3195035,13.820821 h -0.240364 v -0.220185 -0.220185 h 0.240364 0.2403641 v 0.220185 0.220185 z M 27.990813,7.2152675 H 27.750448 V 6.9950823 6.7748972 h 0.240365 0.240364 V 6.9950823 7.2152675 Z M 14.530425,2.3711948 H 14.290061 V 2.1510097 1.9308246 h 0.240364 0.240364 v 0.2201851 0.2201851 z m 6.249466,0 H 20.539527 V 2.1510097 1.9308246 h 0.240364 0.240364 v 0.2201851 0.2201851 z"
       id="path84" /><path
       style="fill:#374a74"
       d="m 13.031499,30.11452 h -0.240364 l 0.297106,-0.44037 0.297106,-0.44037 h 0.240364 0.240364 l -0.297106,0.44037 -0.297106,0.44037 z m 1.498926,0 H 14.290061 V 29.894335 29.67415 h 0.240364 0.240364 v 0.220185 0.220185 z m 2.163277,0 h -0.640971 l 0.320485,-0.29358 0.320486,-0.29358 0.320485,0.29358 0.320486,0.29358 z m 1.20182,0 H 17.655158 V 29.894335 29.67415 h 0.240364 0.240364 v 0.220185 0.220185 z m 1.922913,-0.44037 H 19.57807 V 29.453965 29.23378 h 0.240365 0.240364 v 0.220185 0.220185 z m -3.365097,-0.96659 -1.442185,-0.01632 0.850424,-0.203005 0.850423,-0.203006 0.591761,0.219323 0.591761,0.219323 z m 4.835652,-0.354521 h -0.211993 l -0.343012,-0.508411 -0.343011,-0.508411 0.555004,0.314215 0.555005,0.314215 v 0.194196 0.194196 z m -8.200749,-1.321111 h -0.240364 v -0.220185 -0.220185 h 0.240364 0.240364 v 0.220185 0.220185 z m -0.480728,-1.32111 h -0.240364 v -0.220186 -0.220185 h 0.240364 0.240364 v 0.220185 0.220186 z m 7.154179,0 h -0.240364 l 0.297107,-0.440371 0.297106,-0.44037 h 0.240364 0.240364 l -0.297106,0.44037 -0.297107,0.440371 z m 3.902567,-4.844073 H 23.423895 V 20.64656 20.426375 h 0.240364 0.240365 v 0.220185 0.220185 z M 6.8387754,9.8574889 H 6.5984113 V 9.6373038 9.4171187 h 0.2403641 0.2403641 v 0.2201851 0.2201851 z"
       id="path83" /><path
       style="fill:#495356"
       d="m 17.895522,25.270447 h -0.240364 v -0.220185 -0.220185 h 0.240364 0.240364 v 0.220185 0.220185 z m -2.884369,-7.486294 h -0.240364 v -0.220185 -0.220185 h 0.240364 0.240364 v 0.220185 0.220185 z m 0,-2.201851 h -0.240364 v -0.220185 -0.220185 h 0.240364 0.240364 v 0.220185 0.220185 z m 5.28801,0 h -0.240364 v -0.220185 -0.220185 h 0.240364 0.240364 v 0.220185 0.220185 z M 7.8002316,15.141932 h -0.240364 v -0.220185 -0.220185 h 0.240364 0.2403641 v 0.220185 0.220185 z m 7.6916494,-0.44037 h -0.240364 v -0.220186 -0.220185 h 0.240364 0.240365 v 0.220185 0.220186 z m 3.845825,0 h -0.240364 v -0.220186 -0.220185 h 0.240364 0.240364 v 0.220185 0.220186 z m -2.40364,-0.440371 h -0.240364 v -0.220185 -0.220185 h 0.240364 0.240364 v 0.220185 0.220185 z m 1.442184,-0.44037 h -0.240364 v -0.220185 -0.220185 h 0.240364 0.240364 v 0.220185 0.220185 z m -3.845825,-0.44037 h -0.240364 v -0.220185 -0.220185 h 0.240364 0.240364 v 0.220185 0.220185 z"
       id="path82" /><path
       style="fill:#565a3d"
       d="m 12.126785,23.068596 h -0.240364 v -0.220185 -0.220185 h 0.240364 0.240364 v 0.220185 0.220185 z m 2.40364,-0.88074 h -0.240364 v -0.220185 -0.220186 h 0.240364 0.240364 v 0.220186 0.220185 z m 4.807281,0 h -0.240364 v -0.220185 -0.220186 h 0.240364 0.240364 v 0.220186 0.220185 z m -1.362063,-1.027531 -0.320485,0.29358 v -0.58716 -0.58716 l 0.320485,0.29358 0.320486,0.29358 z"
       id="path81" /><path
       style="fill:#33456c"
       d="M 14.049697,30.11452 H 13.809333 V 29.894335 29.67415 h 0.240364 0.240364 v 0.220185 0.220185 z m 5.768738,-1.761481 H 19.57807 v -0.220185 -0.220185 h 0.240365 0.240364 v 0.220185 0.220185 z m -7.69165,-0.44037 h -0.240364 v -0.220185 -0.220185 h 0.240364 0.240364 v 0.220185 0.220185 z m 1.922912,-0.44037 h -0.240364 v -0.220186 -0.220185 h 0.240364 0.240364 v 0.220185 0.220186 z m 0.961456,-1.321111 h -0.240364 v -0.220185 -0.220185 h 0.240364 0.240364 v 0.220185 0.220185 z m -2.855997,-2.201851 h -0.211993 l -0.343012,-0.508412 -0.343012,-0.508411 0.555005,0.314216 0.555005,0.314215 v 0.194196 0.194196 z M 7.8002316,6.7748972 H 7.5598676 V 6.5547121 6.334527 h 0.240364 0.2403641 v 0.2201851 0.2201851 z"
       id="path80" /><path
       style="fill:#414d55"
       d="m 16.934066,25.270447 h -0.240364 v -0.220185 -0.220185 h 0.240364 0.240364 v 0.220185 0.220185 z M 11.646057,21.307115 H 11.405693 V 21.08693 20.866745 h 0.240364 0.240364 v 0.220185 0.220185 z m 3.365096,-3.963332 h -0.240364 v -0.220185 -0.220185 h 0.240364 0.240364 v 0.220185 0.220185 z m 4.807282,-2.642221 H 19.57807 v -0.220186 -0.220185 h 0.240365 0.240364 v 0.220185 0.220186 z m 8.653106,0 h -0.240364 v -0.220186 -0.220185 h 0.240364 0.240364 v 0.220185 0.220186 z m -7.210922,-0.440371 h -0.240364 v -0.220185 -0.220185 h 0.240364 0.240364 v 0.220185 0.220185 z m 7.69165,-1.32111 H 28.711905 V 12.719895 12.49971 h 0.240364 0.240364 v 0.220185 0.220186 z m 0,-3.0825921 H 28.711905 V 9.6373038 9.4171187 h 0.240364 0.240364 V 9.6373038 9.8574889 Z M 27.510084,6.334527 H 27.26972 V 6.1143419 5.8941567 h 0.240364 0.240364 V 6.1143419 6.334527 Z M 17.895522,1.9308246 H 17.655158 V 1.7106394 1.4904543 h 0.240364 0.240364 v 0.2201851 0.2201852 z"
       id="path79" /><path
       style="fill:#4d543e"
       d="m 18.856978,23.949337 h -0.240364 v -0.220185 -0.220186 h 0.240364 0.240364 v 0.220186 0.220185 z m 2.403641,-0.880741 h -0.240364 v -0.220185 -0.220185 h 0.240364 0.240364 v 0.220185 0.220185 z m -6.48983,-0.44037 h -0.64097 l 0.320485,-0.29358 0.320485,-0.29358 0.320486,0.29358 0.320485,0.29358 z m 4.086189,-0.880741 H 18.616614 V 21.5273 21.307115 h 0.240364 0.240364 v 0.220185 0.220185 z m 0.480728,-0.88074 H 19.097342 V 20.64656 20.426375 h 0.240364 0.240364 v 0.220185 0.220185 z M 9.7231441,18.224524 H 9.48278 v -0.220186 -0.220185 h 0.2403641 0.2403641 v 0.220185 0.220186 z"
       id="path78" /><path
       style="fill:#2e426b"
       d="m 14.530425,28.793409 h -0.240364 v -0.220185 -0.220185 h 0.240364 0.240364 v 0.220185 0.220185 z m 6.249466,0 h -0.240364 v -0.220185 -0.220185 h 0.240364 0.240364 v 0.220185 0.220185 z m -6.730194,-2.642221 h -0.240364 v -0.220185 -0.220185 h 0.240364 0.240364 v 0.220185 0.220185 z m 6.249466,-0.44037 h -0.240364 v -0.220186 -0.220185 h 0.240364 0.240364 v 0.220185 0.220186 z m -8.653106,-1.761481 h -0.240364 v -0.220185 -0.220186 h 0.240364 0.240364 v 0.220186 0.220185 z m 0,-0.880741 h -0.240364 v -0.220185 -0.220185 h 0.240364 0.240364 v 0.220185 0.220185 z M 23.183531,21.307115 H 22.943167 V 21.08693 20.866745 h 0.240364 0.240364 v 0.220185 0.220185 z m 5.768738,-7.486294 h -0.240364 v -0.220185 -0.220185 h 0.240364 0.240364 v 0.220185 0.220185 z M 6.8387754,12.940081 H 6.5984113 V 12.719895 12.49971 h 0.2403641 0.2403641 v 0.220185 0.220186 z"
       id="path77" /><path
       style="fill:#444d46"
       d="m 14.530425,23.068596 h -0.240364 v -0.220185 -0.220185 h 0.240364 0.240364 v 0.220185 0.220185 z m 4.326553,-0.88074 h -0.240364 v -0.220185 -0.220186 h 0.240364 0.240364 v 0.220186 0.220185 z m -3.845825,-3.522962 h -0.240364 v -0.220185 -0.220185 h 0.240364 0.240364 v 0.220185 0.220185 z m 11.537475,-0.880741 h -0.240364 v -0.220185 -0.220185 h 0.240364 0.240364 v 0.220185 0.220185 z M 8.7616879,16.903413 H 8.5213238 v -0.220185 -0.220185 h 0.2403641 0.240364 v 0.220185 0.220185 z M 27.510084,16.463043 H 27.26972 v -0.220186 -0.220185 h 0.240364 0.240364 v 0.220185 0.220186 z M 28.471541,8.0960079 H 28.231177 V 7.8758228 7.6556377 h 0.240364 0.240364 V 7.8758228 8.0960079 Z M 25.106444,4.1326758 H 24.86608 V 3.9124906 3.6923055 h 0.240364 0.240364 v 0.2201851 0.2201852 z"
       id="path76" /><path
       style="fill:#384657"
       d="m 16.453338,25.270447 h -0.240364 v -0.220185 -0.220185 h 0.240364 0.240364 v 0.220185 0.220185 z m 1.922912,0 h -0.240364 v -0.220185 -0.220185 h 0.240364 0.240364 v 0.220185 0.220185 z m -3.365097,-8.367034 h -0.240364 v -0.220185 -0.220185 h 0.240364 0.240364 v 0.220185 0.220185 z m -0.480728,-2.201851 h -0.240364 v -0.220186 -0.220185 h 0.240364 0.240364 v 0.220185 0.220186 z m 6.009102,0 h -0.640971 l 0.320485,-0.293581 0.320486,-0.29358 0.320485,0.29358 0.320486,0.293581 z M 7.3195035,8.5363782 H 7.0791395 V 8.3161931 8.0960079 h 0.240364 0.2403641 V 8.3161931 8.5363782 Z M 23.664259,3.2519353 H 23.423895 V 3.0317502 2.811565 h 0.240364 0.240365 V 3.0317502 3.2519353 Z M 17.414794,1.9308246 H 17.17443 V 1.7106394 1.4904543 h 0.240364 0.240364 v 0.2201851 0.2201852 z m 0.961456,0 H 18.135886 V 1.7106394 1.4904543 h 0.240364 0.240364 v 0.2201851 0.2201852 z"
       id="path75" /><path
       style="fill:#253a67"
       d="M 13.568969,30.55489 H 13.328605 V 30.334705 30.11452 h 0.240364 0.240364 v 0.220185 0.220185 z m 1.442184,-0.44037 H 14.770789 V 29.894335 29.67415 h 0.240364 0.240364 v 0.220185 0.220185 z m -2.884368,-0.88074 h -0.240364 v -0.220186 -0.220185 h 0.240364 0.240364 v 0.220185 0.220186 z m 5.768737,-0.440371 h -0.240364 v -0.220185 -0.220185 h 0.240364 0.240364 v 0.220185 0.220185 z m -6.249465,-0.44037 h -0.240364 v -0.220185 -0.220185 h 0.240364 0.240364 v 0.220185 0.220185 z m 6.249465,-0.88074 h -0.240364 v -0.220186 -0.220185 h 0.240364 0.240364 v 0.220185 0.220186 z m -5.288009,-0.440371 h -0.240364 v -0.220185 -0.220185 h 0.240364 0.240364 v 0.220185 0.220185 z m 0.480728,-1.32111 h -0.240364 v -0.220186 -0.220185 h 0.240364 0.240364 v 0.220185 0.220186 z m 8.653106,0 h -0.240364 v -0.220186 -0.220185 h 0.240364 0.240364 v 0.220185 0.220186 z M 19.818435,25.270447 H 19.57807 v -0.220185 -0.220185 h 0.240365 0.240364 v 0.220185 0.220185 z m 0.961456,0 h -0.240364 v -0.220185 -0.220185 h 0.240364 0.240364 v 0.220185 0.220185 z m -9.133834,-0.44037 h -0.240364 v -0.220185 -0.220185 h 0.240364 0.240364 v 0.220185 0.220185 z m 0,-2.201851 h -0.240364 v -0.220185 -0.220185 h 0.240364 0.240364 v 0.220185 0.220185 z M 24.144988,20.426375 H 23.904624 V 20.20619 19.986004 h 0.240364 0.240364 v 0.220186 0.220185 z M 7.3195035,14.701562 h -0.240364 v -0.220186 -0.220185 h 0.240364 0.2403641 v 0.220185 0.220186 z M 27.029356,5.4537865 H 26.788992 V 5.2336014 5.0134163 h 0.240364 0.240364 V 5.2336014 5.4537865 Z M 21.741347,2.3711948 H 21.500983 V 2.1510097 1.9308246 h 0.240364 0.240364 v 0.2201851 0.2201851 z"
       id="path74" /><path
       style="fill:#374347"
       d="m 20.299163,24.830077 h -0.240364 v -0.220185 -0.220185 h 0.240364 0.240364 v 0.220185 0.220185 z m -1.442185,-2.201851 h -0.240364 v -0.220185 -0.220185 h 0.240364 0.240364 v 0.220185 0.220185 z m -6.249465,-0.44037 h -0.240364 v -0.220185 -0.220186 h 0.240364 0.240364 v 0.220186 0.220185 z m 2.40364,0 h -0.240364 v -0.220185 -0.220186 h 0.240364 0.240364 v 0.220186 0.220185 z m 4.767221,-0.475137 -0.921396,-0.03477 0.630956,-0.231291 0.630956,-0.231291 0.29044,0.266057 0.290439,0.266057 z M 14.530425,21.307115 H 14.290061 V 21.08693 20.866745 h 0.240364 0.240364 v 0.220185 0.220185 z m 4.807281,-0.88074 H 19.097342 V 20.20619 19.986004 h 0.240364 0.240364 v 0.220186 0.220185 z m -4.326553,-1.321111 h -0.240364 v -0.220185 -0.220185 h 0.240364 0.240364 v 0.220185 0.220185 z m 4.326553,-0.44037 h -0.240364 v -0.220185 -0.220185 h 0.240364 0.240364 v 0.220185 0.220185 z"
       id="path73" /><path
       style="fill:#273958"
       d="m 18.856978,25.270447 h -0.240364 v -0.220185 -0.220185 h 0.240364 0.240364 v 0.220185 0.220185 z m -6.249465,-1.32111 h -0.240364 v -0.220185 -0.220186 h 0.240364 0.240364 v 0.220186 0.220185 z m 7.210922,-7.045924 H 19.57807 v -0.220185 -0.220185 h 0.240365 0.240364 v 0.220185 0.220185 z m 7.691649,0 H 27.26972 v -0.220185 -0.220185 h 0.240364 0.240364 v 0.220185 0.220185 z m -8.653106,-2.201851 h -0.240364 v -0.220186 -0.220185 h 0.240364 0.240364 v 0.220185 0.220186 z m -3.845825,-0.880741 h -0.240364 v -0.220185 -0.220185 h 0.240364 0.240364 v 0.220185 0.220185 z m 2.884369,0 h -0.240364 v -0.220185 -0.220185 h 0.240364 0.240364 v 0.220185 0.220185 z M 28.952269,9.4171187 H 28.711905 V 9.1969335 8.9767484 h 0.240364 0.240364 V 9.1969335 9.4171187 Z M 7.8002316,7.2152675 H 7.5598676 V 6.9950823 6.7748972 h 0.240364 0.2403641 V 6.9950823 7.2152675 Z M 8.2809597,6.334527 H 8.0405957 V 6.1143419 5.8941567 h 0.240364 0.2403641 V 6.1143419 6.334527 Z M 22.702803,2.811565 H 22.462439 V 2.5913799 2.3711948 h 0.240364 0.240364 V 2.5913799 2.811565 Z M 16.934066,1.9308246 H 16.693702 V 1.7106394 1.4904543 h 0.240364 0.240364 v 0.2201851 0.2201852 z"
       id="path72" /><path
       style="fill:#1b3162"
       d="M 15.97261,30.11452 H 15.732246 V 29.894335 29.67415 h 0.240364 0.240364 v 0.220185 0.220185 z m 1.442184,0 H 17.17443 V 29.894335 29.67415 h 0.240364 0.240364 v 0.220185 0.220185 z m 2.346898,0 h -0.240364 l 0.297107,-0.44037 0.297106,-0.44037 h 0.240364 0.240364 l -0.297106,0.44037 -0.297107,0.44037 z m -4.750539,-1.321111 h -0.240364 v -0.220185 -0.220185 h 0.240364 0.240364 v 0.220185 0.220185 z m 3.365097,0 h -0.240364 v -0.220185 -0.220185 h 0.240364 0.240364 v 0.220185 0.220185 z m -3.845825,-1.32111 h -0.240364 v -0.220186 -0.220185 h 0.240364 0.240364 v 0.220185 0.220186 z m 4.326553,0 h -0.240364 v -0.220186 -0.220185 h 0.240364 0.240364 v 0.220185 0.220186 z m 2.403641,-1.321111 h -0.240364 v -0.220185 -0.220185 h 0.240364 0.240364 v 0.220185 0.220185 z m -7.69165,-1.321111 h -0.240364 v -0.220185 -0.220185 h 0.240364 0.240364 v 0.220185 0.220185 z M 8.7616879,5.4537865 H 8.5213238 V 5.2336014 5.0134163 h 0.2403641 0.240364 V 5.2336014 5.4537865 Z M 13.568969,2.3711948 H 13.328605 V 2.1510097 1.9308246 h 0.240364 0.240364 v 0.2201851 0.2201851 z"
       id="path71" /><path
       style="fill:#283848"
       d="m 18.856978,23.068596 h -0.240364 v -0.220185 -0.220185 h 0.240364 0.240364 v 0.220185 0.220185 z m -6.730193,-0.44037 h -0.240364 v -0.220185 -0.220185 h 0.240364 0.240364 v 0.220185 0.220185 z m 0.480728,-0.880741 H 12.367149 V 21.5273 21.307115 h 0.240364 0.240364 v 0.220185 0.220185 z m 2.40364,0 H 14.770789 V 21.5273 21.307115 h 0.240364 0.240364 v 0.220185 0.220185 z m 3.365097,-0.44037 H 18.135886 V 21.08693 20.866745 h 0.240364 0.240364 v 0.220185 0.220185 z m -0.961456,-0.44037 H 17.17443 V 20.64656 20.426375 h 0.240364 0.240364 v 0.220185 0.220185 z M 10.6846,19.545634 h -0.240364 v -0.220185 -0.220185 h 0.240364 0.240364 v 0.220185 0.220185 z m 4.326553,0 h -0.240364 v -0.220185 -0.220185 h 0.240364 0.240364 v 0.220185 0.220185 z"
       id="path70" /><path
       style="fill:#1d3157"
       d="m 21.260619,24.389707 h -0.240364 v -0.220185 -0.220185 h 0.240364 0.240364 v 0.220185 0.220185 z M 26.0679,18.664894 h -0.240364 v -0.220185 -0.220185 h 0.240364 0.240364 v 0.220185 0.220185 z M 9.242416,17.784153 H 9.0020519 V 17.563968 17.343783 H 9.242416 9.48278 v 0.220185 0.220185 z m 10.576019,-0.44037 H 19.57807 v -0.220185 -0.220185 h 0.240365 0.240364 v 0.220185 0.220185 z m 7.210921,0 h -0.240364 v -0.220185 -0.220185 h 0.240364 0.240364 v 0.220185 0.220185 z m -6.249465,-2.201851 h -0.240364 v -0.220185 -0.220185 h 0.240364 0.240364 v 0.220185 0.220185 z m 7.69165,0 h -0.240364 v -0.220185 -0.220185 h 0.240364 0.240364 v 0.220185 0.220185 z M 6.9188967,11.47218 6.5984113,11.76576 V 11.1786 10.591439 l 0.3204854,0.29358 0.3204855,0.293581 z M 26.0679,4.573046 H 25.827536 V 4.3528609 4.1326758 H 26.0679 26.308264 V 4.3528609 4.573046 Z M 24.625716,3.6923055 H 24.385352 V 3.4721204 3.2519353 h 0.240364 0.240364 V 3.4721204 3.6923055 Z M 11.646057,3.2519353 H 11.405693 V 3.0317502 2.811565 h 0.240364 0.240364 V 3.0317502 3.2519353 Z M 21.260619,2.3711948 H 21.020255 V 2.1510097 1.9308246 h 0.240364 0.240364 V 2.1510097 2.3711948 Z M 16.453338,1.9308246 H 16.212974 V 1.7106394 1.4904543 h 0.240364 0.240364 v 0.2201851 0.2201852 z m 2.884368,0 H 19.097342 V 1.7106394 1.4904543 h 0.240364 0.240364 v 0.2201851 0.2201852 z"
       id="path69" /><path
       style="fill:#142b56"
       d="M 14.530425,30.55489 H 14.290061 V 30.334705 30.11452 h 0.240364 0.240364 v 0.220185 0.220185 z m -1.442184,-2.201851 h -0.240364 v -0.220185 -0.220185 h 0.240364 0.240364 v 0.220185 0.220185 z m 5.768737,-2.201851 h -0.240364 v -0.220185 -0.220185 h 0.240364 0.240364 v 0.220185 0.220185 z M 15.97261,25.270447 h -0.240364 v -0.220185 -0.220185 h 0.240364 0.240364 v 0.220185 0.220185 z m -4.326553,-0.88074 h -0.240364 v -0.220185 -0.220185 h 0.240364 0.240364 v 0.220185 0.220185 z m 10.576018,-1.761481 h -0.240364 v -0.220185 -0.220185 h 0.240364 0.240364 v 0.220185 0.220185 z m -10.576018,-0.44037 h -0.240364 v -0.220185 -0.220186 h 0.240364 0.240364 v 0.220186 0.220185 z M 22.702803,21.747485 H 22.462439 V 21.5273 21.307115 h 0.240364 0.240364 v 0.220185 0.220185 z m 1.922913,-1.761481 h -0.240364 v -0.220185 -0.220185 h 0.240364 0.240364 v 0.220185 0.220185 z M 9.7231441,18.664894 H 9.48278 v -0.220185 -0.220185 h 0.2403641 0.2403641 v 0.220185 0.220185 z M 8.7616879,17.343783 H 8.5213238 v -0.220185 -0.220185 h 0.2403641 0.240364 v 0.220185 0.220185 z m 6.3295871,-1.027531 -0.320486,0.293581 v -0.587161 -0.58716 l 0.320486,0.29358 0.320485,0.29358 z m 5.207888,-0.29358 h -0.240364 v -0.220185 -0.220185 h 0.240364 0.240364 v 0.220185 0.220185 z m 7.69165,0 h -0.240365 v -0.220185 -0.220185 h 0.240365 0.240364 v 0.220185 0.220185 z M 7.3195035,14.261191 h -0.240364 v -0.220185 -0.220185 h 0.240364 0.2403641 v 0.220185 0.220185 z m 13.4603875,0 h -0.240364 v -0.220185 -0.220185 h 0.240364 0.240364 v 0.220185 0.220185 z m -6.249466,-0.44037 h -0.240364 v -0.220185 -0.220185 h 0.240364 0.240364 v 0.220185 0.220185 z m 14.421844,-0.44037 h -0.240364 v -0.220185 -0.220185 h 0.240364 0.240364 v 0.220185 0.220185 z M 6.9188967,10.591439 6.5984113,10.885019 v -0.58716 -0.5871602 l 0.3204854,0.2935802 0.3204855,0.29358 z M 7.3195035,8.0960079 H 7.0791395 V 7.8758228 7.6556377 h 0.240364 0.2403641 V 7.8758228 8.0960079 Z M 27.990813,6.7748972 H 27.750448 V 6.5547121 6.334527 h 0.240365 0.240364 V 6.5547121 6.7748972 Z M 26.548628,5.0134163 H 26.308264 V 4.7932311 4.573046 h 0.240364 0.240364 V 4.7932311 5.0134163 Z M 9.6642815,4.573046 H 9.48278 V 4.4067819 4.2405178 L 10.324054,3.636134 11.165328,3.0317502 10.505556,3.8023981 9.8457829,4.573046 Z M 12.607513,2.811565 H 12.367149 V 2.5913799 2.3711948 h 0.240364 0.240364 V 2.5913799 2.811565 Z M 14.049697,2.3711948 H 13.809333 V 2.1510097 1.9308246 h 0.240364 0.240364 v 0.2201851 0.2201851 z"
       id="path68" /><path
       style="fill:#172b4c"
       d="m 12.126785,23.508966 h -0.240364 v -0.220185 -0.220185 h 0.240364 0.240364 v 0.220185 0.220185 z m 6.730193,0 h -0.240364 v -0.220185 -0.220185 h 0.240364 0.240364 v 0.220185 0.220185 z m 2.884369,-0.44037 h -0.240364 v -0.220185 -0.220185 h 0.240364 0.240364 v 0.220185 0.220185 z m -9.614562,-0.88074 h -0.240364 v -0.220185 -0.220186 h 0.240364 0.240364 v 0.220186 0.220185 z m 1.342735,-0.688868 -0.862007,0.300677 0.592898,-0.547194 0.592898,-0.547195 0.269109,0.246517 0.269109,0.246517 z m 1.484891,-0.191873 h -0.240364 l 0.297106,-0.44037 0.297107,-0.44037 h 0.240364 0.240364 l -0.297107,0.44037 -0.297106,0.44037 z m 4.383295,0 H 19.097342 V 21.08693 20.866745 h 0.240364 0.240364 v 0.220185 0.220185 z m -2.40364,-0.44037 H 16.693702 V 20.64656 20.426375 h 0.240364 0.240364 v 0.220185 0.220185 z m 2.40364,-0.880741 h -0.240364 v -0.220185 -0.220185 h 0.240364 0.240364 v 0.220185 0.220185 z m 0,-0.88074 h -0.240364 v -0.220185 -0.220185 h 0.240364 0.240364 v 0.220185 0.220185 z"
       id="path67" /><path
       style="fill:#0b2355"
       d="m 14.530425,31.435631 h -0.240364 v -0.220185 -0.220185 h 0.240364 0.240364 v 0.220185 0.220185 z M 18.856978,30.55489 H 18.616614 V 30.334705 30.11452 h 0.240364 0.240364 v 0.220185 0.220185 z M 13.088241,29.67415 H 12.847877 V 29.453965 29.23378 h 0.240364 0.240364 v 0.220185 0.220185 z m 8.172378,-0.880741 h -0.240364 v -0.220185 -0.220185 h 0.240364 0.240364 v 0.220185 0.220185 z m -5.768738,-3.522962 h -0.240364 v -0.220185 -0.220185 h 0.240364 0.240365 v 0.220185 0.220185 z m 5.28801,-0.44037 h -0.240364 v -0.220185 -0.220185 h 0.240364 0.240364 v 0.220185 0.220185 z m 0.961456,0 h -0.240364 v -0.220185 -0.220185 h 0.240364 0.240364 v 0.220185 0.220185 z m -8.653106,-0.44037 h -0.240364 v -0.220185 -0.220185 h 0.240364 0.240364 v 0.220185 0.220185 z m 8.200749,-1.761481 h -0.211993 l -0.343012,-0.508411 -0.343011,-0.508411 0.555004,0.314215 0.555005,0.314215 v 0.194196 0.194196 z M 11.646057,21.747485 H 11.405693 V 21.5273 21.307115 h 0.240364 0.240364 v 0.220185 0.220185 z m -0.480729,-1.32111 H 10.924964 V 20.20619 19.986004 h 0.240364 0.240365 v 0.220186 0.220185 z m 3.925947,-0.14679 -0.320486,0.29358 v -0.587161 -0.58716 l 0.320486,0.29358 0.320485,0.29358 z m 9.958427,-0.733951 h -0.240364 l 0.297106,-0.44037 0.297106,-0.44037 h 0.240364 0.240364 l -0.297106,0.44037 -0.297106,0.44037 z m -14.84583,-0.44037 H 9.9635082 v -0.220185 -0.220185 h 0.2403638 0.240364 v 0.220185 0.220185 z m 5.768738,-4.403702 h -0.240364 v -0.220186 -0.220185 h 0.240364 0.240364 v 0.220185 0.220186 z m -1.442185,-0.440371 h -0.240364 v -0.220185 -0.220185 h 0.240364 0.240364 v 0.220185 0.220185 z m 2.884369,-0.44037 H 17.17443 v -0.220185 -0.220185 h 0.240364 0.240364 v 0.220185 0.220185 z M 6.9188967,12.35292 6.5984113,12.6465 v -0.58716 -0.58716 l 0.3204854,0.29358 0.3204855,0.29358 z M 28.952269,8.9767484 H 28.711905 V 8.7565633 8.5363782 h 0.240364 0.240364 V 8.7565633 8.9767484 Z M 28.471541,7.6556377 H 28.231177 V 7.4354526 7.2152675 h 0.240364 0.240364 V 7.4354526 7.6556377 Z M 9.242416,5.0134163 H 9.0020519 V 4.7932311 4.573046 H 9.242416 9.48278 v 0.2201851 0.2201852 z m 6.48983,-3.0825917 h -0.640971 l 0.320485,-0.2935802 0.320486,-0.2935802 0.320485,0.2935802 0.320485,0.2935802 z"
       id="path66" /><path
       style="fill:#001a51"
       d="m 16.459304,31.435631 h -1.619839 l -0.75543,-0.692011 -0.75543,-0.69201 v -0.276804 -0.276804 l 0.576874,0.528444 0.576873,0.528444 h 2.095502 2.095503 l -0.297107,0.440371 -0.297106,0.44037 z M 15.491881,30.11452 H 15.251517 V 29.894335 29.67415 h 0.240364 0.240365 v 0.220185 0.220185 z M 12.607513,29.67415 H 12.367149 V 29.453965 29.23378 h 0.240364 0.240364 v 0.220185 0.220185 z m 6.730193,0 H 19.097342 V 29.453965 29.23378 h 0.240364 0.240364 v 0.220185 0.220185 z m 1.201821,-0.44037 h -0.640971 l 0.320485,-0.293581 0.320486,-0.29358 0.320485,0.29358 0.320486,0.293581 z m -8.89347,-1.321111 h -0.240364 v -0.220185 -0.220185 h 0.240364 0.240364 v 0.220185 0.220185 z m 6.730193,-0.44037 h -0.240364 v -0.220186 -0.220185 h 0.240364 0.240364 v 0.220185 0.220186 z m 2.884369,0 h -0.240364 v -0.220186 -0.220185 h 0.240364 0.240364 v 0.220185 0.220186 z M 19.818435,27.031928 H 19.57807 v -0.220185 -0.220185 h 0.240365 0.240364 v 0.220185 0.220185 z m -8.172378,-0.44037 h -0.240364 v -0.220185 -0.220185 h 0.240364 0.240364 v 0.220185 0.220185 z m 9.133834,0 h -0.240364 v -0.220185 -0.220185 h 0.240364 0.240364 v 0.220185 0.220185 z m -6.249466,-0.44037 h -0.240364 v -0.220185 -0.220185 h 0.240364 0.240364 v 0.220185 0.220185 z m -2.884368,-0.880741 h -0.240364 v -0.220185 -0.220185 h 0.240364 0.240364 v 0.220185 0.220185 z m 7.691649,0 h -0.240364 v -0.220185 -0.220185 h 0.240364 0.240364 v 0.220185 0.220185 z m 2.327162,0 h -0.107143 l -0.208581,-0.330277 -0.20858,-0.330278 0.389069,-0.88074 0.389068,-0.880741 -0.07334,1.211018 -0.07335,1.211018 z m -7.615171,-0.44037 h -0.240364 v -0.220185 -0.220185 h 0.240364 0.240364 v 0.220185 0.220185 z m 4.807281,-3.522962 H 18.616614 V 21.08693 20.866745 h 0.240364 0.240364 v 0.220185 0.220185 z m -3.845825,-0.44037 H 14.770789 V 20.64656 20.426375 h 0.240364 0.240364 v 0.220185 0.220185 z m 1.201821,0 h -0.640971 l 0.320485,-0.29358 0.320486,-0.29358 0.320485,0.29358 0.320485,0.29358 z m 3.124732,-1.321111 h -0.240364 v -0.220185 -0.220185 h 0.240364 0.240364 v 0.220185 0.220185 z M 8.2809597,16.463043 h -0.240364 v -0.220186 -0.220185 h 0.240364 0.2403641 v 0.220185 0.220186 z M 7.8002316,15.582302 h -0.240364 v -0.220185 -0.220185 h 0.240364 0.2403641 v 0.220185 0.220185 z M 18.856978,1.9308246 H 18.616614 V 1.7106394 1.4904543 h 0.240364 0.240364 v 0.2201851 0.2201852 z"
       id="path65" /></g></svg>
