<?xml version="1.0" encoding="UTF-8" standalone="no"?>
<!-- Created with Inkscape (http://www.inkscape.org/) -->

<svg
   width="365.93546"
   height="420.50873"
   viewBox="0 0 365.93546 420.50873"
   version="1.1"
   id="svg1"
   xml:space="preserve"
   xmlns="http://www.w3.org/2000/svg"
   xmlns:svg="http://www.w3.org/2000/svg"><defs
     id="defs1" /><path
     style="fill:#000000"
     d="m 126.94318,340.87632 -0.75367,0.33334 v -0.55731 -0.5573 l 2.85567,-7.27603 2.85566,-7.27603 4.01168,-12 4.01168,-12 5.24446,-16.5 5.24447,-16.5 3.35825,-10.5 3.35824,-10.5 2.06426,-7 2.06426,-7 0.90005,-2 0.90005,-2 2.13127,-6.5 2.13127,-6.5 0.8324,-2 0.83241,-2 1.52395,-3.5 1.52395,-3.5 1.9963,-5 1.99631,-5 4.55236,-9.5 4.55236,-9.5 2.6463,-5 2.6463,-5 0.88305,-1.75 0.88304,-1.75 1.25,-2.25 1.25,-2.25 0.5,-0.5 0.5,-0.5 1.25,-2.23643 1.25,-2.23643 v -0.70213 -0.70213 l -2,2.14675 -2,2.14674 v 0.95848 0.95848 l -0.75,0.33334 -0.75,0.33333 -2.47093,5 -2.47093,5 -2.1555,3 -2.15549,3 -5.98288,12.5 -5.98288,12.5 -2.57601,5.5 -2.57601,5.5 -4.65893,12 -4.65893,12 -1.45084,5 -1.45084,5 -0.88881,2 -0.88882,2 -1.19399,4 -1.194,4 -0.8721,2.29705 -0.87211,2.29706 v 3.45294 3.45295 h -1.02144 -1.02144 l -0.8793,-2.25 -0.8793,-2.25 -1.57914,-5.30252 -1.57913,-5.30252 -1.15543,-6.63495 -1.15542,-6.63496 0.57057,-8.06252 0.57058,-8.06253 1.27213,-4.75 1.27213,-4.75 h 1.36402 1.36403 l 1.5,1.5 1.5,1.5 h 0.92857 0.92857 v -1.06574 -1.06574 l -1.06959,-1.99855 -1.06959,-1.99854 0.0212,-6.69771 0.0212,-6.6977 1.46361,-3.48801 1.46361,-3.48801 3.33481,-5.55339 3.33481,-5.55339 1.94643,-5.94661 1.94642,-5.94661 4.05358,-7.80289 4.05357,-7.80289 9.5,-11.92718 9.5,-11.92718 0.68358,-0.0199 0.68358,-0.0199 0.31642,2.75 0.31642,2.75 4.5,-8.9659 4.5,-8.96591 7.05389,-7.03409 7.0539,-7.0341 12.4461,-11.558218 12.44611,-11.55821 4.01275,-3.63291 4.01275,-3.63291 6.48725,-5.15295 6.48725,-5.15296 2.02171,-1.70081 2.02172,-1.70082 4.47828,-3.13052 4.47829,-3.130527 2.63551,-2.824582 2.63551,-2.824581 9.54396,-5.75 9.54396,-5.75 h 2.14036 2.14035 l 4.36035,-3 4.36035,-3 h 0.64899 0.64899 l 12.17083,-5.903517 12.17078,-5.903577 10.25627,-4.596483 10.25628,-4.5964832 h 0.99372 0.99373 l -0.0392,0.75 -0.0392,0.75 -7.15722,5.5000002 -7.15722,5.5 -7.55354,6.4154 -7.55355,6.4154 -5.75,5.553297 -5.75,5.553296 v 0.662041 0.662042 l -8.55724,8.369264 -8.55725,8.36926 -1.94275,0.31955 -1.94283,0.31955 v 1.24189 1.24189 l -1.75578,1.93856 -1.75578,1.93856 -5.04191,6.5 -5.04191,6.5 -6.61889,9.5 -6.61889,9.499998 -5.33342,5.51583 -5.33342,5.51584 -7.39211,6.75872 -7.3921,6.75873 0.46488,0.46488 0.46488,0.46488 1.92722,-1.7809 1.92723,-1.7809 5,-3.39254 5,-3.39254 0.73469,-1.066 0.73468,-1.066 0.0153,0.67322 0.0153,0.67321 -3.89377,7.32679 -3.89378,7.32678 -3.25278,9 -3.25277,9 -3.74131,5.5 -3.7413,5.5 -3.14855,3.93332 -3.14855,3.93331 -2.93254,6.14457 -2.93253,6.14457 -5.31247,6.66625 -5.31246,6.66624 -0.20824,2.5161 -0.20824,2.51609 -5.45235,8.73978 -5.45235,8.73977 -5.01981,6.51446 -5.01981,6.51445 -10.0382,10.18663 -10.03816,10.18662 v 0.6477 0.64769 l 3.5,-2.06505 3.5,-2.06505 v 1.34573 1.34573 l -7.32131,8.37054 -7.32131,8.37055 -5.93826,5.14066 -5.93827,5.14066 -1.30652,3.85934 -1.30653,3.85934 -0.8706,2 -0.87059,2 -2.50374,8 -2.50375,8 -3.68438,10.20352 -3.68439,10.20352 0.6107,1.29648 0.61069,1.29648 1.49621,2.03931 1.4962,2.0393 -7.22841,5.4607 -7.22841,5.46069 z m 10.38581,-10.41953 0.86052,-0.53183 v -0.94099 -0.94098 h -1.5 -1.5 v 0.83333 0.83334 l 0.63948,0.63948 0.63948,0.63948 z m 62.52719,-180.74713 0.66666,-0.66667 -0.66666,-0.66667 -0.66667,-0.66666 v 1.33333 1.33333 z m 2,-3 0.66666,-0.66667 -0.66666,-0.66667 -0.66667,-0.66666 v 1.33333 1.33333 z m 1.83333,-2.66667 h 0.5 v -0.5 -0.5 h -0.5 -0.5 v 0.5 0.5 z m 6,-10 h 0.5 v -0.5 -0.5 h -0.5 -0.5 v 0.5 0.5 z m 2,-2 h 0.5 v -0.5 -0.5 h -0.5 -0.5 v 0.5 0.5 z m -116.500002,174 h -1 v -1.94098 -1.94099 l -1,-0.61803 -1,-0.61803 v -2.50673 -2.50672 l -1.01125,-1.88953 -1.01124,-1.88953 -0.0693,-8.8841 -0.0693,-8.88411 1.48337,-3.55019 1.48336,-3.55019 3.78371,-4.18812 3.783722,-4.18812 4.78367,-2.42407 4.78367,-2.42407 4.27978,-1.37843 4.27979,-1.37844 6.1565,-1.23661 6.1565,-1.23661 1.0935,0.67582 1.0935,0.67581 v 1.36153 1.36153 l -2.75,0.56171 -2.75,0.5617 -6.98349,1.07424 -6.9835,1.07424 -4.43684,1.96263 -4.43685,1.96263 -4.20173,3.443 -4.201722,3.443 -2.26883,4.78788 -2.26882,4.78788 -0.006,8.5 -0.006,8.5 2.14662,5.48588 2.14718,5.48589 v 0.76411 0.76412 z m 103.682282,-53 h -4.68228 v -1.4433 -1.44329 l 2.22251,-1.55671 2.2225,-1.5567 h 6.11849 6.11849 l 8.40901,-1.03861 8.409,-1.03861 4.5,-1.02453 4.5,-1.02453 4,-1.07051 4,-1.07052 5.33145,-1.88278 5.33145,-1.88279 3.03291,-1.56838 3.03291,-1.56838 4.49829,-4.14638 4.4983,-4.14638 1.00529,-2.5188 1.00529,-2.5188 0.80746,-3.3862 0.80746,-3.3862 -0.90619,-5.56788 -0.9062,-5.56787 -3.61522,-7.04593 -3.61522,-7.04592 -4.13338,-5.5 -4.13338,-5.5 -5.3822,-6.23801 -5.3822,-6.238 0.5802,-1.512 0.58021,-1.51199 h 1.47629 1.4763 l 6.80509,7.80714 6.80509,7.80715 3.46376,4.94285 3.46377,4.94286 2.33624,4.5 2.33624,4.5 1.95,5.91516 1.94999,5.91515 -0.0216,5.58485 -0.0216,5.58484 -2.72838,5.09256 -2.72838,5.09256 -1.5,1.95255 -1.5,1.95255 -3.5,2.6107 -3.5,2.6107 -6,2.97453 -6,2.97453 -8.5,2.05829 -8.5,2.05829 -6.5,1.04514 -6.5,1.04515 -9.06772,1.01622 -9.06777,1.01623 z m -16.18228,-8 h -0.5 v -0.5 -0.5 h 0.5 0.5 v 0.5 0.5 z m 14.75,-153.012378 -0.75,-0.0124 -2.14521,-3.31374 -2.14521,-3.31374 -3.00306,-8.92388 -3.00307,-8.92388 -0.6446,-3.73702 -0.6446,-3.73701 0.77186,-7.762986 0.77187,-7.762984 0.64424,10.26141 0.64425,10.26142 1.30708,4.73858 1.30707,4.73859 3.81969,7.426 3.81969,7.42601 v 1.32401 1.324 z m 162.25,-84.9876202 h -0.5 v -0.5 -0.5 h 0.5 0.5 v 0.5 0.5 z"
     id="path51" /><path
     style="fill:#ffffff;fill-opacity:1;stroke-width:0.896883"
     d="m 179.70371,419.52332 c -1.05728,-0.58751 -2.46987,-1.49829 -3.13909,-2.02397 -0.66921,-0.52568 -4.04193,-2.4811 -7.49493,-4.34538 -3.453,-1.86427 -7.34948,-4.1427 -8.65884,-5.06316 -1.30936,-0.92046 -2.58671,-1.67356 -2.83855,-1.67356 -0.25183,0 -3.4183,-1.79404 -7.03661,-3.98674 -3.61829,-2.1927 -8.79851,-5.08488 -11.51158,-6.42707 -2.71307,-1.34217 -6.14364,-3.29315 -7.6235,-4.33549 -1.47986,-1.04235 -4.70864,-2.86855 -7.17506,-4.05823 -2.46643,-1.18968 -5.69521,-3.00419 -7.17507,-4.03224 -1.47985,-1.02805 -4.91043,-3.04408 -7.6235,-4.48005 -2.71307,-1.43599 -7.03235,-3.94841 -9.598402,-5.58319 -2.56606,-1.63477 -5.08854,-2.9723 -5.60552,-2.9723 -0.51698,0 -0.93997,-0.30839 -0.93997,-0.68531 0,-0.37692 -1.51349,-1.39306 -3.36331,-2.25808 -1.84982,-0.86503 -4.9777,-2.57392 -6.95084,-3.79754 -1.97314,-1.22363 -5.20192,-3.0398 -7.17506,-4.03594 -4.23996,-2.14055 -6.67648,-3.63671 -8.23836,-5.0588 -0.62647,-0.57041 -2.3588,-1.57703 -3.84963,-2.23693 -1.49082,-0.65991 -2.71058,-1.50489 -2.71058,-1.87776 0,-0.37287 -0.80719,-0.67795 -1.79377,-0.67795 -0.98657,0 -1.79376,-0.4036 -1.79376,-0.89688 0,-0.49329 -0.55598,-0.89688 -1.23551,-0.89688 -0.67953,0 -1.73794,-0.6054 -2.35202,-1.34533 -0.61409,-0.73993 -1.8743,-1.34532 -2.80047,-1.34532 -0.92617,0 -1.68395,-0.30508 -1.68395,-0.67795 0,-0.37287 -1.31169,-1.23727 -2.91487,-1.92089 -1.60317,-0.68362 -4.19963,-2.19473 -5.76989,-3.35803 -1.57027,-1.16329 -3.10315,-2.11508 -3.4064,-2.11508 -0.30325,0 -2.7596,-1.41259 -5.45855,-3.13909 -2.698953,-1.7265 -5.093312,-3.13909 -5.320798,-3.13909 -0.227487,0 -2.621846,-1.41259 -5.320799,-3.13909 -2.698953,-1.7265 -5.120536,-3.13909 -5.381297,-3.13909 -0.26076,0 -2.600832,-1.34619 -5.200159,-2.99154 -2.5993276,-1.64535 -6.0393786,-3.56079 -7.6445566,-4.25653 L 2.3847968e-6,316.28787 0.22785938,210.05045 0.45571738,103.81303 5.3878414,101.23649 c 2.712668,-1.417098 5.5696286,-3.153478 6.3488016,-3.858618 0.779172,-0.70513 1.889394,-1.28207 2.46716,-1.28207 0.577764,0 1.050482,-0.4036 1.050482,-0.89689 0,-0.49328 0.621738,-0.89688 1.381641,-0.89688 0.759902,0 2.57609,-0.80719 4.035973,-1.79376 4.955301,-3.34874 7.581146,-4.95565 10.277835,-6.28964 1.479856,-0.73206 2.892444,-1.55448 3.139094,-1.82761 0.24664,-0.27313 1.96193,-1.2008 3.81175,-2.0615 1.84982,-0.86069 3.36331,-1.94955 3.36331,-2.41969 0,-0.47014 0.61087,-0.85481 1.35749,-0.85481 1.29075,0 4.85912,-1.67905 5.81757,-2.73737 0.24664,-0.27235 2.00096,-1.28134 3.89849,-2.24221 6.46539,-3.27395 6.8641,-3.51803 6.8641,-4.20192 0,-0.37631 0.5045,-0.68498 1.12111,-0.68592 0.6166,-9.4e-4 4.47508,-2.01893 8.57438,-4.48441 4.09931,-2.46549 7.61302,-4.4827 7.80826,-4.4827 0.19523,0 2.31102,-1.15333 4.70175,-2.56296 4.21824,-2.48716 8.19724,-4.748627 17.03313,-9.680776 2.343102,-1.307911 4.461992,-2.620245 4.708632,-2.916299 0.24664,-0.296053 1.65923,-1.134691 3.13909,-1.86364 1.47986,-0.728948 5.71763,-3.158228 9.41727,-5.3984 3.69964,-2.240172 7.93741,-4.669452 9.41727,-5.3984 1.47986,-0.728949 2.89245,-1.527803 3.13909,-1.775233 0.90228,-0.905155 4.07753,-2.75811 5.60552,-3.271163 0.86325,-0.289853 1.56954,-0.883533 1.56954,-1.319285 0,-0.435753 0.8072,-0.792278 1.79377,-0.792278 0.98657,0 1.79376,-0.308389 1.79376,-0.685308 0,-0.37692 1.51349,-1.387774 3.36331,-2.246343 3.34344,-1.55181 6.54206,-3.386188 7.39929,-4.243412 0.24664,-0.246642 1.25563,-0.88835 2.2422,-1.426017 7.6898,-4.190826 10.94834,-6.076354 12.10792,-7.0061382 0.73993,-0.593295 3.36331,-2.042761 5.82974,-3.221038 2.46643,-1.178276 5.84777,-3.134252 7.5141,-4.346614 3.35721,-2.44257894 7.48514,-2.76218694 9.51093,-0.736391 0.72666,0.726656 2.54096,1.861112 4.03178,2.521013 1.49082,0.659902 2.71058,1.504896 2.71058,1.877765 0,0.372869 0.55926,0.677944 1.24281,0.677944 1.50988,0 4.55289,1.557113 8.32554,4.2601932 1.54906,1.109893 3.25867,2.017986 3.79913,2.017986 0.54046,0 0.98265,0.403598 0.98265,0.896883 0,0.493286 0.55598,0.896883 1.23551,0.896883 0.67952,0 1.73793,0.605396 2.35202,1.345324 0.61409,0.739929 1.8743,1.345324 2.80046,1.345324 0.92618,0 1.68395,0.403598 1.68395,0.896883 0,0.493286 0.6054,0.896883 1.34533,0.896883 0.73993,0 1.34532,0.324659 1.34532,0.721465 0,0.396806 3.12788,2.303388 6.95084,4.236849 3.82297,1.93346 8.19974,4.433981 9.72615,5.556714 1.52642,1.122732 2.99738,2.041331 3.26879,2.041331 0.27142,0 7.03612,3.834174 15.03265,8.520387 7.99654,4.686213 15.00113,8.533814 15.56575,8.550225 0.56462,0.01641 0.0176,0.854278 -1.21562,1.861926 -1.23322,1.007647 -3.0494,2.513404 -4.03598,3.346127 -0.98657,0.83272 -3.20635,2.48895 -4.93285,3.68051 -1.7265,1.19156 -4.98195,3.80925 -7.23433,5.81708 -2.25239,2.00784 -6.03015,5.26501 -8.39506,7.23815 -2.36489,1.97314 -6.0449,5.20192 -8.1778,7.17506 -31.71113,29.335898 -38.47746,36.254058 -41.32267,42.249898 -0.88952,1.87453 -2.09386,3.04268 -3.13691,3.04268 -1.00441,0 -3.00476,1.82577 -4.91783,4.48862 -1.77361,2.46874 -3.71944,4.78943 -4.32407,5.15708 -0.60461,0.36765 -2.73135,2.88824 -4.72607,5.60131 -1.99472,2.71307 -4.48778,5.7017 -5.54015,6.64141 -1.05237,0.9397 -1.91339,2.25507 -1.91339,2.92303 0,0.66796 -1.21079,2.48146 -2.69065,4.02999 -1.47986,1.54852 -2.69065,3.52921 -2.69065,4.4015 0,0.8723 -0.44597,1.73467 -0.99106,1.91637 -1.08527,0.36175 -3.4583,6.50746 -3.47984,9.01217 -0.007,0.86325 -0.41711,1.56954 -0.91039,1.56954 -0.49329,0 -0.89689,0.66026 -0.89689,1.46723 0,1.69272 -6.98067,16.1866 -8.86802,18.41259 -2.39919,2.82965 -3.97725,8.38954 -4.34906,15.32283 -0.32884,6.13205 -0.57601,6.95085 -2.09822,6.95085 -0.94901,0 -1.72547,0.61087 -1.72547,1.35749 0,0.74662 -0.35486,2.05831 -0.78859,2.91487 -0.43371,0.85656 -1.4447,3.57536 -2.24663,6.04179 -1.87709,5.77317 -2.0103,23.99207 -0.21135,28.90632 0.68081,1.8598 1.75998,5.19765 2.39815,7.41743 0.63818,2.21979 1.49374,4.41939 1.90125,4.88801 0.40752,0.46862 0.75377,2.28481 0.76946,4.03598 0.0157,1.75116 0.57988,3.91102 1.25377,4.7997 1.29513,1.70791 0.96075,8.41185 -0.49872,9.99886 -0.43097,0.46862 -0.78358,1.78579 -0.78358,2.92704 0,1.99984 -0.2952,2.83267 -2.55061,7.19557 -0.5703,1.1032 -1.03692,2.93957 -1.03692,4.08081 0,1.14125 -0.41239,2.4874 -0.91643,2.99144 -0.50403,0.50403 -1.54698,3.51083 -2.31766,6.68178 -0.77068,3.17093 -1.99997,7.17793 -2.73176,8.90443 -0.73179,1.7265 -1.67548,3.94628 -2.09709,4.93285 -0.42161,0.98658 -1.44601,3.81176 -2.27642,6.27818 -1.59127,4.72624 -2.53972,7.22139 -4.00583,10.53838 -0.49057,1.10989 -0.99506,3.43057 -1.1211,5.15707 -0.2062,2.82473 0.0178,3.16751 2.23727,3.42288 1.35654,0.15609 2.46643,-0.14661 2.46643,-0.67266 0,-0.52605 0.61806,-0.95645 1.37347,-0.95645 0.75542,0 1.60579,-0.6054 1.88972,-1.34533 0.28395,-0.73992 1.07847,-1.34532 1.76562,-1.34532 0.68715,0 1.24937,-0.39788 1.24937,-0.88416 0,-0.48629 1.71529,-1.98395 3.81175,-3.32815 7.30216,-4.68193 9.0307,-8.33174 4.84836,-10.23734 -1.58457,-0.72198 -2.00006,-1.49378 -1.68668,-3.13312 0.2287,-1.19634 0.77122,-2.39481 1.2056,-2.66327 0.43439,-0.26848 0.7898,-1.85308 0.7898,-3.52135 0,-1.66828 0.40359,-3.28267 0.89688,-3.58754 0.49329,-0.30486 0.89688,-1.71745 0.89688,-3.13909 0,-1.42163 0.40972,-2.838 0.91047,-3.14748 1.19563,-0.73894 3.57395,-6.47622 3.57395,-8.62152 0,-0.92634 0.40359,-1.68424 0.89688,-1.68424 0.49329,0 0.89688,-0.7875 0.89688,-1.75 0,-2.66377 2.56551,-11.93685 3.58434,-12.95568 0.49504,-0.49505 0.90008,-1.55008 0.90008,-2.34452 0,-1.33721 8.42617,-9.85628 9.7488,-9.85628 0.32342,0 1.39013,-1.08486 2.37046,-2.4108 0.98033,-1.32594 3.51649,-4.20749 5.63591,-6.40344 2.11943,-2.19596 4.44429,-5.13511 5.16636,-6.53144 0.72208,-1.39634 2.10322,-2.96179 3.06922,-3.47877 2.4034,-1.28627 6.56322,-8.60614 6.75877,-11.89314 0.088,-1.47964 0.80741,-3.05254 1.59864,-3.49534 1.84536,-1.03271 2.96958,-2.1736 7.35689,-7.46597 1.97314,-2.38019 4.09202,-4.84444 4.70863,-5.47613 0.61661,-0.63169 1.12111,-1.58095 1.12111,-2.10946 0,-0.52853 0.40359,-0.96095 0.89688,-0.96095 0.49328,0 0.89688,-0.54285 0.89688,-1.20631 0,-0.66348 0.85149,-1.97517 1.89221,-2.91487 1.04072,-0.93971 2.73353,-3.52474 3.76179,-5.74453 1.02828,-2.21978 2.11331,-4.23777 2.4112,-4.48441 2.48238,-2.05535 7.18181,-10.38666 7.18181,-12.73216 0,-0.97049 1.37831,-3.44684 3.06292,-5.503 1.68461,-2.05616 4.57586,-6.56365 6.425,-10.01665 4.15791,-7.76424 8.45593,-14.43787 11.47711,-17.82071 1.2642,-1.41554 2.81313,-3.73622 3.44206,-5.15708 0.62893,-1.42085 1.44858,-2.58337 1.82145,-2.58337 0.37287,0 0.67794,-0.6054 0.67794,-1.34533 0,-0.73992 0.4036,-1.34532 0.89689,-1.34532 0.49328,0 0.90971,-0.7063 0.9254,-1.56955 0.0157,-0.86324 0.57333,-2.28767 1.23921,-3.16539 0.66588,-0.87772 1.74529,-4.0056 2.39869,-6.95084 0.65341,-2.94525 1.50835,-5.35499 1.89988,-5.35499 0.39153,0 0.71188,-0.8072 0.71188,-1.79377 0,-0.98657 0.4036,-1.79376 0.89688,-1.79376 0.49329,0 0.89688,-0.51317 0.89688,-1.14036 0,-0.62719 1.60298,-3.55327 3.56218,-6.5024 1.9592,-2.94913 3.57358,-6.43125 3.58753,-7.73804 0.017,-1.59426 1.7221,-4.30092 5.18243,-8.22663 2.83639,-3.21785 6.76154,-8.365658 8.72255,-11.439568 1.961,-3.07391 3.9797,-6.03127 4.48599,-6.57193 0.50629,-0.54065 1.99361,-2.5974 3.30516,-4.57054 1.31155,-1.97314 3.42973,-4.67981 4.70706,-6.01481 1.27733,-1.33501 2.32242,-2.66859 2.32242,-2.96352 0,-0.29492 1.18678,-1.80608 2.6373,-3.35813 l 2.63729,-2.8219 5.65887,2.91609 c 6.03575,3.11031 8.96998,4.78333 9.69484,5.52775 0.24664,0.2533 2.46643,1.44303 4.93286,2.64385 2.46642,1.20081 5.1324,2.71865 5.92439,3.37296 0.79199,0.65431 4.02077,2.50922 7.17506,4.12201 3.1543,1.61279 7.95487,4.36178 10.66794,6.10887 2.71307,1.74711 6.24455,3.74506 7.84772,4.43991 1.60318,0.69485 2.91487,1.50351 2.91487,1.79702 0,0.2935 1.60976,1.30487 3.57725,2.24749 1.96748,0.942598 3.58187,2.016528 3.58753,2.386488 0.006,0.36997 0.73676,0.67267 1.62468,0.67267 0.88791,0 2.0987,0.48431 2.69064,1.07626 0.82497,0.82496 1.07626,25.85015 1.07626,107.17749 0,105.50331 -0.0101,106.10124 -1.79376,106.10124 -0.98657,0 -1.79377,0.40359 -1.79377,0.89688 0,0.49329 -0.42299,0.89688 -0.93997,0.89688 -0.51698,0 -3.03946,1.31725 -5.60551,2.92722 -2.56606,1.60997 -6.88534,4.10069 -9.59841,5.53494 -2.71307,1.43425 -5.13465,2.84129 -5.3813,3.12674 -0.24664,0.28546 -2.26462,1.49806 -4.48441,2.69466 -2.21978,1.19661 -5.65036,3.20206 -7.6235,4.45656 -1.97315,1.2545 -5.20192,3.13419 -7.17507,4.17709 -1.97314,1.04291 -5.00012,2.76285 -6.72662,3.8221 -1.7265,1.05925 -4.65258,2.63439 -6.5024,3.50033 -1.84982,0.86593 -3.36331,1.8828 -3.36331,2.25972 0,0.37692 -0.42299,0.68531 -0.93997,0.68531 -0.51698,0 -3.24126,1.49215 -6.05396,3.3159 -2.81269,1.82374 -8.13426,4.87841 -11.82571,6.78815 -3.69144,1.90975 -6.92022,3.75271 -7.17506,4.09548 -0.25483,0.34278 -2.48133,1.61505 -4.94775,2.82727 -2.46643,1.21221 -5.69521,3.02397 -7.17507,4.02612 -3.92619,2.65879 -5.9008,3.82415 -9.41727,5.55781 -1.7265,0.85119 -3.34088,1.77044 -3.58753,2.04279 -0.80247,0.88609 -3.998,2.7767 -5.60552,3.31646 -0.86324,0.28985 -1.56954,0.88353 -1.56954,1.31928 0,0.43575 -0.80719,0.79228 -1.79377,0.79228 -0.98657,0 -1.79376,0.4036 -1.79376,0.89689 0,0.49328 -0.6682,0.89688 -1.48489,0.89688 -0.81668,0 -2.80774,1.00899 -4.42457,2.24221 -1.61683,1.23321 -3.37021,2.2422 -3.89641,2.2422 -0.5262,0 -0.95672,0.4036 -0.95672,0.89689 0,0.49328 -0.7063,0.90586 -1.56955,0.91682 -0.86325,0.011 -2.57854,0.80919 -3.81175,1.77382 -1.23322,0.96464 -2.49395,1.76285 -2.80164,1.77382 -0.30768,0.011 -5.15085,2.70178 -10.76259,5.97958 -5.61174,3.2778 -11.10811,6.40567 -12.21416,6.95084 -1.10604,0.54517 -2.01414,1.29391 -2.01798,1.66387 -0.004,0.36997 -0.60827,0.67267 -1.34315,0.67267 -0.73489,0 -4.16959,1.81618 -7.63268,4.03597 -6.67617,4.27931 -7.41193,4.47603 -10.44272,2.79192 z m -64.19289,-83.16464 c 0.15109,-0.78454 -0.7454,-2.39429 -1.99219,-3.57723 -1.24679,-1.18294 -2.27386,-2.64446 -2.28239,-3.24783 -0.009,-0.60337 -1.02093,-2.82315 -2.24982,-4.93286 -1.22888,-2.1097 -3.89732,-7.2664 -5.92988,-11.45932 -2.03256,-4.19293 -4.054092,-8.32432 -4.492302,-9.18088 -0.43821,-0.85656 -0.79674,-2.28933 -0.79674,-3.18394 0,-0.8946 -0.48022,-2.10678 -1.06716,-2.69372 -1.67209,-1.67209 -1.53467,-22.50477 0.17028,-25.81509 4.576332,-8.88533 14.924772,-13.92758 31.806482,-15.49761 6.23897,-0.58023 6.24595,-0.58394 6.86942,-3.65145 0.8717,-4.28879 -0.42299,-7.24352 -3.1739,-7.24352 -1.21631,0 -2.46091,0.40359 -2.76578,0.89688 -0.30486,0.49328 -2.72645,0.89688 -5.38129,0.89688 -2.65485,0 -5.07643,0.4036 -5.3813,0.89688 -0.30487,0.49329 -1.71746,0.89689 -3.13909,0.89689 -1.42163,0 -2.83422,0.40359 -3.13909,0.89688 -0.30487,0.49329 -1.39394,0.89688 -2.42017,0.89688 -2.79844,0 -10.503352,4.99896 -15.113382,9.80558 -6.15644,6.41898 -8.02761,11.77946 -8.02761,22.99732 0,5.19569 0.39282,9.4875 0.89688,9.79904 0.49329,0.30486 0.89689,1.71745 0.89689,3.13909 0,1.42163 0.40359,2.83422 0.89688,3.13909 0.49328,0.30486 0.89688,1.33768 0.89688,2.29514 0,0.95745 0.4036,1.74083 0.89688,1.74083 0.49329,0 0.89689,0.95957 0.89689,2.13239 0,1.17281 0.60539,2.63482 1.34532,3.2489 0.73993,0.61409 1.34533,2.0761 1.34533,3.24891 0,1.17282 0.40359,2.13239 0.89688,2.13239 0.49328,0 0.89688,0.7311 0.89688,1.62465 0,0.89356 0.72651,2.40705 1.61447,3.36331 0.88796,0.95627 2.396892,3.15125 3.353202,4.87775 1.78685,3.22595 6.57911,9.62488 9.08469,12.13048 1.70557,1.70555 4.20928,1.39302 4.58784,-0.57271 z m 104.62839,-82.88847 c 1.02131,-0.77249 3.70229,-1.3168 6.48575,-1.3168 5.65047,0 17.14691,-1.65574 19.34026,-2.78542 0.85656,-0.44116 2.17372,-0.80212 2.92704,-0.80212 1.2382,0 2.67919,-0.60094 6.72662,-2.80525 0.73993,-0.40298 2.75791,-1.39039 4.48441,-2.19425 1.7265,-0.80387 4.07907,-1.90927 5.22793,-2.45648 4.11488,-1.95991 12.41656,-11.51327 14.56399,-16.75985 1.59929,-3.90739 1.66963,-21.0507 0.0928,-22.62749 -0.57761,-0.57762 -1.06304,-1.87759 -1.07873,-2.88883 -0.0157,-1.01123 -0.62109,-2.62204 -1.34532,-3.57957 -0.72425,-0.95753 -1.31681,-2.39492 -1.31681,-3.1942 0,-0.79927 -0.80719,-2.31964 -1.79376,-3.37861 -0.98657,-1.05896 -1.79377,-2.14862 -1.79377,-2.42147 0,-1.35611 -8.19783,-12.21633 -14.92489,-19.77199 -8.91682,-10.01515 -11.10149,-10.69949 -13.69331,-4.28936 -1.0403,2.57289 -0.96134,3.15348 0.75705,5.56674 1.05516,1.48184 2.81355,3.41801 3.90753,4.30258 1.09398,0.88458 2.76733,2.81911 3.71856,4.29897 0.95123,1.47985 2.26231,3.2254 2.91351,3.87899 1.53434,1.53995 6.55896,8.84125 6.55896,9.53086 0,0.53392 4.51792,7.72855 5.37768,8.56378 1.53483,1.49101 2.69426,7.9415 2.69426,14.98946 v 8.13549 l -4.18223,4.65165 c -3.87521,4.31016 -7.63578,6.5711 -18.23984,10.96619 -1.23321,0.51113 -2.94302,1.28584 -3.79958,1.72157 -0.85656,0.43573 -2.69292,0.79225 -4.08082,0.79225 -1.38789,0 -2.90686,0.37094 -3.37548,0.82431 -0.46862,0.45338 -3.47542,1.01087 -6.68177,1.23888 -3.20636,0.228 -11.8837,0.90937 -19.28298,1.51414 l -13.45325,1.09959 -2.91486,3.25725 c -1.60318,1.79149 -2.91487,4.16976 -2.91487,5.28504 0,2.0184 0.0633,2.02766 13.67746,1.99927 10.60362,-0.0221 14.06872,-0.32446 15.41843,-1.34532 z M 201.30862,91.334352 c 0.56416,-1.61376 0.57003,-2.74202 0.0163,-3.13909 -1.11653,-0.80068 -3.01274,-3.77281 -3.68566,-5.77693 -0.28986,-0.86325 -0.88354,-1.56954 -1.31929,-1.56954 -0.43575,0 -0.79228,-0.78338 -0.79228,-1.74083 0,-0.95746 -0.359,-1.96272 -0.79779,-2.2339 -0.43878,-0.27118 -1.00662,-1.80849 -1.26187,-3.41624 -0.86159,-5.42695 -2.3243,-10.06476 -3.27419,-10.38139 -1.17285,-0.39095 -1.28854,-15.412304 -0.11871,-15.412304 0.45409,0 1.10772,-1.284391 1.45251,-2.854201 1.31069,-5.967557 3.72258,-9.12809 13.35491,-17.500256 6.14504,-5.341117 4.26963,-8.737094 -2.86066,-5.180037 -4.75662,2.372916 -15.05624,13.463042 -16.21556,17.460132 -0.57268,1.974472 -1.47725,5.106828 -2.01015,6.960792 -0.95058,3.306998 -0.68613,15.533564 0.47025,21.741874 1.83995,9.87827 4.32908,17.04077 5.92205,17.04077 0.47013,0 0.8548,0.61088 0.8548,1.3575 0,0.74662 0.37413,2.05831 0.83141,2.91487 0.45727,0.85656 1.05943,2.28822 1.33812,3.18148 0.39337,1.26089 1.25687,1.56177 3.86088,1.34533 2.75308,-0.22882 3.51202,-0.73026 4.23489,-2.79803 z"
     id="path52" /></svg>
