<?xml version="1.0" encoding="UTF-8" standalone="no"?>
<!-- Created with Inkscape (http://www.inkscape.org/) -->

<svg
   width="512"
   height="128"
   viewBox="0 0 512 128"
   version="1.1"
   id="svg1"
   xml:space="preserve"
   xmlns="http://www.w3.org/2000/svg"
   xmlns:svg="http://www.w3.org/2000/svg"><defs
     id="defs1" /><path
     style="display:inline;fill:#031b54;stroke:none"
     d="M 0,0 V 128 H 512 V 0 H 0 m 81.5,73.196481 8,7.507331 14.66666,13.513197 7.33334,7.131961 H 94 L 87,101.16129 84,98.721408 77.5,92.715543 54,71.319648 v 22.521994 5.255132 L 53.416668,101.16129 48,101.34897 H 34.5 V 24.774194 h 25 c 11.138748,0 21.208466,0.05178 30.5,5.380258 19.94894,11.440237 15.00027,36.542195 -8.5,43.042029 m 46,-48.422287 v 34.90909 c 0,5.219369 -1.46833,11.980154 1.16667,16.891496 5.47452,10.20387 22.99687,13.081882 33.25,4.879765 C 168.2525,76.386123 167,69.845245 167,63.43695 V 24.774194 h 92 v 13.137829 h -26.5 v 51.049854 h 64 c 3.76691,0 8.33215,0.52503 12,-0.125126 5.33109,-0.944969 9.25388,-4.61839 10.33334,-8.508305 1.14261,-4.117371 -3.75305,-9.436229 -8.83334,-10.76051 -3.68961,-0.961774 -8.13974,-0.500487 -12,-0.500487 -10.99649,0 -21.5816,0.314115 -30,-6.005865 -14.99577,-11.257847 -9.44131,-31.157511 10,-37.036165 5.87265,-1.775763 12.78375,-1.251225 19,-1.251225 h 32.5 V 37.16129 h -23 -15 c -2.41684,0 -5.26364,-0.331567 -7.5,0.43793 -10.52136,3.620252 -11.01782,13.540958 -1.5,18.205278 2.93951,1.440548 6.1449,1.25122 9.5,1.25122 5.90485,0 12.12689,-0.428668 18,0 13.69226,0.999376 23.71799,10.370521 25,20.269795 1.29053,9.965119 -7.90826,20.690501 -21,23.147597 -3.60754,0.67709 -7.30331,0.5005 -11,0.5005 h -16.5 -54 V 88.961877 h -19 l 12.5,7.882698 6,4.129035 H 213 V 37.912023 h -26.5 v 27.40176 c 0,7.171211 0.48483,13.771874 -4.08333,20.269795 -14.30412,20.346762 -56.08634,20.265532 -70.33333,0 C 107.05821,78.435621 108,70.53349 108,62.686217 V 24.774194 h 19.5 M 366,100.97361 h -3 V 24.774194 l 2.75,0.437923 0.25,4.817209 V 42.416422 100.97361 M 53.5,39.41349 v 15.014662 c 0,1.304762 -0.78154,4.492366 0.25,5.567936 0.591099,0.616328 1.87891,0.43793 2.75,0.43793 h 7 c 6.440346,0 12.508469,0.121351 16.833336,-4.129033 C 86.350029,50.391919 82.098373,40.187048 71.5,39.41349 c -5.873306,-0.428685 -12.094894,0 -18,0 m 328,19.519061 2,2.627566 c -2.17426,-0.186549 -3.47406,-1.877921 -4,-3.378299 4.65314,-0.275786 2.76562,-3.002932 -1,-3.002932 v 6.381231 h -1 v -7.131965 c 1.67975,0 4.07562,-0.323422 5.5,0.500487 2.28793,1.323429 0.6926,3.527419 -1.5,4.003912 m 12,3.002933 c -1.71994,-0.946888 -2.83444,-3.876106 -5.91666,-2.439883 -1.53909,0.717169 -1.01272,1.886856 -3.08334,2.064516 l 4,-7.131965 c 2.73868,0.222279 5.51721,5.66298 5,7.507332 m 6,-7.507332 c 0,1.717536 0.91949,5.380144 -0.58334,6.756599 -1.79453,1.643586 -4.93085,0.332123 -4.41666,-1.501467 l 3.5,1.1261 0.5,-6.381232 h 1 m 10.5,7.507332 c -1.87115,-0.441492 -1.57721,-1.738064 -3.08334,-2.439883 -2.8078,-1.308347 -4.1933,1.626638 -5.91666,2.439883 l 3.5,-7.507332 c 2.98993,0.242669 4.99301,5.44116 5.5,7.507332 m 6,-1.876833 3.5,-5.630499 1.75,0.43793 -0.25,2.565003 v 4.504399 h -1 v -5.255132 h -0.5 l -3,5.255132 h -1 L 413,56.680352 h -0.5 l -0.5,5.255132 h -0.5 L 411,54.428152 c 3.15857,0.06409 4.15863,3.630327 5,5.630499 m 11.5,-5.630499 4,7.507332 c -1.47803,-0.406857 -1.31958,-1.47564 -2.58334,-2.064516 -3.0289,-1.411382 -4.30042,1.565197 -6.41666,2.064516 l 4,-7.507332 h 1 m 12,5.255132 v -5.255132 h 1 v 7.507332 L 434,56.680352 v 5.255132 h -1 v -7.507332 c 3.0105,0.244336 4.55038,3.666028 6.5,5.255132 M 452,56.680352 c -1.76035,-0.139113 -3.19785,-1.276427 -5,-1.1261 -5.70218,0.475646 -3.008,7.154137 2,5.192569 0.91388,-0.357954 1.38776,-0.843091 2,-1.438903 h -5 v -0.750733 h 6.5 c -0.47913,4.556091 -9.66583,4.510012 -10.33334,0 -0.62354,-4.212902 7.81149,-5.621025 9.83334,-1.876833 m 10.5,5.255132 c -1.63541,-0.385871 -1.59296,-1.470337 -3,-2.064516 -2.93994,-1.241495 -3.90134,1.569344 -6,2.064516 l 3.5,-7.131965 c 3.19675,0.06487 4.97217,4.980847 5.5,7.131965 m 2.5,-7.131965 v 6.381232 c 1.29443,0 3.33389,0.312385 4.33334,-0.43793 2.18366,-1.639336 1.62165,-5.655585 5.16666,-5.943302 l 4,7.131965 c -2.33063,-0.189155 -1.84216,-1.99394 -4,-2.2522 -2.91757,-0.349179 -2.40414,1.111838 -4.16666,2.064517 -1.35247,0.731047 -5.19391,0.187683 -6.83334,0.187683 v -7.131965 h 1.5 m -76,1.1261 -1,2.627566 h 2.5 L 389,55.929619 m 16,0.375366 -1,2.2522 h 2.5 l -0.5,-2.2522 h -1 m 22,0 -1.5,2.2522 h 3 l -1.5,-2.2522 m 30.5,0 -1,2.2522 h 3 l -2,-2.2522 m 16,0 -1,2.627566 h 2.5 l -1.5,-2.627566 m -95,8.633431 c 1.50867,2.689969 -0.95569,6.506965 1.66666,9.008798 1.65744,1.58127 4.42993,0.466883 5.16668,-1.1261 0.96543,-2.087346 0.16666,-5.302339 0.16666,-7.507331 h 2 c 0,2.001306 0.037,4.004783 0,6.005865 -0.0554,2.992308 -3.66174,6.597737 -8,4.379279 -3.06729,-1.56852 -2,-5.346803 -2,-7.757578 0,-1.239896 -0.28125,-2.219174 1,-3.002933 m 21.5,8.258065 v -7.882698 h 1.5 v 10.88563 L 397.83334,73.947214 392.5,67.565982 H 392 l -0.5,8.633431 h -1 L 390,65.313783 c 4.88983,0 6.98822,5.427832 10,7.882698 m 6.5,-7.882698 v 10.88563 h -2 v -10.88563 h 2 m 4,0 4,8.258065 h 0.5 c 1.13193,-2.306561 2.79819,-8.182953 6.5,-8.258065 L 417.08334,73.571848 414.5,76.13685 412.41666,73.571848 408,65.313783 h 2.5 m 20.5,0 v 1.1261 h -6 v 3.753665 h 6 v 1.1261 h -6 l 0.25,3.002933 5.75,0.750733 v 1.126099 h -8 v -10.88563 h 8 m 9,6.756598 3,4.129032 c -3.07474,-0.06075 -6.18701,-3.022893 -6.5,-5.255131 1.8382,0 4.54517,-0.05129 4.91666,-1.876833 0.29474,-1.44832 -3.23709,-3.039332 -4.91666,-2.439883 -1.34631,0.480503 -0.98358,1.927396 -1,2.815249 -0.0415,2.242783 -0.5,4.470829 -0.5,6.756598 h -1.5 v -10.88563 c 2.56104,0 6.27084,-0.457335 8.41666,0.875853 2.9237,1.816487 1.53491,5.335228 -1.91666,5.880745 m 13,-3.753665 c -2.06812,-0.04197 -4.86813,-3.280105 -6.25,-0.375367 -0.43732,0.91928 0.83151,1.440931 1.75,1.751713 1.92703,0.652028 4.11581,0.864896 4.5,2.752686 1.01477,4.986328 -7.72208,5.307809 -9,0.750733 l 0.5,-0.375367 c 1.56894,0.350177 1.75125,1.107548 3,1.81427 1.56161,0.883786 4.26727,-0.356047 3.58334,-1.81427 -1.19265,-2.542854 -7.63131,-1.393133 -6.41668,-5.255132 0.66604,-2.117743 4.4468,-3.109907 6.83334,-1.751712 1.05988,0.603189 1.27673,1.592593 1.5,2.502446 m 4,-3.002933 v 10.88563 h -2 v -7.882697 c 0,-1.544739 -0.41943,-2.806567 2,-3.002933 m 15,5.630499 h 1 c 0.53033,-1.891158 2.20761,-5.403862 5,-5.630499 l -4.33334,7.131965 -0.16666,3.753665 h -2 l -0.16666,-3.753665 -3.83334,-6.005865 -4,0.375366 v 9.384164 h -2 v -9.384164 h -3 v -1.501466 h 7 l 2.91666,0.187683 L 472,70.944282 m -91.5,8.695994 c 5.72006,-0.894629 8.73584,5.073743 3,6.568909 -5.75827,1.501019 -8.72733,-5.673147 -3,-6.568909 m 12,-0.06256 v 0.750733 H 389 v 2.252199 h 3.5 v 0.750733 H 389 v 3.002933 h -1 v -6.756598 h 4.5 m 10,0.375366 v 0.375367 h -2 l -0.5,6.005865 h -0.5 L 399,80.328446 h -2 c 1.23389,-1.136851 3.77679,-0.920071 5.5,-0.375367 m 5.5,-0.375366 v 0.750733 c -2.52386,0 -3.92538,0.123866 -4,2.252199 h 4 v 0.375367 c -0.89197,0.281949 -2.18182,0.19451 -3,0.56305 -3.09412,1.393712 1.73334,2.064516 3,2.064516 v 0.750733 h -5 v -6.756598 h 5 m 9.5,1.876832 c -1.67862,-0.132652 -3.30496,-1.223005 -5,-0.688175 -3.03241,0.956813 -2.52423,3.99835 0.5,4.692082 1.57333,0.36091 3.05911,-0.71631 4.5,-1.000974 -1.16406,2.939413 -7.07523,2.344861 -8.33334,-0.375367 -1.86115,-4.024044 5.65295,-6.011793 8.33334,-2.627566 m 2.5,-1.876832 v 3.002932 c 2.95627,0 4.41272,-0.138242 4.5,-2.627566 h 1 v 6.381232 H 424 v -3.002933 h -4 v 3.002933 h -1 v -6.756598 h 1 m 20,0.12512 c 5.73264,0 6.23822,6.645127 0.5,6.944287 -6.23471,0.325044 -6.7926,-6.944287 -0.5,-6.944287 m -7,4.754645 v -4.504399 h 1 v 6.381232 l -6,-4.879766 v 4.879766 h -1 v -6.381232 c 2.94302,0.232571 4.12454,2.975738 6,4.504399 m 14,-4.504399 v 5.630499 h 3.5 v 0.750733 H 446 v -6.381232 h 1 m 7.5,0.06256 c 5.97171,-0.933989 8.3739,5.2215 2.5,6.568915 -5.68784,1.304745 -8.46732,-5.635607 -2.5,-6.568915 m 15.5,1.814276 c -1.1875,-0.234604 -2.28394,-0.974781 -3.5,-1.063542 -5.68246,-0.41475 -3.94693,6.654113 1,4.692082 0.79526,-0.31541 1.08771,-0.85579 1.5,-1.376341 h -4.5 v -0.375366 l 6,-0.375367 c -0.14548,4.149732 -8.45898,4.553176 -9,0.375367 -0.47314,-3.653759 7.05939,-5.514611 8.5,-1.876833 m 2,-1.876833 3,3.378299 3,-3.378299 -2.33334,4.129032 L 475,86.709677 h -0.5 L 473.83334,84.082111 472,79.953079 m -91.5,0.56305 c -4.52045,1.720732 -0.38519,6.708933 3.5,4.566956 3.26917,-1.802345 0.13181,-5.949413 -3.5,-4.566956 m 58,0.312809 c -4.53586,1.309705 -0.64893,6.318995 3.5,4.566956 3.77521,-1.594219 0.34552,-5.677333 -3.5,-4.566956 m 16,0 c -4.30103,1.136948 -1.314,6.198245 3,4.629514 3.96692,-1.442512 0.93567,-5.669882 -3,-4.629514 m -68,11.511238 c -2.06186,-0.167339 -1.77408,-1.405861 -3.5,-1.93939 -1.6557,-0.511822 -4.04791,1.169166 -2.83334,2.377314 2.21554,2.203846 7.01837,1.066807 6.83334,4.817208 -0.0236,0.478269 -0.22546,1.07053 -0.5,1.501466 -2.29749,3.606416 -8.87939,1.562946 -9,-1.876833 2.17947,0.176893 2.08401,1.668462 4,2.127074 1.84244,0.441017 4.133,-1.076189 3.25,-2.50244 -1.60687,-2.595446 -8.61807,-1.667591 -6.58334,-6.005865 0.89358,-1.905202 4.69967,-2.552683 6.83334,-1.376341 1.31445,0.724673 1.46075,1.75834 1.5,2.877807 m 9,4.129032 3.5,4.129032 c -3.26862,-0.0646 -5.88181,-3.128413 -7,-5.255131 1.23129,0 2.37961,9.16e-4 3.5,-0.437924 4.66,-1.825262 -0.38519,-5.855733 -4,-4.254159 -1.30634,0.57879 -1,1.854868 -1,2.81525 v 7.131964 H 389 V 88.961877 c 2.58472,0 6.25446,-0.272447 8.5,0.875859 3.75494,1.920157 2.04272,5.99252 -2,6.631472 m 16.5,1.876833 c 2.59644,-1.429424 4.83124,-6.623912 5.5,-9.008798 h 2 c -0.30688,2.918193 -2.95798,6.346557 -4.58334,9.008798 -0.51252,0.839466 -1.43979,3.015799 -3.25,2.064519 -0.97559,-0.512695 -1.32727,-2.027347 -1.75,-2.815252 -1.47498,-2.749158 -3.22754,-5.431119 -4.41666,-8.258065 l 2.33334,0.375367 1.25,2.252199 L 412,98.346041 m -8.5,-9.008798 v 11.260997 h -2 L 402,89.337243 h 1.5 m 20,0 -0.5,11.636367 h -1 l -0.5,-11.636367 h 2 m 10,0 v 7.131965 c 0,0.899343 0.30817,2.176515 -0.25,3.002933 -2.00894,2.974459 -7.64478,1.500119 -7.75,-1.501467 l 4,1.751707 2.41666,-2.127073 L 432,89.337243 h 1.5 m 17,11.636367 c -3.65237,-0.0722 -2.34259,-3.375782 -5.5,-3.753669 -1.3945,-0.166892 -4.32294,-0.282326 -5.41666,0.437924 -1.9534,1.286394 -0.88748,3.250905 -4.08334,3.315745 0.88889,-3.169747 3.28711,-6.442056 5.08334,-9.384167 0.5568,-0.911989 1.12308,-2.586969 2.91666,-2.189642 1.17108,0.259427 1.65317,1.814928 2.08334,2.565008 1.69562,2.956551 3.62921,5.948131 4.91666,9.008801 m 6,-5.630501 h 1 c 0.56393,-2.01102 2.48431,-5.761112 5.5,-6.005866 L 458.16666,96.844575 458,100.97361 h -2 L 455.83334,96.844575 451,89.337243 c 3.06958,0.06228 4.92532,3.956585 5.5,6.005866 m 22,5.630501 c -3.77063,-0.0745 -2.32642,-3.373846 -5.5,-3.753669 -1.35059,-0.161634 -4.38016,-0.296164 -5.41666,0.437924 -1.86834,1.323234 -0.90765,3.251305 -4.08334,3.315745 l 5.16666,-9.384167 2.83334,-2.064516 2.16666,2.815249 4.83334,8.633434 m -36,-9.384167 -2,4.129032 h 5 l -2,-4.129032 h -1 m 28,0 -2,4.504399 h 5 z"
     id="path52" /><path
     style="display:inline;fill:#f7a809;fill-opacity:1;stroke-width:0.353553"
     d="m 232.63813,95.121351 v -5.84912 h 37.40238 c 40.82629,0 39.45407,0.06437 43.30448,-2.031295 2.42135,-1.317856 4.69891,-3.958267 5.4387,-6.305147 0.57116,-1.811933 0.57061,-2.023022 -0.0101,-3.865131 -1.16914,-3.708948 -5.43266,-7.061748 -10.10725,-7.948265 -1.0332,-0.195943 -6.51465,-0.356258 -12.181,-0.356258 -14.14971,0 -18.59408,-0.653802 -24.60282,-3.61927 -4.17879,-2.062341 -8.61611,-6.404436 -10.405,-10.181718 -1.78054,-3.759634 -2.24385,-7.095501 -1.49657,-10.775401 1.76398,-8.686453 8.78455,-15.385771 19.14941,-18.273147 2.77295,-0.772471 3.29132,-0.790279 26.42812,-0.90794 l 23.59969,-0.120015 v 6.018722 6.018721 l -22.36225,0.09851 -22.36226,0.09851 -2.37756,1.126298 c -7.93318,3.758102 -8.73198,11.548492 -1.68869,16.469149 3.26299,2.279623 3.99169,2.379995 17.30029,2.38299 14.14644,0.0032 16.57255,0.281154 22.06104,2.527636 7.09772,2.905153 13.27215,9.561601 14.70638,15.85447 0.60082,2.636144 0.45344,6.16724 -0.3583,8.584824 -2.50473,7.459754 -9.32901,13.309143 -18.53046,15.88327 l -2.82843,0.791256 -40.03992,0.11374 -40.03992,0.11374 z"
     id="path54" /><path
     style="display:inline;fill:#f7a809;fill-opacity:1;stroke-width:0.125"
     d="m 381.0625,100.64477 c -1.54093,-0.51342 -2.50789,-1.261878 -3.06148,-2.369718 -0.57142,-1.143517 -0.12924,-1.145746 1.45263,-0.0073 1.43669,1.033947 1.90078,1.212203 2.97351,1.142126 1.47199,-0.09616 2.42716,-0.753746 2.53586,-1.745825 0.0465,-0.424684 -0.004,-0.631211 -0.23621,-0.973558 -0.49188,-0.72389 -0.97625,-0.979871 -4.12344,-2.179167 -1.41118,-0.537754 -1.92782,-0.858327 -2.31914,-1.439018 -0.7775,-1.153721 0.1525,-3.00901 1.82846,-3.647681 1.00361,-0.382455 2.77107,-0.464516 3.83017,-0.17783 1.42807,0.386562 2.12233,1.117156 2.36395,2.487684 0.0849,0.481475 0.0832,0.483933 -0.26695,0.398641 -0.3573,-0.08702 -0.65496,-0.273514 -1.9465,-1.219547 -0.63644,-0.466178 -0.81317,-0.532745 -1.53668,-0.578816 -1.04062,-0.06626 -1.76128,0.196343 -2.36123,0.860423 -0.50575,0.559804 -0.55003,0.881791 -0.20015,1.455604 0.34961,0.573389 1.26124,1.044889 3.45568,1.787311 1.05727,0.357691 2.14022,0.80821 2.40657,1.001152 1.73077,1.253759 1.08609,3.902373 -1.22259,5.022989 -0.69402,0.33687 -2.78814,0.44388 -3.57246,0.18255 z"
     id="path59" /><path
     id="path60"
     style="display:inline;fill:#f7a809;fill-opacity:1;stroke-width:0.125"
     d="m 391,88.996094 c -0.23353,0.0039 -0.45458,0.01345 -0.65625,0.02539 L 389,89.099609 v 0.121094 5.611328 0.05859 5.671879 h 0.76172 0.73828 0.0215 l -0.041,-4.476566 c -0.0375,-4.097759 -0.021,-4.504285 0.17969,-4.810547 0.30782,-0.469788 0.65925,-0.671297 1.58398,-0.908203 1.31177,-0.33606 2.85668,-0.03935 4.03516,0.777343 0.53872,0.373338 0.8709,0.786541 1.01367,1.263672 0.0276,0.138992 0.0475,0.288037 0.0586,0.462891 0.008,0.132659 0.0152,0.236779 0.0176,0.330078 -0.0199,0.374586 -0.11583,0.515204 -0.52539,0.921875 -0.6959,0.690999 -1.67955,1.050795 -3.36523,1.232422 l -1.336,0.144535 0.58203,0.875 c 1.18134,1.779937 3.21593,3.451947 4.71289,3.87109 1.6275,0.45571 1.64169,0.55286 -0.24609,-1.669918 -0.93948,-1.106211 -1.67181,-2.067219 -1.62891,-2.136719 0.043,-0.0695 0.2029,-0.126953 0.35547,-0.126953 0.48957,0 2.00203,-0.827914 2.54492,-1.392578 2.0627,-2.145433 0.8636,-4.762698 -2.54297,-5.552734 C 394.91295,89.133654 392.63468,88.969129 391,88.996094 Z" /><path
     style="display:inline;fill:#f7a809;fill-opacity:1;stroke-width:0.125"
     d="m 401.68701,99.53125 c 0.0349,-0.567187 0.11965,-2.578125 0.18831,-4.46875 0.0687,-1.890625 0.15891,-3.929687 0.20053,-4.53125 l 0.0757,-1.09375 H 402.82577 403.5 V 95 v 5.5625 h -0.93823 -0.93823 z"
     id="path62" /><path
     style="display:inline;fill:#f7a809;fill-opacity:1;stroke-width:0.125"
     d="m 411.67357,100.3244 c -0.5044,-0.30757 -0.84001,-0.789372 -1.29556,-1.859891 -0.20328,-0.47769 -1.11176,-2.183873 -2.01886,-3.791518 -1.55518,-2.756259 -2.76964,-5.116666 -2.67914,-5.207162 0.0501,-0.05013 2.06046,0.291948 2.11588,0.360034 0.28897,0.354997 1.57807,2.937656 2.7074,5.424137 0.78063,1.71875 1.43525,3.146947 1.45471,3.17377 0.11832,0.163115 1.52164,-1.146784 2.2228,-2.074832 0.91161,-1.206594 2.44351,-4.182012 3.02725,-5.879863 l 0.35445,-1.030925 0.90625,-3.25e-4 c 1.05659,-3.79e-4 1.05407,-0.0052 0.65922,1.273138 -0.34856,1.128508 -1.25686,2.858695 -2.64535,5.039037 -0.65673,1.03125 -1.51581,2.395808 -1.90908,3.03235 -1.04489,1.69125 -1.90514,2.14868 -2.89997,1.54205 z"
     id="path63" /><path
     style="display:inline;fill:#f7a809;fill-opacity:1;stroke-width:0.125"
     d="m 421.83495,95.71875 c -0.11917,-2.870312 -0.21516,-5.457812 -0.21331,-5.75 l 0.003,-0.53125 h 0.875 0.875 l 0.003,0.53125 c 0.002,0.292188 -0.0941,2.879688 -0.21331,5.75 l -0.21666,5.21875 H 422.5 422.05161 Z"
     id="path64" /><path
     style="display:inline;fill:#f7a809;fill-opacity:1;stroke-width:0.125"
     d="m 428.68232,100.89577 c -0.93826,-0.2393 -1.73297,-0.66333 -2.2932,-1.223565 -0.47099,-0.470984 -0.87593,-1.289561 -0.7167,-1.448786 0.0398,-0.03978 0.92137,0.299931 1.95909,0.754918 l 1.88677,0.827248 1.24086,-1.088299 L 432,97.628986 V 93.533243 89.4375 h 0.75 0.75 v 4.629015 c 0,5.085556 -0.002,5.104176 -0.76263,5.864387 -0.89944,0.899438 -2.66472,1.319478 -4.05505,0.964868 z"
     id="path65" /><path
     style="display:inline;fill:#f7a809;fill-opacity:1;stroke-width:0.125"
     d="m 435.625,100.82569 c 0,-0.27349 0.79077,-2.120449 1.39144,-3.249898 0.34345,-0.645814 1.31636,-2.277064 2.16201,-3.625 0.84566,-1.347935 1.68903,-2.714331 1.87418,-3.036435 0.18514,-0.322104 0.55858,-0.786167 0.82986,-1.03125 0.41303,-0.373153 0.58564,-0.445607 1.06158,-0.445607 1.00979,0 1.53171,0.466146 2.36157,2.109242 0.1866,0.369458 1.00959,1.818239 1.82886,3.219513 1.27167,2.175031 3.2405,5.888955 3.2405,6.112745 0,0.12319 -0.92289,-0.0929 -1.375,-0.32195 -0.54965,-0.27847 -0.92932,-0.694271 -1.67252,-1.831635 -0.49203,-0.753002 -0.70026,-0.954601 -1.27791,-1.237216 -0.62493,-0.305752 -0.85772,-0.343322 -2.46551,-0.397905 -3.26961,-0.111 -4.32255,0.272852 -5.23849,1.909706 -0.77166,1.379 -1.07973,1.62872 -2.31432,1.876 -0.25273,0.0506 -0.40625,0.0316 -0.40625,-0.0503 z m 9.875,-5.130576 c 0,-0.06456 -0.43062,-1.020813 -0.95694,-2.125 L 443.58611,91.5625 H 443 442.41389 l -0.95695,2.007614 c -0.52631,1.104187 -0.95694,2.060437 -0.95694,2.125 0,0.06927 1.02476,0.117386 2.5,0.117386 1.47524,0 2.5,-0.04812 2.5,-0.117386 z"
     id="path66" /><path
     style="display:inline;fill:#f7a809;fill-opacity:1;stroke-width:0.125"
     d="m 455.96486,98.864246 -0.0735,-2.073254 -2.33543,-3.620328 c -1.28448,-1.991181 -2.30227,-3.653478 -2.26175,-3.693995 0.14784,-0.147844 1.16076,0.238052 1.83083,0.697503 0.37813,0.25927 0.959,0.804271 1.29084,1.211114 0.63519,0.778759 1.77248,2.952047 1.91117,3.652125 0.0792,0.399839 0.0986,0.41127 0.63556,0.375 l 0.55386,-0.03741 0.36752,-0.9165 c 0.65212,-1.626194 1.66957,-3.138408 2.65476,-3.945695 0.7622,-0.624561 2.21129,-1.27727 2.21129,-0.996021 0,0.04361 -1.0443,1.698142 -2.32067,3.676746 l -2.32068,3.597462 -0.0735,2.073254 -0.0735,2.073253 H 457 456.03836 Z"
     id="path67" /><path
     style="display:inline;fill:#f7a809;fill-opacity:1;stroke-width:0.125"
     d="m 464.1704,99.913928 c 0.31177,-0.571411 1.46449,-2.668225 2.56159,-4.659588 l 1.99473,-3.620661 1.34158,-0.973089 c 0.73787,-0.535199 1.37593,-0.970651 1.41789,-0.967669 0.042,0.003 0.53743,0.613772 1.10101,1.357314 0.68674,0.906013 1.80766,2.748241 3.39861,5.585558 1.30564,2.328514 2.35743,4.250137 2.33729,4.270277 -0.0201,0.0201 -0.32323,-0.0249 -0.67353,-0.1 -0.87806,-0.18831 -1.50381,-0.68461 -2.05428,-1.629289 -0.60991,-1.04671 -1.00799,-1.462518 -1.70867,-1.784774 -0.51817,-0.23832 -0.79948,-0.264198 -2.88662,-0.26554 -2.59456,-0.0017 -2.99411,0.08049 -3.76101,0.773333 -0.26309,0.237682 -0.73194,0.871821 -1.0419,1.4092 -0.60315,1.04568 -1.0532,1.37801 -2.11407,1.56109 l -0.47948,0.0827 z M 473.5,96.061914 c 0,-0.161263 -2.88801,-4.499414 -2.99536,-4.499414 -0.0925,0 -2.00464,4.281539 -2.00464,4.48868 0,0.09388 0.77826,0.13632 2.5,0.13632 1.59112,0 2.5,-0.04566 2.5,-0.125586 z"
     id="path68" /><path
     style="fill:#ffffff;fill-opacity:1;stroke-width:0.707107"
     d="M 34.648232,62.953027 V 25.102291 h 17.938599 c 25.306609,0 33.728975,1.768552 41.940375,8.80676 8.180644,7.011844 9.609354,19.012908 3.340399,28.059018 -2.418581,3.490013 -8.605002,8.02039 -13.162611,9.63911 -1.863243,0.661765 -3.387714,1.409654 -3.387714,1.661976 0,0.252321 5.329817,5.395463 11.844038,11.429205 6.514222,6.033741 12.940602,12.116572 14.280852,13.5174 l 2.4368,2.54696 H 98.412499 86.946026 L 70.519848,85.768255 54.093669,70.773793 l -0.353554,14.817685 -0.353553,14.817682 -9.369165,0.19731 -9.369165,0.19729 z m 43.131111,-4.301395 c 6.954972,-4.085672 7.435898,-12.11667 1.018975,-17.015896 -2.654595,-2.026745 -2.731416,-2.038968 -14.217163,-2.26212 L 53.033009,39.149252 V 49.865566 60.581879 L 64.16994,60.342978 c 9.695028,-0.207971 11.457044,-0.42695 13.609403,-1.691346 z"
     id="path69" /><path
     style="fill:#ffffff;fill-opacity:1;stroke-width:0.707107"
     d="m 140.54077,100.0429 c -5.75623,-0.696229 -13.17905,-3.029165 -17.49385,-5.498174 -4.23201,-2.421638 -9.64841,-7.566383 -11.66694,-11.081798 -2.8113,-4.89608 -3.19264,-8.999435 -3.19264,-34.353811 V 25.102291 h 9.60531 9.60532 l -0.19705,24.57196 c -0.21804,27.18879 -0.31353,26.520059 4.43739,31.076478 4.1063,3.938201 8.53766,5.474146 15.79345,5.474146 6.98894,0 10.70205,-1.203869 15.05142,-4.879985 4.76832,-4.030216 4.7245,-3.753839 4.96563,-31.317085 l 0.21805,-24.925514 h 45.56711 45.56711 v 6.363961 6.363961 h -13.43503 -13.43503 v 25.455844 25.455844 h -9.19238 -9.19239 V 63.286057 37.830213 h -13.74876 -13.74876 l -0.2166,20.32932 c -0.25047,23.508053 -0.40345,24.173449 -7.07617,30.77885 -8.5388,8.45265 -23.70489,12.859597 -38.21519,11.104517 z"
     id="path70" /><path
     style="fill:#ffffff;fill-opacity:1;stroke-width:0.707107"
     d="m 213.54625,95.129159 v -5.633558 l 6.89429,4.326593 c 11.79113,7.399656 11.67957,6.940526 1.68635,6.940526 h -8.58064 z"
     id="path71" /><path
     style="fill:#ffffff;fill-opacity:1;stroke-width:0.0441942"
     d="M 363.01094,66.644814 V 34.670329 h 1.48051 1.4805 v 31.974485 31.974485 h -1.4805 -1.48051 z"
     id="path72" /><path
     style="fill:#ffffff;fill-opacity:1;stroke-width:0.125"
     d="m 377.5,58 v -3.5625 h 1.73294 c 0.95312,0 2.03593,0.05675 2.40625,0.126118 2.45432,0.459717 3.14428,2.317577 1.34478,3.621127 -0.28837,0.208894 -0.74023,0.444498 -1.00414,0.523567 -0.26391,0.07907 -0.47983,0.195016 -0.47983,0.257663 0,0.06265 0.35625,0.574056 0.79166,1.136464 1.0845,1.400817 1.07517,1.379897 0.56773,1.272525 -1.11865,-0.236701 -2.30731,-1.224656 -2.91407,-2.422032 -0.17618,-0.347666 -0.32032,-0.654371 -0.32032,-0.681566 0,-0.02719 0.31353,-0.08629 0.69672,-0.131332 1.29508,-0.152211 1.92828,-0.5669 1.92828,-1.262851 0,-0.779162 -1.21434,-1.495386 -2.82863,-1.668346 L 378.5,55.110119 v 3.226191 3.22619 h -0.5 -0.5 z"
     id="path73" /><path
     style="fill:#ffffff;fill-opacity:1;stroke-width:0.125"
     d="m 392.15026,60.717411 c -0.70799,-0.635079 -1.45963,-1.243831 -1.67032,-1.352783 -0.62208,-0.321693 -1.60241,-0.364992 -2.43468,-0.107535 -0.61023,0.188771 -0.86926,0.368611 -1.54903,1.075464 -0.73752,0.766899 -1.51643,1.251412 -1.7064,1.061444 -0.0398,-0.03982 0.7735,-1.579139 1.80738,-3.420703 1.38475,-2.466561 1.94611,-3.358485 2.13168,-3.386984 0.97629,-0.149928 3.11919,2.095964 4.08623,4.282624 0.39612,0.8957 0.70775,2.127877 0.66055,2.611839 l -0.0382,0.391322 z M 390.5,58.487515 c 0,-0.150538 -1.40408,-2.550015 -1.49217,-2.550015 -0.0849,0 -1.01234,2.326188 -1.00924,2.53125 7.7e-4,0.05156 0.56391,0.09375 1.25141,0.09375 0.6875,0 1.25,-0.03374 1.25,-0.07498 z"
     id="path74" /><path
     style="fill:#ffffff;fill-opacity:1;stroke-width:0.125"
     d="M 395.62601,61.538987 C 395.01365,61.223817 394.5,60.570374 394.5,60.106515 c 0,-0.161708 0.0422,-0.292938 0.0937,-0.291622 0.0516,0.0013 0.79688,0.226308 1.65625,0.499982 0.85938,0.273674 1.62209,0.497597 1.69492,0.497607 0.0836,1.2e-5 0.21858,-1.173966 0.36636,-3.187482 l 0.23395,-3.1875 h 0.45397 0.45397 l 0.15508,2.15625 c 0.21776,3.027871 -0.008,4.010342 -1.09601,4.779219 -0.44562,0.314783 -0.66815,0.379368 -1.42637,0.413987 -0.74548,0.03404 -0.99393,-0.0082 -1.45986,-0.247969 z"
     id="path75" /><path
     style="fill:#ffffff;fill-opacity:1;stroke-width:0.125"
     d="m 409.23458,61.53061 c -0.24911,-0.154336 -0.73774,-0.625432 -1.08584,-1.04688 -0.8006,-0.969281 -1.52197,-1.34408 -2.58037,-1.34067 -0.98409,0.0032 -1.66281,0.351924 -3.11533,1.600789 -0.6102,0.524647 -1.13269,0.930667 -1.16109,0.902266 -0.0284,-0.0284 0.67967,-1.61977 1.57349,-3.536376 1.24107,-2.661207 1.68289,-3.493859 1.86952,-3.523329 0.78409,-0.123815 2.41492,1.330635 3.42466,3.054281 0.81193,1.385972 1.89703,4.172988 1.62401,4.171169 -0.0529,-3.52e-4 -0.29995,-0.126915 -0.54905,-0.28125 z m -2.7397,-3.18686 c -0.003,-0.120312 -0.10303,-0.640625 -0.2227,-1.15625 l -0.21757,-0.9375 -0.52967,-0.03855 -0.52967,-0.03855 -0.49763,1.082249 C 404.22394,57.85038 404,58.388041 404,58.449946 c 0,0.06191 0.5625,0.112554 1.25,0.112554 1.1091,0 1.24942,-0.02466 1.24488,-0.21875 z"
     id="path76" /><path
     style="fill:#ffffff;fill-opacity:1;stroke-width:0.125"
     d="m 411.33468,58.53125 c -0.28664,-4.516925 -0.31907,-4.091754 0.30143,-3.952338 1.65979,0.372931 2.95365,1.934253 4.05217,4.889838 0.12138,0.326563 0.26085,0.59375 0.30994,0.59375 0.0491,0 0.84301,-1.215979 1.76427,-2.702175 0.92125,-1.486196 1.73744,-2.726688 1.81374,-2.756649 0.0763,-0.02996 0.44192,0.02234 0.8125,0.11623 l 0.67377,0.170704 -0.005,0.648445 c -0.003,0.356645 -0.0167,1.942195 -0.0312,3.523445 L 421,61.9375 h -0.5 -0.5 v -2.696194 -2.696194 l -0.27825,0.03994 c -0.21801,0.0313 -0.60368,0.614233 -1.78125,2.692339 l -1.503,2.652394 -0.4375,3.53e-4 -0.4375,3.53e-4 -1.25604,-2.652747 c -1.132,-2.390783 -1.2863,-2.652748 -1.5625,-2.652748 h -0.30646 l -0.24396,2.65625 c -0.20629,2.246067 -0.27475,2.65625 -0.44333,2.65625 -0.17232,0 -0.22869,-0.462056 -0.41553,-3.40625 z"
     id="path77" /><path
     style="fill:#ffffff;fill-opacity:1;stroke-width:0.125"
     d="m 424.6084,58.126915 1.9541,-3.685585 H 427 h 0.4375 l 1.9541,3.685585 c 1.07475,2.027072 1.89511,3.685585 1.82302,3.685585 -0.0721,0 -0.56511,-0.445847 -1.09559,-0.990772 -0.80119,-0.823012 -1.07667,-1.024083 -1.62695,-1.1875 -1.29997,-0.38605 -2.0654,-0.22664 -3.43125,0.714604 -1.18528,0.816809 -2.21143,1.463668 -2.3219,1.463668 -0.0465,0 0.79472,-1.658513 1.86947,-3.685585 z m 3.8916,0.371858 c 0,-0.125055 -1.4142,-2.186273 -1.5,-2.186273 -0.0858,0 -1.5,2.061218 -1.5,2.186273 0,0.03505 0.675,0.06373 1.5,0.06373 0.825,0 1.5,-0.02868 1.5,-0.06373 z"
     id="path78" /><path
     style="fill:#ffffff;fill-opacity:1;stroke-width:0.125"
     d="m 433,58.200787 v -3.736713 l 0.51111,0.114838 c 1.26443,0.284099 2.26643,1.072316 4.16886,3.27941 0.79547,0.922855 1.53039,1.710187 1.63317,1.749626 0.16215,0.06222 0.18686,-0.274846 0.18686,-2.549371 V 54.4375 h 0.5 0.5 v 3.706874 c 0,3.51881 -0.0111,3.697313 -0.21875,3.51843 -0.73629,-0.634286 -6.15749,-4.975304 -6.21332,-4.975304 -0.0374,0 -0.0679,1.18125 -0.0679,2.625 v 2.625 h -0.5 -0.5 z"
     id="path79" /><path
     style="fill:#ffffff;fill-opacity:1;stroke-width:0.125"
     d="m 446.32188,61.810879 c -2.00706,-0.355076 -3.43674,-1.321322 -3.93989,-2.662766 -0.20197,-0.538461 -0.15236,-1.591338 0.10122,-2.148113 0.76946,-1.689512 3.75319,-2.789194 6.27183,-2.311543 0.92812,0.176013 1.9732,0.680077 2.52621,1.218444 0.82657,0.80468 0.58613,0.847233 -1.21875,0.215695 -1.732,-0.606039 -2.57739,-0.73873 -3.56525,-0.559597 -0.85626,0.15527 -1.80495,0.578817 -2.14873,0.959315 -0.83932,0.928958 -0.77534,2.395092 0.15041,3.446806 1.11793,1.270032 3.02543,1.54266 4.84062,0.691841 C 449.89522,60.400504 451,59.496238 451,59.301877 451,59.236521 449.92853,59.1875 448.5,59.1875 H 446 V 58.875 58.5625 h 3.20313 3.20312 l -0.0795,0.397673 c -0.22402,1.120089 -1.31238,2.140387 -2.7648,2.591911 -0.91923,0.285765 -2.41312,0.405088 -3.24004,0.258795 z"
     id="path80" /><path
     style="fill:#ffffff;fill-opacity:1;stroke-width:0.125"
     d="m 455.34758,58.331391 1.7023,-3.481109 0.48617,0.109234 c 0.26739,0.06008 0.69877,0.2177 0.95863,0.350271 0.72096,0.367805 1.87786,1.71997 2.53007,2.957109 0.56598,1.07355 1.42824,3.384281 1.30781,3.504711 -0.1228,0.122805 -0.91258,-0.392731 -1.58672,-1.035751 -0.87671,-0.836238 -1.64013,-1.185292 -2.60243,-1.189895 -0.93018,-0.0044 -1.46941,0.226119 -2.63813,1.128044 -0.82457,0.636333 -1.61914,1.138495 -1.80144,1.138495 -0.0322,0 0.70747,-1.566499 1.64374,-3.481109 z M 459.5,58.487059 c 0,-0.113217 -1.89169,-2.174559 -1.99559,-2.174559 -0.088,0 -1.00743,1.971738 -1.00543,2.15625 5.6e-4,0.05156 0.67602,0.09375 1.50102,0.09375 0.825,0 1.5,-0.03395 1.5,-0.07544 z"
     id="path81" /><path
     style="fill:#ffffff;fill-opacity:1;stroke-width:0.125"
     d="M 464.71875,61.975734 463.5,61.928447 V 58.370474 54.8125 h 0.74789 0.74789 l 0.0334,3.21875 0.0334,3.21875 1.75,-0.0077 c 1.54634,-0.0068 1.81111,-0.03946 2.27505,-0.280626 0.71862,-0.373544 1.28726,-1.165553 1.97752,-2.754283 0.91939,-2.116119 1.68522,-2.980273 2.87492,-3.244 l 0.50248,-0.111389 1.91933,3.423015 c 1.05564,1.882657 1.88798,3.454376 1.84964,3.492708 -0.18107,0.181071 -1.00763,-0.286242 -1.608,-0.909113 -0.84916,-0.880985 -1.41625,-1.169962 -2.46916,-1.258234 -1.19173,-0.09991 -1.65526,0.08908 -2.70131,1.10139 -1.22852,1.188897 -1.48292,1.27884 -3.68297,1.302096 -0.99687,0.01054 -2.36094,-0.0021 -3.03125,-0.02813 z M 475,58.862515 c 0,-0.150538 -1.40408,-2.550015 -1.49217,-2.550015 -0.0849,0 -1.01234,2.326188 -1.00924,2.53125 7.7e-4,0.05156 0.56391,0.09375 1.25141,0.09375 0.6875,0 1.25,-0.03374 1.25,-0.07498 z"
     id="path82" /><path
     style="fill:#ffffff;fill-opacity:1;stroke-width:0.125"
     d="m 461.5,71.5 v -4.6875 h -1.5 -1.5 v -0.767781 -0.767782 l 4.40625,0.08354 c 2.42344,0.04595 4.64798,0.116361 4.94342,0.156475 l 0.53718,0.07294 1.80601,2.74352 1.80602,2.743521 0.51438,-0.03847 c 0.5054,-0.03779 0.51936,-0.05171 0.79844,-0.796022 0.87877,-2.34368 2.26939,-4.058331 3.75,-4.623781 0.31288,-0.11949 0.60202,-0.184109 0.64253,-0.143597 0.0405,0.04051 -0.84519,1.58082 -1.96823,3.422908 -2.2734,3.728964 -2.20517,3.544771 -2.22545,6.008277 L 473.5,76.1875 h -1 -1 l -0.0106,-1.28125 c -0.0202,-2.453372 0.0301,-2.316562 -2.04295,-5.5625 -1.45689,-2.281204 -1.91284,-2.906611 -2.12003,-2.907928 -0.14519,-9.23e-4 -1.06553,0.06567 -2.04522,0.147976 L 463.5,66.733453 v 4.727024 4.727023 h -1 -1 z"
     id="path83" /><path
     style="fill:#ffffff;fill-opacity:1;stroke-width:0.125"
     d="m 461.5,71.5 v -4.6875 h -1.5 -1.5 v -0.767781 -0.767782 l 4.40625,0.08354 c 2.42344,0.04595 4.64932,0.116489 4.9464,0.156759 l 0.54014,0.07322 1.7983,2.736022 c 1.74176,2.650016 1.81123,2.735962 2.20985,2.734108 0.54948,-0.0026 0.63521,-0.07935 0.90493,-0.810586 0.59692,-1.618325 1.61408,-3.170797 2.57527,-3.930575 0.61067,-0.482706 1.68538,-0.982077 1.82121,-0.846241 0.0395,0.03948 -0.74438,1.418371 -1.74191,3.064209 -2.52996,4.174214 -2.35089,3.742423 -2.43014,5.859763 l -0.067,1.790344 H 472.5 471.53672 l -0.0678,-1.810447 c -0.0642,-1.715383 -0.0873,-1.845018 -0.43935,-2.468851 -0.61475,-1.089289 -3.26752,-5.180069 -3.46592,-5.34472 -0.14593,-0.121117 -0.59184,-0.119687 -2.12419,0.0068 L 463.5,66.730408 v 4.728546 4.728546 h -1 -1 z"
     id="path84" /><path
     style="fill:#ffffff;fill-opacity:1;stroke-width:0.125"
     d="m 455,71.495985 c 0,-5.077391 0.0291,-5.326072 0.6723,-5.747518 0.175,-0.114663 0.54532,-0.238945 0.82294,-0.276181 L 457,65.404583 v 5.391459 5.391458 h -1 -1 z"
     id="path85" /><path
     style="fill:#ffffff;fill-opacity:1;stroke-width:0.125"
     d="m 447.22471,76.07115 c -1.35888,-0.434488 -2.44958,-1.298207 -2.94118,-2.329114 -0.18904,-0.39643 -0.18985,-0.451789 -0.009,-0.632464 0.31132,-0.311326 0.87765,-0.108979 1.95214,0.69749 1.33444,1.001583 1.6267,1.130907 2.54854,1.127693 0.94016,-0.0033 1.65554,-0.292614 2.13638,-0.864058 0.37697,-0.447999 0.4256,-0.853356 0.16296,-1.358154 -0.40331,-0.775145 -1.0953,-1.16527 -3.26188,-1.838957 -1.83141,-0.569467 -2.28523,-0.79216 -2.79308,-1.370571 -0.33019,-0.376057 -0.39442,-0.5511 -0.39442,-1.074844 0,-1.134574 0.71666,-2.073664 2.0625,-2.702653 0.69087,-0.322884 0.86826,-0.350518 2.25,-0.350518 1.39821,0 1.5496,0.02433 2.23091,0.358579 0.54434,0.267051 0.82266,0.503263 1.09038,0.925405 0.40272,0.635028 0.68191,1.379482 0.56223,1.499164 -0.12477,0.124771 -0.90209,-0.14327 -2.32102,-0.800352 C 449.37805,66.838241 449.07554,66.75 448.41632,66.75 c -0.65007,0 -0.8237,0.04908 -1.10563,0.3125 -0.18394,0.171875 -0.41347,0.464394 -0.51007,0.650043 -0.5299,1.018466 0.002,1.483838 2.68762,2.350007 2.24893,0.725416 2.90283,1.108307 3.26858,1.913913 0.3067,0.675542 0.30998,1.739382 0.007,2.405513 -0.71574,1.575765 -3.36636,2.384021 -5.53953,1.689174 z"
     id="path86" /><path
     style="fill:#ffffff;fill-opacity:1;stroke-width:0.125"
     d="m 433.5,70.75 v -5.4375 l 2.59375,0.0044 c 3.68043,0.0062 5.12811,0.320058 6.32557,1.371443 1.32892,1.166812 1.30021,2.957124 -0.0672,4.192536 -0.53034,0.479128 -1.68121,1.05666 -2.10564,1.05666 -0.13554,0 -0.24644,0.06082 -0.24644,0.13516 0,0.07434 0.62189,0.9884 1.38198,2.03125 1.28994,1.769818 1.36177,1.898621 1.07859,1.93409 -0.41794,0.05235 -1.76878,-0.417377 -2.52307,-0.877343 -1.42815,-0.870884 -2.6853,-2.24193 -3.13471,-3.418699 -0.27629,-0.723439 -0.18365,-0.799902 0.97231,-0.802544 2.09846,-0.0048 3.45782,-0.679941 3.67244,-1.823978 0.28146,-1.50031 -3.14767,-3.208323 -5.0119,-2.496369 -0.87994,0.336054 -0.96583,0.600427 -1.07798,3.318433 -0.0525,1.271875 -0.154,2.790625 -0.22559,3.375 -0.0716,0.584375 -0.1306,1.470313 -0.13112,1.96875 L 435,76.1875 h -0.75 -0.75 z"
     id="path87" /><path
     style="fill:#ffffff;fill-opacity:1;stroke-width:0.125"
     d="m 423,70.75 v -5.4375 h 4 4 v 0.5625 0.5625 h -3 -3 v 1.9375 1.9375 h 3 3 v 0.5 0.5 h -3 -3 l 0.0155,0.65625 c 0.009,0.360938 0.0507,1.05 0.0937,1.53125 l 0.0782,0.875 2.875,0.375 2.875,0.375 0.0384,0.53125 0.0384,0.53125 H 427.00719 423 Z"
     id="path88" /><path
     style="fill:#ffffff;fill-opacity:1;stroke-width:0.125"
     d="m 413.45456,74.735153 c -0.78975,-0.975246 -1.38503,-1.971131 -3.15161,-5.272522 -1.19787,-2.238596 -2.17795,-4.088164 -2.17795,-4.110152 0,-0.02199 0.52031,-0.03834 1.15625,-0.03633 l 1.15625,0.0037 2.00622,4.152598 c 1.81379,3.7543 2.03519,4.152598 2.30827,4.152598 0.26928,0 0.39163,-0.203427 1.12773,-1.875 1.06841,-2.426211 1.40931,-3.087847 2.06096,-4 0.96078,-1.34486 1.95899,-2.105797 2.97972,-2.271438 l 0.44692,-0.07253 -2.12827,3.984483 -2.12828,3.984482 -1.2719,1.28125 c -0.69955,0.704688 -1.30312,1.28125 -1.34128,1.28125 -0.0382,0 -0.50752,-0.541056 -1.04303,-1.202347 z"
     id="path89" /><path
     style="fill:#ffffff;fill-opacity:1;stroke-width:0.125"
     d="m 404.5,70.75 v -5.4375 h 1 1 v 5.4375 5.4375 h -1 -1 z"
     id="path90" /><path
     style="fill:#ffffff;fill-opacity:1;stroke-width:0.125"
     d="m 390.33536,71.28125 c -0.11939,-2.698437 -0.21556,-5.125 -0.21371,-5.392361 l 0.003,-0.486111 0.7712,0.06993 c 1.11028,0.100676 2.57032,0.855795 3.73238,1.930346 0.50376,0.465821 1.58869,1.662571 2.41097,2.659446 1.54511,1.873196 2.69174,3.125 2.86243,3.125 0.0539,0 0.098,-1.771875 0.098,-3.9375 v -3.9375 h 0.75 0.75 v 5.382377 c 0,2.960308 -0.0422,5.359445 -0.0937,5.331417 -0.0516,-0.02803 -0.86502,-0.51739 -1.80768,-1.08747 l -1.71393,-1.036509 -2.63954,-3.169907 C 392.97075,68.001061 392.55812,67.5625 392.26267,67.5625 h -0.3429 l -0.23137,4.3125 -0.23137,4.3125 h -0.45229 -0.4523 z"
     id="path91" /><path
     style="fill:#ffffff;fill-opacity:1;stroke-width:0.125"
     d="m 380.76308,76.114685 c -1.5206,-0.408912 -2.51755,-1.241874 -3.04276,-2.542266 -0.27005,-0.668627 -0.28021,-0.826431 -0.24612,-3.822419 0.0196,-1.71875 0.0887,-3.324554 0.15369,-3.568453 0.12027,-0.451508 0.79568,-1.224783 0.90448,-1.035547 0.32754,0.569643 0.39852,1.283742 0.40172,4.0415 0.003,2.71911 0.023,2.979792 0.26662,3.506351 0.89259,1.929094 2.69382,2.572189 4.58992,1.638742 1.91747,-0.943968 2.25651,-2.251479 1.90943,-7.363843 l -0.11245,-1.65625 h 0.96819 0.96818 l -0.0501,3.34375 c -0.0461,3.079077 -0.0717,3.397943 -0.32327,4.028398 -1.08315,2.714605 -3.74086,4.141769 -6.38754,3.430037 z"
     id="path92" /><path
     style="fill:#ffffff;fill-opacity:1;stroke-width:0.125"
     d="m 380.53576,86.138196 c -2.26271,-0.73739 -3.58796,-2.93363 -2.79878,-4.638196 0.46873,-1.012405 1.44303,-1.593352 3.04615,-1.816325 1.89334,-0.263339 3.67518,0.313573 4.81273,1.558237 1.65521,1.811061 0.94258,3.858572 -1.65836,4.76475 -0.82192,0.28636 -2.70341,0.359111 -3.40174,0.131534 z m 2.70693,-0.68878 c 1.42193,-0.442553 2.13104,-1.227775 2.13184,-2.360646 7.8e-4,-1.09538 -0.57218,-1.927945 -1.74953,-2.542268 -0.46061,-0.240339 -0.75495,-0.293774 -1.625,-0.295002 -0.933,-0.0013 -1.16318,0.0462 -1.88857,0.389908 -1.05904,0.501797 -1.50893,1.061781 -1.58443,1.972163 -0.0622,0.750583 0.14165,1.262355 0.76824,1.928344 0.9738,1.035014 2.44848,1.374035 3.94745,0.907501 z"
     id="path93" /><path
     style="fill:#ffffff;fill-opacity:1;stroke-width:0.125"
     d="m 388,83 v -3.3125 h 2.25 2.25 V 80 80.3125 H 390.75 389 V 81.5 82.6875 h 1.75 1.75 V 83 83.3125 H 390.75 389 v 1.5 1.5 h -0.5 -0.5 z"
     id="path94" /><path
     style="fill:#ffffff;fill-opacity:1;stroke-width:0.125"
     d="m 399.31288,83.317364 -0.23169,-2.995136 -0.94685,-0.03687 -0.94684,-0.03687 0.625,-0.311167 c 0.55985,-0.278732 0.76833,-0.309596 2,-0.29609 1.41312,0.0155 2.56645,0.239049 2.65704,0.515021 0.0383,0.116675 -0.21481,0.15625 -0.99934,0.15625 h -1.05063 l -0.23207,3 c -0.20156,2.605594 -0.25907,3 -0.4375,3 -0.17842,0 -0.2359,-0.393901 -0.43712,-2.995136 z"
     id="path95" /><path
     style="fill:#ffffff;fill-opacity:1;stroke-width:0.125"
     d="m 403,83 v -3.3125 h 2.5 2.5 v 0.296115 c 0,0.288737 -0.0323,0.297551 -1.29581,0.353746 -0.98835,0.04396 -1.39606,0.116179 -1.71832,0.304393 C 404.40081,80.983447 404,81.61939 404,82.205986 V 82.6875 h 2 c 1.25,0 2,0.04687 2,0.125 0,0.06875 -0.0422,0.126784 -0.0937,0.128964 -0.0516,0.0022 -0.6371,0.08167 -1.30119,0.176648 -1.40484,0.200915 -2.24325,0.532539 -2.55701,1.0114 -0.22029,0.336202 -0.21887,0.343977 0.11466,0.630874 0.46417,0.399259 1.04481,0.548472 3.43104,0.88171 0.33254,0.04645 0.4062,0.112365 0.4062,0.363568 V 86.3125 h -2.5 -2.5 z"
     id="path96" /><path
     style="fill:#ffffff;fill-opacity:1;stroke-width:0.125"
     d="m 412.15807,86.126641 c -1.43036,-0.400162 -2.55955,-1.244403 -2.96447,-2.216376 -0.21683,-0.520491 -0.25364,-1.423566 -0.077,-1.888241 0.20416,-0.536976 0.90198,-1.21537 1.62254,-1.577374 2.02262,-1.016144 4.61074,-0.788998 6.19833,0.543997 0.33396,0.280403 0.34694,0.315354 0.11858,0.319358 -0.14103,0.0025 -0.73165,-0.137254 -1.3125,-0.310502 -2.02462,-0.603883 -3.30881,-0.529374 -4.37,0.253548 -1.59518,1.176881 -1.09922,3.288147 0.95276,4.05589 1.05167,0.393482 1.87067,0.336778 3.53898,-0.245026 0.78531,-0.273864 1.45062,-0.475145 1.47847,-0.447291 0.13668,0.136676 -0.92448,1.07753 -1.50108,1.330904 -0.83382,0.3664 -2.69529,0.457898 -3.68464,0.181113 z"
     id="path97" /><path
     style="fill:#ffffff;fill-opacity:1;stroke-width:0.125"
     d="m 419,83 v -3.3125 h 0.5 0.5 v 1.516141 1.516141 l 1.03125,-0.08286 c 1.67876,-0.134895 2.07946,-0.21455 2.49182,-0.495357 0.58193,-0.396276 0.87173,-0.857245 0.94443,-1.50228 0.0648,-0.575147 0.0664,-0.57678 0.54876,-0.57678 H 425.5 v 3.125 3.125 H 424.75 424 v -1.5 -1.5 h -2 -2 v 1.5 1.5 h -0.5 -0.5 z"
     id="path98" /><path
     style="fill:#ffffff;fill-opacity:1;stroke-width:0.125"
     d="m 427,83.171524 v -3.140976 l 0.52361,0.08373 c 0.28798,0.04605 0.8628,0.264177 1.27737,0.484726 0.71948,0.382758 0.98258,0.629546 3.42599,3.213498 l 0.76831,0.8125 0.002,-2.28125 L 433,80.0625 h 0.5 0.5 v 3.077806 c 0,2.444487 -0.0322,3.052505 -0.15625,2.954851 -0.0859,-0.06763 -1.42187,-1.150334 -2.96875,-2.406018 l -2.8125,-2.283064 -0.0339,2.453213 -0.0339,2.453212 H 427.49736 427 Z"
     id="path99" /><path
     style="fill:#ffffff;fill-opacity:1;stroke-width:0.125"
     d="m 438.28757,86.302884 c -3.21018,-1.017293 -3.59774,-4.697472 -0.6386,-6.063797 C 438.38673,79.898444 438.53811,79.875 440,79.875 c 1.42887,0 1.62288,0.02831 2.2685,0.330995 1.407,0.659654 2.16938,1.751828 2.16844,3.106505 -10e-4,1.448741 -0.88062,2.490909 -2.53321,3.001343 -1.05864,0.326978 -2.56417,0.322416 -3.61616,-0.01096 z m 3.36074,-0.737369 c 0.99562,-0.307514 1.79753,-0.960813 1.96897,-1.604063 0.47881,-1.796574 -1.8436,-3.606887 -4.29808,-3.350343 -0.92675,0.09686 -2.19457,0.674426 -2.53388,1.154318 -0.57223,0.809327 -0.45805,1.841796 0.29599,2.676428 1.1438,1.266055 2.79259,1.671721 4.567,1.12366 z"
     id="path100" /><path
     style="fill:#ffffff;fill-opacity:1;stroke-width:0.125"
     d="m 446,83.1875 v -3.125 h 0.5 0.5 v 2.8125 2.8125 h 1.75 1.75 V 86 86.3125 H 448.25 446 Z"
     id="path101" /><path
     style="fill:#ffffff;fill-opacity:1;stroke-width:0.125"
     d="m 454.46824,86.559769 c -2.33054,-0.588887 -3.7807,-2.809363 -2.98247,-4.566745 0.641,-1.411228 2.92203,-2.273126 5.10146,-1.927605 3.48438,0.552407 4.90079,3.68935 2.48862,5.511596 -1.10186,0.83239 -3.32561,1.306692 -4.60761,0.982754 z m 3.48309,-1.244749 c 0.98101,-0.482949 1.42367,-1.057566 1.42367,-1.848051 0,-0.765242 -0.25432,-1.276995 -0.93032,-1.872039 -0.76932,-0.67718 -1.62081,-0.962209 -2.81968,-0.943866 -2.54034,0.03887 -3.91258,1.619147 -2.96387,3.413193 0.87647,1.657431 3.30015,2.230462 5.2902,1.250763 z"
     id="path102" /><path
     style="fill:#ffffff;fill-opacity:1;stroke-width:0.125"
     d="m 464.25411,86.362391 c -1.73211,-0.465496 -2.96621,-2.000251 -2.68699,-3.341601 0.59998,-2.882209 5.9373,-4.182783 7.87505,-1.918956 0.23721,0.277129 0.40782,0.527341 0.37914,0.556029 -0.0287,0.02869 -0.74226,-0.185207 -1.58572,-0.47532 -1.42624,-0.490566 -1.60127,-0.522837 -2.50113,-0.46116 -1.67251,0.114637 -2.662,0.879837 -2.81568,2.177462 -0.0571,0.481845 -0.0128,0.760145 0.19603,1.23222 0.35595,0.804699 0.57518,1.034326 1.32269,1.385431 1.27973,0.601086 3.07328,0.305351 4.01317,-0.661722 C 468.7528,84.543904 469,84.238469 469,84.176028 c 0,-0.06383 -0.98491,-0.113528 -2.25,-0.113528 -1.38753,0 -2.25,-0.047 -2.25,-0.122618 0,-0.180421 0.3267,-0.222415 2.875,-0.369555 3.10374,-0.17921 3,-0.183434 3,0.122153 0,0.358727 -0.41039,1.121318 -0.82838,1.539311 -1.15215,1.152147 -3.41422,1.635378 -5.29251,1.1306 z"
     id="path103" /><path
     style="fill:#ffffff;fill-opacity:1;stroke-width:0.125"
     d="m 474.26162,85.46875 c -0.16684,-0.707015 -0.62283,-1.975879 -1.08601,-3.021934 -0.43912,-0.991751 -0.78027,-1.821321 -0.7581,-1.843489 0.0222,-0.02217 0.59823,0.602474 1.28015,1.388094 0.68191,0.78562 1.26797,1.428466 1.30234,1.428545 0.0344,8e-5 0.56754,-0.583093 1.18481,-1.295939 0.61726,-0.712846 1.13837,-1.280011 1.15802,-1.260367 0.0196,0.01964 -0.37539,0.769509 -0.87785,1.666366 -0.75005,1.338794 -0.96694,1.856777 -1.21181,2.894062 -0.40169,1.701584 -0.59847,1.710448 -0.99155,0.04466 z"
     id="path104" /></svg>
