<?xml version="1.0" encoding="UTF-8" standalone="no"?>
<!-- Created with Inkscape (http://www.inkscape.org/) -->

<svg
   width="108.54769"
   height="91.909279"
   viewBox="0 0 28.719909 24.317663"
   version="1.1"
   id="svg1"
   xml:space="preserve"
   xmlns="http://www.w3.org/2000/svg"
   xmlns:svg="http://www.w3.org/2000/svg"><defs
     id="defs1" /><path
     style="fill:#000000"
     d="M 4.0403414,24.147086 C 3.4205737,24.055104 3.3978569,24.010938 3.2679927,22.645476 L 3.1341931,21.238635 H 2.0766012 c -0.5816755,0 -1.11621665,-0.11284 -1.18786915,-0.250756 -0.071652,-0.137916 0.1061544,-0.656608 0.39512635,-1.152649 0.2889719,-0.496041 0.74549,-1.147851 1.0144846,-1.448468 0.2689946,-0.300617 0.4890811,-0.622717 0.4890811,-0.715779 0,-0.09306 -0.3135852,-0.239186 -0.696856,-0.324719 -0.4440713,-0.0991 -0.6968561,-0.290053 -0.6968561,-0.526398 0,-0.203985 0.3732012,-0.901137 0.8293359,-1.549226 l 0.8293359,-1.178344 0.093738,-3.668832 c 0.08857,-3.4665901 0.1169373,-3.6791201 0.5146008,-3.8554861 0.2314747,-0.102661 1.4064167,-0.416308 2.6109822,-0.696994 1.2045654,-0.280686 2.893071,-0.739161 3.7522352,-1.0188323 1.387448,-0.4516365 1.618127,-0.6091789 2.063045,-1.4089565 0.275511,-0.4952545 0.669306,-0.9640347 0.875099,-1.0417338 0.205793,-0.077699 0.452101,-0.083975 0.547352,-0.013946 0.09525,0.070029 0.880016,0.2783932 1.743922,0.4630315 0.863906,0.1846383 2.556292,0.5663424 3.760857,0.8482313 1.204566,0.2818889 2.996481,0.7103629 3.982035,0.9521646 0.985553,0.2418016 2.048336,0.5576532 2.361739,0.7018912 0.419949,0.193274 0.543698,0.381092 0.470496,0.714088 -0.07323,0.333105 0.05541,0.52808 0.489521,0.741986 0.470863,0.232014 0.56639,0.396592 0.476764,0.821389 -0.08638,0.409434 -0.0097,0.564563 0.334368,0.676581 0.245548,0.07994 0.623408,0.307096 0.839688,0.504793 0.336333,0.307434 0.356708,0.429031 0.140798,0.840302 -0.217581,0.4144541 -0.192874,0.5382301 0.178923,0.8963701 l 0.431363,0.415517 -1.083668,1.407026 c -0.596016,0.773864 -1.659851,2.41829 -2.364075,3.654279 -0.704225,1.23599 -1.88518,3.00697 -2.624345,3.935512 -1.332212,1.673529 -1.343937,1.699899 -1.343937,3.022622 v 1.334365 l -8.312497,-0.0379 C 8.4195138,24.258914 4.3915438,24.199214 4.0403418,24.147091 Z m 14.9738736,-0.664372 1.19461,-0.136315 -0.06459,-1.869743 c -0.06278,-1.817244 -0.07675,-1.863616 -0.497754,-1.651491 -0.23824,0.120039 -1.239526,0.479367 -2.22508,0.798506 -0.985553,0.319139 -2.015905,0.567663 -2.28967,0.552275 -0.273764,-0.01539 -1.752095,0.257225 -3.285178,0.605805 -1.533083,0.34858 -3.2855942,0.742016 -3.8944692,0.874302 -0.6088742,0.132286 -1.3786554,0.240521 -1.7106245,0.240521 -0.5278246,0 -0.6296397,-0.111477 -0.8112074,-0.888182 -0.1141949,-0.4885 -0.3731894,-1.605711 -0.5755433,-2.482691 -0.202354,-0.87698 -0.4814869,-1.646353 -0.6202952,-1.709717 -0.1932372,-0.08821 -0.2523789,0.431136 -0.2523789,2.216237 0,1.282294 0.051463,2.637866 0.1143616,3.012383 l 0.1143616,0.680939 6.8044233,-0.05326 c 3.742433,-0.02929 7.341998,-0.114599 7.999034,-0.189572 z M 9.2789688,21.704688 C 10.69114,21.43995 12.249734,21.124847 12.742511,21.004457 13.235287,20.884068 13.728064,20.77308 13.83757,20.757818 13.947076,20.742558 13.364704,20.527405 12.543409,20.279706 11.722114,20.032008 9.8414328,19.506945 8.3641178,19.1129 6.8868027,18.718855 5.6294969,18.396455 5.570105,18.396455 c -0.059392,0 0.1189693,0.852303 0.396358,1.894007 0.2773887,1.041704 0.5584732,1.894358 0.6246323,1.894787 0.066159,4.29e-4 1.2757025,-0.215824 2.6878735,-0.480561 z M 3.1856276,19.409572 c 0,-1.011012 -0.02577,-1.073615 -0.2681205,-0.651333 -0.1474662,0.256952 -0.426558,0.760285 -0.6202038,1.118518 L 1.9452199,20.52809 h 0.6202038 c 0.6066511,0 0.6202039,-0.02444 0.6202039,-1.118518 z m 12.6246004,0.0625 c 0.203965,-0.450544 0.721919,-1.223262 1.151009,-1.717151 0.429089,-0.493889 1.335049,-1.697343 2.013244,-2.674342 0.678194,-0.977 1.412557,-2.036454 1.631916,-2.354344 0.219359,-0.317889 0.718895,-1.010671 1.11008,-1.539514 0.391184,-0.528844 0.971517,-1.3878611 1.289628,-1.9089271 0.318112,-0.521066 0.916408,-1.415372 1.329549,-1.987345 0.41314,-0.571973 0.751164,-1.127419 0.751164,-1.234325 0,-0.106905 -0.335984,-0.299685 -0.746632,-0.4284 C 23.929539,5.4990079 22.249618,5.0785479 20.607029,4.6933679 18.96444,4.3081878 16.644017,3.7700131 15.450533,3.4974242 13.695598,3.0966008 13.219837,3.0583857 12.963063,3.29762 12.788438,3.4603167 12.48141,3.8336518 12.280779,4.1272536 12.080148,4.4208554 10.463817,6.3926179 8.6889318,8.5089479 6.9140474,10.625279 4.7590036,13.293472 3.8999457,14.438267 c -0.8590579,1.144795 -1.5280048,2.114617 -1.4865488,2.155159 0.041456,0.04054 0.8369387,0.308728 1.7677393,0.595967 0.9308006,0.28724 2.4539288,0.744886 3.3847294,1.016993 0.9308002,0.272107 2.8123124,0.839053 4.1811364,1.259881 1.368824,0.420828 2.759583,0.778604 3.090576,0.795058 0.493977,0.02456 0.66825,-0.116857 0.97265,-0.789253 z M 11.348799,16.712276 C 10.965528,16.591074 9.7559848,16.211844 8.6609248,15.869543 7.5658656,15.527241 6.4459184,15.101293 6.1721535,14.922992 c -0.4527942,-0.294902 -0.38985,-0.311459 0.696856,-0.183305 0.6570357,0.07748 1.5977913,0.285333 2.0905683,0.461887 0.492777,0.176553 1.4335322,0.452328 2.0905682,0.612833 0.657036,0.160506 1.305619,0.392877 1.441295,0.516381 0.135677,0.123504 0.197586,0.319058 0.137576,0.434565 -0.06001,0.115506 -0.215816,0.200399 -0.346236,0.188651 -0.130419,-0.01175 -0.550712,-0.120526 -0.933982,-0.241728 z m 3.730827,-1.652221 C 14.886709,14.926424 14.080347,14.665244 13.287711,14.479656 12.495074,14.294067 11.174585,13.969391 10.35329,13.758153 9.5319948,13.546915 8.4617088,13.258735 7.9748758,13.117753 7.4880431,12.976771 7.205612,12.81547 7.3472513,12.759306 c 0.1416393,-0.05616 0.7863455,0.01682 1.4326805,0.162184 0.646335,0.145366 1.7351282,0.382673 2.4195402,0.527351 0.684412,0.144677 1.886606,0.517713 2.671542,0.828969 0.784935,0.311256 1.563611,0.565919 1.730389,0.565919 0.166779,0 0.358608,0.106582 0.426286,0.236849 0.06768,0.130266 -0.03903,0.233607 -0.237127,0.229646 -0.198098,-0.004 -0.518019,-0.116537 -0.710936,-0.250169 z M 13.79746,12.487296 C 12.242315,11.999828 10.541438,11.406325 10.017733,11.168402 9.4940268,10.930479 9.1813728,10.689885 9.3229448,10.633747 c 0.141572,-0.05614 0.9464912,0.08159 1.7887092,0.306073 0.842218,0.224477 2.539258,0.775965 3.7712,1.22553 1.231942,0.449564 2.239895,0.916367 2.239895,1.037339 0,0.120973 -0.111995,0.208917 -0.248877,0.195432 -0.136883,-0.01348 -1.521268,-0.423356 -3.076412,-0.910825 z m 2.827534,-1.43171 c -0.328517,-0.102811 -0.955688,-0.350845 -1.393712,-0.551188 -0.677139,-0.309708 -0.720199,-0.366758 -0.287537,-0.380947 0.279879,-0.0092 1.063842,0.206259 1.74214,0.478752 0.678299,0.272492 1.233271,0.538946 1.233271,0.59212 0,0.05318 -0.156793,0.08577 -0.348428,0.07244 -0.191636,-0.01333 -0.617216,-0.108363 -0.945734,-0.211174 z M 12.842062,9.8845969 c -0.438024,-0.08958 -1.132392,-0.310815 -1.543039,-0.491631 -0.410647,-0.180817 -0.746631,-0.395469 -0.746631,-0.477005 0,-0.08154 0.291186,-0.104993 0.64708,-0.05213 0.355895,0.05287 1.207055,0.309552 1.891467,0.570411 0.684412,0.260858 1.244386,0.518889 1.244386,0.5734011 0,0.05451 -0.156793,0.08577 -0.348429,0.06947 -0.191635,-0.01631 -0.706811,-0.1029391 -1.144834,-0.1925201 z m 5.574848,-0.710266 c -0.219012,-0.105523 -0.846521,-0.265032 -1.394465,-0.354464 -0.547943,-0.08943 -1.216355,-0.360096 -1.485358,-0.601474 -0.479758,-0.43049 -0.460735,-0.432039 0.996261,-0.08116 0.816947,0.196742 1.570474,0.453916 1.674505,0.571499 0.104031,0.117583 0.345131,0.213786 0.535779,0.213786 0.190648,0 0.402006,0.106582 0.469685,0.236849 0.06768,0.130266 0.0058,0.230092 -0.137576,0.221835 -0.143345,-0.0083 -0.439819,-0.10135 -0.658831,-0.206873 z m -5.634727,-1.669689 c -0.361452,-0.101832 -0.712369,-0.250795 -0.779816,-0.331029 -0.06745,-0.08023 -0.06503,-0.214394 0.0054,-0.298135 0.07039,-0.08374 0.641569,-0.02956 1.269276,0.120402 0.627707,0.149961 1.230134,0.378348 1.338726,0.507527 0.130518,0.155263 -0.03538,0.226654 -0.489461,0.210627 -0.377796,-0.01333 -0.982634,-0.107561 -1.344085,-0.209392 z m 7.174707,-0.491129 c -0.467082,-0.109543 -0.944706,-0.269355 -1.061386,-0.355139 -0.116681,-0.08578 -0.720076,-0.300429 -1.340879,-0.476989 -0.620803,-0.176561 -1.364832,-0.324816 -1.653398,-0.329456 -0.288567,-0.0046 -0.982934,-0.1845 -1.543039,-0.399689 -0.560105,-0.215188 -1.018372,-0.4816426 -1.018372,-0.5921207 0,-0.1104782 0.122722,-0.2008694 0.272715,-0.2008694 0.149993,0 0.835942,0.2140408 1.52433,0.4756461 0.688388,0.261605 2.376016,0.741836 3.750285,1.06718 1.374269,0.325344 2.587751,0.697503 2.696627,0.82702 0.131207,0.156082 0.03347,0.226736 -0.289843,0.209535 -0.26829,-0.01427 -0.869958,-0.115576 -1.33704,-0.225118 z m 4.468485,8.6591861 c 0.619978,-1.042133 1.658635,-2.54799 2.308128,-3.346349 0.649493,-0.79836 1.092122,-1.51683 0.98362,-1.596601 -0.108502,-0.07977 -1.483873,1.469469 -3.05638,3.442756 -2.45712,3.083358 -2.850442,3.681335 -2.797497,4.2531 0.05045,0.544801 -0.03069,0.692863 -0.447979,0.81745 -0.280272,0.08368 -0.509585,0.185165 -0.509585,0.225522 0,0.04036 0.06098,0.262415 0.13551,0.49346 0.112547,0.348898 0.315256,0.181605 1.19623,-0.987234 0.583396,-0.774025 1.567975,-2.259972 2.187953,-3.302104 z m -4.861376,3.365948 c 0.846454,-0.386251 1.116382,-0.616592 1.029924,-0.878875 -0.06444,-0.195491 -0.259009,-0.899243 -0.432373,-1.563894 l -0.315206,-1.208456 -0.524795,0.734759 c -0.288637,0.404118 -0.991208,1.442901 -1.561268,2.308408 l -1.036473,1.573649 0.846551,-0.221078 c 0.465603,-0.121592 1.362741,-0.456623 1.99364,-0.744513 z m 4.988296,-6.045902 c 3.134728,-3.7344961 3.142634,-3.7466151 2.626396,-4.0264221 -0.284788,-0.154358 -0.588544,-0.280651 -0.675014,-0.280651 -0.08647,0 -1.256004,1.5461341 -2.598964,3.4358531 -1.342961,1.88972 -2.570771,3.521749 -2.728468,3.626732 -0.169529,0.112859 -0.234024,0.354246 -0.157791,0.590569 0.07091,0.219829 0.187594,0.39969 0.259291,0.39969 0.0717,0 1.545245,-1.685597 3.27455,-3.745771 z m -0.660088,-2.25406 c 1.149813,-1.5327391 2.090569,-2.9680881 2.090569,-3.1896631 0,-0.222777 -0.178599,-0.433321 -0.399535,-0.470998 -0.295233,-0.05035 -0.607094,0.299197 -1.19461,1.338959 -0.437292,0.7739 -1.518571,2.4592101 -2.402842,3.7451331 -0.884272,1.285923 -1.565853,2.487621 -1.514625,2.67044 0.0657,0.234467 0.275413,0.09089 0.711808,-0.487337 0.340267,-0.450854 1.559423,-2.073795 2.709235,-3.606534 z M 9.6197348,6.4541929 c 0.4178402,-0.362196 0.7284062,-0.695776 0.6901472,-0.741288 -0.03826,-0.04551 -0.6489152,0.06422 -1.3570142,0.243847 -0.708098,0.179629 -2.028436,0.494084 -2.9340838,0.69879 -0.9056479,0.204705 -1.8719548,0.372192 -2.1473487,0.372192 -0.4126715,0 -0.4690831,0.07288 -0.3208162,0.414484 0.098945,0.227967 0.2397898,0.840812 0.3129885,1.361878 0.073199,0.521067 0.2282492,1.5213401 0.3445568,2.2228311 l 0.2114684,1.275437 2.220197,-2.5948171 c 1.221108,-1.427149 2.562066,-2.891158 2.979905,-3.253354 z M 23.294902,20.397898 c 0,-0.09071 0.403534,-0.837637 0.896741,-1.659841 0.493208,-0.822203 1.161805,-1.71944 1.485773,-1.99386 l 0.589032,-0.498944 -0.201427,0.687359 c -0.110785,0.378048 -0.626059,1.314375 -1.145054,2.080729 -0.518994,0.766353 -1.096949,1.428495 -1.284345,1.471426 -0.187396,0.04293 -0.34072,0.0038 -0.34072,-0.08687 z M 0.22050245,17.733478 C 0.09922605,17.46391 -1.5652193e-7,16.827859 -1.5652193e-7,16.32003 -1.5652193e-7,15.5251 0.11258045,15.289082 0.80960325,14.622745 1.2548851,14.197066 1.6739333,13.913885 1.7408215,13.993454 c 0.066888,0.07957 -0.1182418,0.442492 -0.4113999,0.806494 -0.41305095,0.512868 -0.53370095,0.898786 -0.53606355,1.71468 -0.00168,0.579072 -0.081642,1.200484 -0.177701,1.380916 -0.1400843,0.263128 -0.2182947,0.231051 -0.3951546,-0.162066 z M 26.48053,15.527482 c 0,-0.206707 0.256644,-0.791505 0.57032,-1.299549 0.313676,-0.508045 0.804023,-1.17939 1.08966,-1.491878 l 0.51934,-0.568161 -0.193178,0.801268 c -0.106247,0.440697 -0.596594,1.281167 -1.089659,1.86771 -0.574763,0.683729 -0.896483,0.931568 -0.896483,0.69061 z M 1.8329313,12.702207 C 1.6987572,12.446629 1.5314279,11.118608 1.4610884,9.7510509 c -0.090496,-1.759454 -0.063084,-2.486469 0.093755,-2.486469 0.1219048,0 0.3595098,0.552253 0.5280111,1.22723 0.1685012,0.674976 0.3049939,1.8740211 0.3033171,2.6645441 -0.00168,0.790523 -0.071953,1.56629 -0.1561683,1.723927 -0.1104527,0.206748 -0.2210963,0.157128 -0.397072,-0.178076 z M 3.9820345,5.1176099 c 0,-0.08316 0.5599736,-0.3205843 1.2443858,-0.5276031 C 5.9108325,4.3829881 6.8291892,4.157899 7.267213,4.0898089 L 8.0636198,3.9660086 7.1676621,4.4773995 C 6.6748854,4.7586645 5.7565286,5.0517959 5.1268694,5.1288029 4.4972102,5.2058099 3.9820345,5.2007729 3.9820345,5.1176099 Z M 10.362639,2.7516212 c -0.0051,-0.2024629 0.259187,-0.8718293 0.587398,-1.487481 0.328211,-0.61565161 0.728437,-1.17948131 0.889392,-1.25295491 0.160954,-0.073473 1.12436,0.2228568 2.140901,0.6585118 L 15.828587,1.461797 14.825052,1.531664 c -0.686774,0.047814 -1.283806,-0.08178 -1.891466,-0.4105709 -0.853923,-0.46203751 -0.89937,-0.46406551 -1.186584,-0.05295 -0.164259,0.2351187 -0.540834,0.7929119 -0.836833,1.2395405 -0.337218,0.5088227 -0.541672,0.674594 -0.54753,0.4439376 z"
     id="path410" /></svg>
