<?xml version="1.0" encoding="UTF-8" standalone="no"?>
<!-- Created with Inkscape (http://www.inkscape.org/) -->

<svg
   width="134.82033"
   height="117.27212"
   viewBox="0 0 35.671211 31.028247"
   version="1.1"
   id="svg1"
   xml:space="preserve"
   xmlns="http://www.w3.org/2000/svg"
   xmlns:svg="http://www.w3.org/2000/svg"><defs
     id="defs1" /><g
     id="g1"
     transform="matrix(1.67938,0,0,1.8323769,-7.3583756,-15.294879)"><path
       style="fill:#fefcf8"
       d="m 4.4704937,16.928371 c -0.09592,-0.155203 -0.1176559,-0.338931 -0.048301,-0.408286 0.069355,-0.06936 0.1966029,0.05763 0.2827736,0.282186 0.086171,0.224558 0.1079062,0.408286 0.048301,0.408286 -0.059605,0 -0.1868532,-0.126984 -0.2827736,-0.282186 z"
       id="path2" /><path
       style="fill:#fed714"
       d="M 17.20917,23.560557 C 17.100325,22.614672 16.775269,21.304984 16.486823,20.65014 16.198378,19.995297 15.651877,19.135276 15.272378,18.738984 14.89288,18.342692 14.016862,17.830617 13.325672,17.601041 12.634483,17.371465 11.314256,17.085724 10.391835,16.966061 9.0358514,16.790153 8.9193828,16.742067 9.7835966,16.714941 c 0.5878894,-0.01845 1.7738714,-0.217175 2.6355154,-0.441604 0.861644,-0.22443 1.95932,-0.707578 2.439281,-1.073661 0.479961,-0.366084 1.110074,-1.130987 1.400253,-1.699784 0.290178,-0.568796 0.685225,-1.960883 0.877882,-3.093526 l 0.350285,-2.0593501 0.179797,1.7197911 c 0.09889,0.945886 0.311227,2.196042 0.471861,2.778125 0.170524,0.617917 0.705554,1.452786 1.285693,2.006214 0.576498,0.549956 1.509684,1.092367 2.222901,1.292056 0.6761,0.189296 1.912437,0.431748 2.747415,0.538782 1.32715,0.170124 1.383668,0.198971 0.449251,0.229298 -0.587889,0.01908 -1.773871,0.218316 -2.635515,0.442746 -0.861644,0.22443 -1.958346,0.706834 -2.437117,1.07201 -0.47877,0.365176 -1.054563,1.019913 -1.27954,1.45497 -0.224977,0.435057 -0.561023,1.827886 -0.746769,3.095176 l -0.337721,2.304165 z m -5.380596,0.160441 c -0.111898,-0.186812 -0.441576,-0.474308 -0.732618,-0.638879 -0.291042,-0.164571 -0.384977,-0.302841 -0.208744,-0.307266 0.176232,-0.0044 0.533419,-0.222123 0.79375,-0.483774 0.455549,-0.457859 0.493202,-0.455375 1.002494,0.06615 l 0.529167,0.541874 -0.590299,0.580779 c -0.448922,0.441682 -0.639025,0.49943 -0.79375,0.24112 z m 12.159349,-13.379913 -0.601782,-0.5018684 0.631266,-0.6312658 0.631266,-0.6312659 0.55524,0.6233584 c 0.551461,0.6191156 0.55171,0.6268879 0.03666,1.1419367 -0.285218,0.285217 -0.548344,0.514616 -0.584724,0.509775 -0.03638,-0.0048 -0.336948,-0.234643 -0.667928,-0.51067 z M 10.989308,10.229998 c -0.23422,-0.2822178 -0.211358,-0.401424 0.0999,-0.5208628 0.221995,-0.085188 0.585261,-0.085188 0.807256,0 0.311253,0.1194388 0.334115,0.238645 0.0999,0.5208628 -0.167053,0.201287 -0.393639,0.365976 -0.503523,0.365976 -0.109884,0 -0.33647,-0.164689 -0.503523,-0.365976 z"
       id="path1" /></g></svg>
